<svg xmlns="http://www.w3.org/2000/svg" xmlns:xlink="http://www.w3.org/1999/xlink" viewBox="0 0 1897.87 1510.07">
  <defs>
    <linearGradient id="Íîâûé_îáðàçåö_ãðàäèåíòà_9" data-name="Íîâûé îáðàçåö ãðàäèåíòà 9" x1="1158.96" y1="833.38" x2="923.24" y2="543.55" gradientUnits="userSpaceOnUse">
      <stop offset="0" stop-color="#53cd9f"/>
      <stop offset="1" stop-color="#0d7a5c"/>
    </linearGradient>
    <linearGradient id="Íîâûé_îáðàçåö_ãðàäèåíòà_9-2" x1="1067.28" y1="374.3" x2="623.35" y2="779.71" xlink:href="#Íîâûé_îáðàçåö_ãðàäèåíòà_9"/>
    <linearGradient id="Íîâûé_îáðàçåö_ãðàäèåíòà_7" data-name="Íîâûé îáðàçåö ãðàäèåíòà 7" x1="817.27" y1="507.73" x2="853.55" y2="507.73" gradientUnits="userSpaceOnUse">
      <stop offset="0" stop-color="#fb9a2b"/>
      <stop offset="1" stop-color="#e65925"/>
    </linearGradient>
    <linearGradient id="Íîâûé_îáðàçåö_ãðàäèåíòà_7-2" x1="873.39" y1="496.45" x2="914.05" y2="496.45" xlink:href="#Íîâûé_îáðàçåö_ãðàäèåíòà_7"/>
    <linearGradient id="Íîâûé_îáðàçåö_ãðàäèåíòà_10" data-name="Íîâûé îáðàçåö ãðàäèåíòà 10" x1="668.29" y1="218.82" x2="859.28" y2="218.82" gradientUnits="userSpaceOnUse">
      <stop offset="0" stop-color="#c7a44f"/>
      <stop offset="1" stop-color="#609a3f"/>
    </linearGradient>
    <linearGradient id="Íîâûé_îáðàçåö_ãðàäèåíòà_7-3" x1="668.41" y1="1373.95" x2="783.31" y2="1373.95" xlink:href="#Íîâûé_îáðàçåö_ãðàäèåíòà_7"/>
    <linearGradient id="Íîâûé_îáðàçåö_ãðàäèåíòà_7-4" x1="881.8" y1="1373.95" x2="996.69" y2="1373.95" xlink:href="#Íîâûé_îáðàçåö_ãðàäèåíòà_7"/>
    <linearGradient id="Íîâûé_îáðàçåö_ãðàäèåíòà_10-2" x1="145.79" y1="1102.43" x2="526.26" y2="1102.43" xlink:href="#Íîâûé_îáðàçåö_ãðàäèåíòà_10"/>
    <linearGradient id="Íîâûé_îáðàçåö_ãðàäèåíòà_9-3" x1="66.04" y1="1250.43" x2="422.53" y2="1250.43" xlink:href="#Íîâûé_îáðàçåö_ãðàäèåíòà_9"/>
    <linearGradient id="Íîâûé_îáðàçåö_ãðàäèåíòà_10-3" x1="0" y1="1326.81" x2="380.39" y2="1326.81" xlink:href="#Íîâûé_îáðàçåö_ãðàäèåíòà_10"/>
    <linearGradient id="Íîâûé_îáðàçåö_ãðàäèåíòà_9-4" x1="1308.18" y1="952.72" x2="1796.95" y2="952.72" xlink:href="#Íîâûé_îáðàçåö_ãðàäèåíòà_9"/>
    <linearGradient id="Íîâûé_îáðàçåö_ãðàäèåíòà_10-4" x1="1389.45" y1="1157.8" x2="1878.03" y2="1157.8" xlink:href="#Íîâûé_îáðàçåö_ãðàäèåíòà_10"/>
    <linearGradient id="Íîâûé_îáðàçåö_ãðàäèåíòà_10-5" x1="1460.93" y1="1312.53" x2="1890.67" y2="1312.53" xlink:href="#Íîâûé_îáðàçåö_ãðàäèåíòà_10"/>
    <linearGradient id="Íîâûé_îáðàçåö_ãðàäèåíòà_9-5" x1="967.96" y1="1390.94" x2="1011.98" y2="1950.42" xlink:href="#Íîâûé_îáðàçåö_ãðàäèåíòà_9"/>
    <linearGradient id="Íîâûé_îáðàçåö_ãðàäèåíòà_9-6" x1="31.45" y1="1414.76" x2="1897.87" y2="1414.76" xlink:href="#Íîâûé_îáðàçåö_ãðàäèåíòà_9"/>
    <linearGradient id="Íîâûé_îáðàçåö_ãðàäèåíòà_7-5" x1="1071.17" y1="886.27" x2="1118.95" y2="886.27" xlink:href="#Íîâûé_îáðàçåö_ãðàäèåíòà_7"/>
    <linearGradient id="Íîâûé_îáðàçåö_ãðàäèåíòà_7-6" x1="1266.12" y1="1297.1" x2="1318.61" y2="1297.1" xlink:href="#Íîâûé_îáðàçåö_ãðàäèåíòà_7"/>
    <linearGradient id="Íîâûé_îáðàçåö_ãðàäèåíòà_7-7" x1="812.95" y1="1277.05" x2="875.13" y2="1277.05" gradientTransform="translate(1789.95 73.51) rotate(71.63)" xlink:href="#Íîâûé_îáðàçåö_ãðàäèåíòà_7"/>
    <linearGradient id="Íîâûé_îáðàçåö_ãðàäèåíòà_7-8" x1="585.78" y1="410.31" x2="128.1" y2="672.63" xlink:href="#Íîâûé_îáðàçåö_ãðàäèåíòà_7"/>
    <linearGradient id="Íîâûé_îáðàçåö_ãðàäèåíòà_8" data-name="Íîâûé îáðàçåö ãðàäèåíòà 8" x1="425.5" y1="669.58" x2="492.04" y2="669.58" gradientUnits="userSpaceOnUse">
      <stop offset="0" stop-color="#c9cd55"/>
      <stop offset="0.51" stop-color="#659c52"/>
      <stop offset="1" stop-color="#287f50"/>
    </linearGradient>
    <linearGradient id="Íîâûé_îáðàçåö_ãðàäèåíòà_7-9" x1="566.45" y1="376.6" x2="108.77" y2="638.91" xlink:href="#Íîâûé_îáðàçåö_ãðàäèåíòà_7"/>
    <linearGradient id="Íîâûé_îáðàçåö_ãðàäèåíòà_11" data-name="Íîâûé îáðàçåö ãðàäèåíòà 11" x1="357.09" y1="1086.66" x2="482.64" y2="1086.66" gradientUnits="userSpaceOnUse">
      <stop offset="0" stop-color="#00503e"/>
      <stop offset="1" stop-color="#023222"/>
    </linearGradient>
    <linearGradient id="Íîâûé_îáðàçåö_ãðàäèåíòà_11-2" x1="212.15" y1="1074.23" x2="429.88" y2="1074.23" xlink:href="#Íîâûé_îáðàçåö_ãðàäèåíòà_11"/>
    <linearGradient id="Íîâûé_îáðàçåö_ãðàäèåíòà_7-10" x1="577.22" y1="395.36" x2="119.54" y2="657.68" xlink:href="#Íîâûé_îáðàçåö_ãðàäèåíòà_7"/>
    <linearGradient id="Íîâûé_îáðàçåö_ãðàäèåíòà_7-11" x1="589.75" y1="417.25" x2="132.07" y2="679.56" xlink:href="#Íîâûé_îáðàçåö_ãðàäèåíòà_7"/>
    <linearGradient id="Íîâûé_îáðàçåö_ãðàäèåíòà_7-12" x1="560.02" y1="365.37" x2="102.34" y2="627.69" xlink:href="#Íîâûé_îáðàçåö_ãðàäèåíòà_7"/>
    <linearGradient id="Íîâûé_îáðàçåö_ãðàäèåíòà_9-7" x1="611.29" y1="945.81" x2="564.52" y2="880.23" xlink:href="#Íîâûé_îáðàçåö_ãðàäèåíòà_9"/>
    <linearGradient id="Íîâûé_îáðàçåö_ãðàäèåíòà_9-8" x1="622.69" y1="846.15" x2="444.76" y2="844.32" xlink:href="#Íîâûé_îáðàçåö_ãðàäèåíòà_9"/>
    <linearGradient id="Íîâûé_îáðàçåö_ãðàäèåíòà_11-3" x1="494.38" y1="878.55" x2="543.98" y2="878.55" xlink:href="#Íîâûé_îáðàçåö_ãðàäèåíòà_11"/>
  </defs>
  <title>Fichier 1</title>
  <g style="isolation: isolate">
    <g id="Calque_2" data-name="Calque 2">
      <g id="Layer_1" data-name="Layer 1">
        <g>
          <g>
            <path d="M792.76,132.75l-1.33-18.38-27.65,3-1.6,11.79C767.44,131.36,777.28,134,792.76,132.75Z" style="fill: #f99893"/>
            <path d="M852.05,42.62a1,1,0,0,0,.9-1.43c-2.9-5.13-11.94-21.33-10.8-22.37,1.35-1.23,9.78,13.05,11.44,12.73s-6.9-14-5.24-15.13,9,11.69,9.91,11.48-4.92-13.21-4.32-14.44,8.44,11.91,9.56,11.94-1.3-10.82-.39-11.13,1.46-.68,13.89,22.22l7.28,13.17-3.15,5.57-10.8,3.82s-30.5-13.91-30.72-15.28S840.35,41.85,852.05,42.62Z" style="fill: #ffc0bb"/>
            <path d="M818,90.78c.53-8.16,1.2-16.33.6-23.47-.13-1.53-.17-3.06-.19-4.59a53.87,53.87,0,0,0-3.69-18.93c-7.93-20.41-27.67-33.43-48-31.58-27.35,2.49-45.63,29.26-40.65,57.62a9.41,9.41,0,0,0-9,.79c-5,3.55-5.5,11.93-1.19,18.71s11.84,9.42,16.81,5.87a8.49,8.49,0,0,0,1.8-1.74c6.52,23.73,33.42,35.6,55.36,31.41C800.58,122.83,816.36,116.09,818,90.78Z" style="fill: #ffc0bb"/>
            <path d="M789.83,67.53a24,24,0,0,0,.37,6.81,17.88,17.88,0,0,0,1,3.37,8.89,8.89,0,0,0,2,3.18l.42.33.38.29a3.19,3.19,0,0,1,.5.39,2.5,2.5,0,0,1,.68.95,3.09,3.09,0,0,1-.17,2.47c-.81,1.75-2.67,3.06-4.71,4a7.73,7.73,0,0,0,6.18-3.19,4.67,4.67,0,0,0,.65-4,3.92,3.92,0,0,0-.47-1,4.51,4.51,0,0,0-.67-.83,5.57,5.57,0,0,0-.81-.66,2.41,2.41,0,0,1-.29-.23l-.23-.18a8.46,8.46,0,0,1-1.61-2.4,28.11,28.11,0,0,1-1.21-3C791.12,71.84,790.5,69.7,789.83,67.53Z" style="fill: #f99893"/>
            <path d="M776.42,72.23A4.37,4.37,0,1,1,771.16,69,4.37,4.37,0,0,1,776.42,72.23Z" style="fill: #333"/>
            <path d="M807.67,67.22A4.38,4.38,0,1,1,802.4,64,4.37,4.37,0,0,1,807.67,67.22Z" style="fill: #333"/>
            <path d="M777.19,61.87a45.64,45.64,0,0,0-6.5-1,22.22,22.22,0,0,0-6.07.35,20.32,20.32,0,0,0-5.7,2c-1,.39-1.81,1.05-2.79,1.56s-1.81,1.26-2.87,1.83A17.69,17.69,0,0,1,755,63.54,14.53,14.53,0,0,1,757.41,61,14.19,14.19,0,0,1,764,57.82a14.76,14.76,0,0,1,7.24.39A13.53,13.53,0,0,1,777.19,61.87Z" style="fill: #473b1e"/>
            <path d="M770.16,34.65c32.89-.64,32.71-20.59,32.71-20.59l-.88.88c-2.44,1.62-7.62,2-7.62,2C800,2.83,783,0,783,0s11.34,11.32-14.16,11.32S737.7,19.8,737.7,19.8a5.39,5.39,0,0,0-.47,2.23h0a5.59,5.59,0,0,0,.33,3.07A12.92,12.92,0,0,0,740,29.18a20.24,20.24,0,0,0,4.47,3.94,32,32,0,0,0,11,4.43,26.14,26.14,0,0,0,2.89.52c1,.13,2,.3,2.92.38l2.92.14a23.74,23.74,0,0,0,2.92,0c1.94-.09,3.88-.15,5.81-.38s3.83-.57,5.72-1c-1.94-.21-3.85-.29-5.76-.37-1,0-1.91-.14-2.85-.21s-1.9-.13-2.84-.2c-1.89-.17-3.76-.42-5.63-.62l-2.77-.47a25,25,0,0,1-2.74-.53l-2.73-.62-2.64-.83a14.1,14.1,0,0,1-2-.74C753.48,34,760.37,34.84,770.16,34.65Z" style="fill: #473b1e"/>
            <path d="M802.81,53.21a14.89,14.89,0,0,1,7.08-1.55,14.22,14.22,0,0,1,7,2,7.85,7.85,0,0,1,.73.44c.16.95.3,1.9.42,2.84a15.41,15.41,0,0,0-2.27-.81,20.39,20.39,0,0,0-6-1.06,22.39,22.39,0,0,0-6,.64,44.67,44.67,0,0,0-6.25,2.06A13.52,13.52,0,0,1,802.81,53.21Z" style="fill: #473b1e"/>
            <path d="M770,91a17.6,17.6,0,0,0,7.6,6.45,12.81,12.81,0,0,0,4.81,1,19.76,19.76,0,0,0,2.54-.1c.85-.09,1.7-.28,2.59-.36a19.84,19.84,0,0,1-2.43,1.11,13,13,0,0,1-2.65.57A11.05,11.05,0,0,1,777,98.9a11.56,11.56,0,0,1-4.46-3.2A11.84,11.84,0,0,1,770,91Z" style="fill: #f99893"/>
            <polygon points="893.43 1355.62 893.43 1326.8 926.39 1317.67 933.73 1320.9 934.98 1355.62 924.6 1385.86 893.43 1355.62" style="fill: #ffc0bb"/>
            <polygon points="963.1 768.84 941.73 1334.76 887.27 1334.76 839.28 903.95 902.2 710.93 963.1 768.84" style="fill: #473b1e"/>
            <path d="M1019.09,754.37c-12.09,10.78-15.23,12.91-27.51,21.09l3.54,3.8c13.47,28.35,27.82,62.29,28,54.64,1.19-10.37-5.63-31.54,5.48-13.09,21.41,34.92,5.68-.91,4.21-11.79,14.12,18.4,28.12,41.67,9.08-4.08-2.88-13.57,21.62,30.17,21.1,21.45-14.66-45.31-32.75-46.7-2.54-43.71C1097,785.26,1029.46,767.29,1019.09,754.37Z" style="fill: #ffc0bb"/>
            <path d="M1036.36,763.54c-5.86-17.87-37.07-125.49-54.67-186.34-34.76-186.11-69-204.16-69-204.16L878.3,523l33,88.28c15.56,70.08,80.38,175.36,80.38,175.36Z" style="fill: url(#Íîâûé_îáðàçåö_ãðàäèåíòà_9)"/>
            <polygon points="682.83 1355.62 682.83 1326.8 715.78 1317.67 723.12 1320.9 724.37 1355.62 713.99 1385.86 682.83 1355.62" style="fill: #ffc0bb"/>
            <path d="M941.73,766,728.38,1334.76l-52.26-4.26s48.16-516.79,87.09-566.38,141.12-43.59,141.12-43.59Z" style="fill: #473b1e"/>
            <path d="M808.55,360.28s-87.45-2.78-106.88,37.48S639.21,655.93,727.35,659.4c0,0,20.13,1.39,30.54-13.19l-3.47,136.72s133.25,34,209.59,0c0,0,.69-371.29-51.36-410.16C912.65,372.77,887.67,362.36,808.55,360.28Z" style="fill: url(#Íîâûé_îáðàçåö_ãðàäèåíòà_9-2)"/>
            <path d="M824.22,491.61l-6.72,14.47a2.39,2.39,0,0,0,1.16,3.18l31,14.33a2.7,2.7,0,0,0,3.42-3.9l-10.73-21.36S832.61,502.13,824.22,491.61Z" style="fill: url(#Íîâûé_îáðàçåö_ãðàäèåíòà_7)"/>
            <path d="M806,461.44l23.11,16.13-9.45,22.86H845l-5.79-136.92L796.57,305H720.41s-22.9,79.29,81.2,100.59Z" style="fill: #002a24"/>
            <path d="M843.63,177.28l-17.59-39,11.19-3.65c24.16-3,45.93-16.53,49.26-20.73,7-8.9-25.79-60.86-25.79-60.86l21-6.37s55.48,61.25,36.64,85.78-68.88,43.72-68.88,43.72Z" style="fill: #ffc0bb"/>
            <path d="M878.65,481.28l-5.14,15.12a2.4,2.4,0,0,0,1.5,3l35.45,12a2.7,2.7,0,0,0,3-4.25L898.32,488S888.12,490.85,878.65,481.28Z" style="fill: url(#Íîâûé_îáðàçåö_ãðàäèåíòà_7-2)"/>
            <path d="M874.48,331.57s39,15.86,38.17,89.63l-8.22,71.67s-29.38-9.75-27.59-9.75-16.33-97.89-16.33-97.89l-15.5-43Z" style="fill: #002a24"/>
            <path d="M738.59,180.82c-27,12.16-89,94.46-109.07,121.76l-.53,1.17-3.67,13.69c-3.27,11.06-6.09,23.05-7.12,23.38-1.46.46-2.33-.52-3.46-14A1.11,1.11,0,0,0,613,326c-5.38,4.2-22.39,17.29-23.77,16.17-1.64-1.34,13.27-13.41,12.61-15.26s-14.9,10.29-16.43,8.57,11.84-12.34,11.45-13.29-14.29,7.88-15.79,7.41,12.18-11.69,12-13S580.89,320,580.37,319s-2.68,1.25,21.41-16.87c0,0,6.15-4.38,8.61-5.91l3.52-7.44c23.83-65.94,109.48-142.27,109.48-142.27Z" style="fill: #ffc0bb"/>
            <path d="M811,331.57l-3.4,30.19,1.88,2.36a56.94,56.94,0,0,0,51,21.11h0l-7-51.61Z" style="fill: #ffc0bb"/>
            <path d="M858,366.46l-4.46-32.84L811,331.57l-1.88,16.68C816.87,354.9,832.54,364.88,858,366.46Z" style="fill: #f99893"/>
            <path d="M760,145.37s-41.7-8.33-57.84,11.1C687.5,174.09,667,192.1,668.36,191.63s29.15,30.54,29.15,30.54L722,197.65l-7.4,110.58H851.36L832.23,182.54s6.86-.62,27-6.17l-14.41-47S806.7,142.59,788.19,144,760,145.37,760,145.37Z" style="fill: url(#Íîâûé_îáðàçåö_ãðàäèåíòà_10)"/>
            <path d="M887.88,274c-1,7.48,3.07,14.18,9.06,15s11.65-4.64,12.64-12.12-3.07-14.18-9.07-15S888.86,266.51,887.88,274Z" style="fill: #f99893"/>
            <path d="M896.3,314a56.88,56.88,0,0,0,1.83-10.36A108.22,108.22,0,0,0,897,276.23c-.29-1.78-.47-3.56-.62-5.35a58.44,58.44,0,1,0-114.79,19.61,12.66,12.66,0,0,0-11.24,2c-5.92,4.75-5.91,14.59,0,22s15.56,9.53,21.48,4.79A11.32,11.32,0,0,0,794,317c10.07,26.9,38.34,42.3,65.43,34.73a52.46,52.46,0,0,0,30.67-23.31c.47-.67.95-1.43,1.44-2.29A50.52,50.52,0,0,0,896.3,314Z" style="fill: #ffc0bb"/>
            <path d="M836,284.61a5.1,5.1,0,1,1-6.29-3.53A5.11,5.11,0,0,1,836,284.61Z" style="fill: #333"/>
            <path d="M879.06,275.49a5.12,5.12,0,1,1-6.3-3.54A5.11,5.11,0,0,1,879.06,275.49Z" style="fill: #333"/>
            <path d="M839.22,273.22a48,48,0,0,0-7.66-.36,25.47,25.47,0,0,0-7,1.25,23.1,23.1,0,0,0-6.34,3.21l-.77.5c-.26.17-.48.39-.73.58l-1.49,1.17c-1,.81-1.87,1.75-3,2.58a22.12,22.12,0,0,1,1.59-3.73,18.27,18.27,0,0,1,2.48-3.3,16.54,16.54,0,0,1,7.09-4.51,17.34,17.34,0,0,1,8.38-.64A16.16,16.16,0,0,1,839.22,273.22Z" style="fill: #473b1e"/>
            <path d="M859.28,268.71a16,16,0,0,1,5.34-6.14,17.3,17.3,0,0,1,7.84-3,16.67,16.67,0,0,1,8.35,1,18.35,18.35,0,0,1,3.65,1.91,21.8,21.8,0,0,1,3,2.7c-1.36-.28-2.56-.75-3.8-1.05l-1.85-.43c-.31-.06-.6-.17-.9-.21l-.92-.12a23.56,23.56,0,0,0-7.1-.18,25.33,25.33,0,0,0-6.89,1.88A46.9,46.9,0,0,0,859.28,268.71Z" style="fill: #473b1e"/>
            <path d="M851.38,269.88a39.36,39.36,0,0,0,1.24,10.95,30.83,30.83,0,0,0,1.87,5.34,14.32,14.32,0,0,0,3.57,4.93l.71.5.64.42a5.19,5.19,0,0,1,.84.58,4.05,4.05,0,0,1,1.2,1.48,5,5,0,0,1-.05,4c-1.15,2.89-4,5.18-7.22,6.94a12.47,12.47,0,0,0,9.67-5.74,7.49,7.49,0,0,0,.66-6.47,5.9,5.9,0,0,0-.84-1.54,6.81,6.81,0,0,0-1.16-1.29,8.91,8.91,0,0,0-1.36-1,5.12,5.12,0,0,1-.49-.34l-.4-.28a13.48,13.48,0,0,1-2.82-3.72,47.13,47.13,0,0,1-2.23-4.69C853.87,276.71,852.68,273.32,851.38,269.88Z" style="fill: #f99893"/>
            <path d="M883.59,192c-12.16-5.09-33.84-8.27-55.09-5.76,4.46-4.06,7.11-7.18,5.73-7.93-11.17-6.09-41.46,17.71-51.07,25.66-2.35-2.37-10.37-9.55-17-4.82-7.9,5.62,9.17,10.31,9.17,10.31s-11.33,2.87-13.16,9.36c-1.36,4.79,5.56,3,9.26,1.72a14.84,14.84,0,0,0-4.27,3.39h0S753,239.1,755.53,246.43c.61,1.77,2.2,1.72,4.26.62-.83,8.08-1.95,23.33,1.1,24.89,1.75.89,3.17-.2,4.24-1.76a152.67,152.67,0,0,0,8.31,20.58c13.49-4.16,27.09,9.11,27.09,9.11-5.71-18.06,3.08-54.93,3.08-54.93s55.73,14.73,44.89.44c0,0,64.67,12.26,47.53-15.68,0,0,23.28-4.91-7.65-24.33C888.38,205.37,905.36,201.06,883.59,192Z" style="fill: #473b1e"/>
            <path d="M845,316c2,5,8.66,8.09,16,7.09s12.88-5.75,13.49-11.12Z" style="fill: #fff"/>
            <path d="M791.89,342.23c3.47,0,46.93,11.84,48.27,43.38s-55.9-12.84-55.9-12.84Z" style="fill: #002a24"/>
            <path d="M763.78,117.37l-3.81,28s20.84,14.47,33.55-2l-2.09-29Z" style="fill: #ffc0bb"/>
            <path d="M797.56,455.52c14.13,7.9,17.17,10.17,28.92,19.1l2.43-4.59c22.4-22,49.79-46.63,42.51-44.28-10.19,2.26-28,15.63-14.17-.9,26-31.65-2.71-5.08-12.52-.12,12.78-19.36,30.21-40.2-6.82-7.26-11.88,7.16,21.46-30.29,13.38-26.94-38,28.65-33.43,46.21-40.48,16.68C801.3,371.82,806.38,441.5,797.56,455.52Z" style="fill: #ffc0bb"/>
            <path d="M830.39,475.7c-2.69-2.27-5.4-4.5-8.24-6.56s-5.7-4.09-8.64-6-5.91-3.75-9-5.49-6.09-3.41-9.27-5l-.86-.42-.67.61a53.5,53.5,0,0,0-6,6.67c-1.82,2.28-3.56,4.61-5.28,6.95-3.44,4.68-6.77,9.43-10.07,14.19-6.53,9.58-12.9,19.26-19.22,29-2.24,3.45-4.46,6.91-6.69,10.36.61-3.39,1.05-6.79,1.4-10.19.45-4.15.72-8.3,1-12.45s.3-8.32.26-12.49-.17-8.33-.61-12.52a125.4,125.4,0,0,0-1.82,12.41c-.45,4.14-.72,8.29-1,12.45s-.31,8.31-.26,12.48c0,3.71.15,7.42.49,11.15q-5.79,9-11.48,18.08c-6.14,9.82-12.27,19.64-18.25,29.55l19.25-28.9,19.36-28.83q9.74-14.37,19.73-28.55c3.32-4.73,6.67-9.44,10.11-14.07,1.73-2.31,3.46-4.61,5.27-6.83a60,60,0,0,1,4.94-5.6c2.75,1.41,5.5,2.92,8.19,4.48q4.47,2.61,8.78,5.46t8.45,5.94c2.49,1.83,4.87,3.8,7.22,5.8q-7.24,21.27-14.88,42.43C807.48,534.26,802,548.6,796.58,563s-11.17,28.59-17.32,42.64c-3,7-6.2,14-9.62,20.89-1.73,3.42-3.51,6.82-5.43,10.13a78.32,78.32,0,0,1-6.32,9.6c5-5.88,8.82-12.6,12.49-19.35s7-13.68,10.29-20.64c6.44-14,12.39-28.14,18.16-42.38S810,535.2,815.34,520.79s10.52-28.87,15.5-43.42l.34-1Z" style="fill: #fff"/>
            <g>
              <path d="M778.13,1405.84l-106.88-3.31a4.68,4.68,0,0,1-4.52-4.81l.08-2.37a4.66,4.66,0,0,1,4.8-4.52l106.88,3.31A4.67,4.67,0,0,1,783,1399l-.07,2.37A4.66,4.66,0,0,1,778.13,1405.84Z" style="fill: #847d3d"/>
              <path d="M673.37,1355.32l-4.86,32.41c-.6,4,1.54,7.71,4.48,7.8l102.41,3.17a7.45,7.45,0,0,0,6.83-4.57c1.53-3.16,2-8-2.41-14.59-8.68-13.11-38.18-17.26-52.74-28.51a1.75,1.75,0,0,0-1-.37l-47.12-1.46C676.27,1349.12,673.91,1351.71,673.37,1355.32Z" style="fill: url(#Íîâûé_îáðàçåö_ãðàäèåíòà_7-3)"/>
              <path d="M718.8,1369.34h0a2.2,2.2,0,0,1-.49-2.67c2.14-4.39,8.76-15.05,21.48-12.42.74.15,1.21,1.15,1.05,2.16v0c-.16,1-.84,1.59-1.55,1.45-11.4-2.31-17,7.09-18.78,10.77C720.13,1369.45,719.41,1369.74,718.8,1369.34Z" style="fill: #fff"/>
              <path d="M729.31,1373.86h0a2.19,2.19,0,0,1-.5-2.67c2.15-4.4,8.77-15,21.49-12.43a1.85,1.85,0,0,1,1.05,2.16v0c-.15,1-.84,1.6-1.55,1.46-11.4-2.31-17,7.08-18.78,10.77C730.64,1374,729.91,1374.26,729.31,1373.86Z" style="fill: #fff"/>
              <path d="M739.08,1378.07h0a2.2,2.2,0,0,1-.5-2.67c2.15-4.39,8.77-15.05,21.49-12.42.73.15,1.2,1.15,1,2.15v0c-.15,1-.84,1.59-1.55,1.45-11.4-2.31-17,7.09-18.78,10.77C740.41,1378.18,739.68,1378.47,739.08,1378.07Z" style="fill: #fff"/>
            </g>
            <g>
              <path d="M991.52,1405.84l-106.88-3.31a4.67,4.67,0,0,1-4.52-4.81l.07-2.37a4.66,4.66,0,0,1,4.81-4.52l106.88,3.31a4.68,4.68,0,0,1,4.52,4.81l-.08,2.37A4.66,4.66,0,0,1,991.52,1405.84Z" style="fill: #847d3d"/>
              <path d="M886.76,1355.32l-4.86,32.41c-.6,4,1.53,7.71,4.48,7.8l102.4,3.17a7.45,7.45,0,0,0,6.83-4.57c1.54-3.16,2-8-2.41-14.59-8.68-13.11-38.18-17.26-52.73-28.51a1.77,1.77,0,0,0-1-.37l-47.13-1.46C889.65,1349.12,887.3,1351.71,886.76,1355.32Z" style="fill: url(#Íîâûé_îáðàçåö_ãðàäèåíòà_7-4)"/>
              <path d="M932.19,1369.34h0a2.19,2.19,0,0,1-.5-2.67c2.15-4.39,8.77-15.05,21.49-12.42.73.15,1.2,1.15,1,2.16v0c-.15,1-.84,1.59-1.55,1.45-11.4-2.31-17,7.09-18.78,10.77C933.52,1369.45,932.79,1369.74,932.19,1369.34Z" style="fill: #fff"/>
              <path d="M942.69,1373.86h0a2.22,2.22,0,0,1-.5-2.67c2.15-4.4,8.77-15,21.49-12.43a1.83,1.83,0,0,1,1.05,2.16v0c-.16,1-.84,1.6-1.55,1.46-11.4-2.31-17,7.08-18.79,10.77C944,1374,943.3,1374.26,942.69,1373.86Z" style="fill: #fff"/>
              <path d="M952.46,1378.07h0a2.22,2.22,0,0,1-.5-2.67c2.15-4.39,8.77-15.05,21.49-12.42.74.15,1.21,1.15,1,2.15v0c-.16,1-.84,1.59-1.55,1.45-11.4-2.31-17,7.09-18.78,10.77C953.79,1378.18,953.07,1378.47,952.46,1378.07Z" style="fill: #fff"/>
            </g>
          </g>
          <g>
            <g>
              <g>
                <path d="M402.55,1405.3s170-156.93,111.43-209c0,0-7.38-23.17-71.11,36.58,0,0-31.8,2.86-25.33-34.27s67.33-80.58,43.52-120.3-52.48,13.45-76.67,18.76,18.66-138.38-8-161.81-47.75,32.21-66.14,34.62S279.81,789,192,800s-9.74,98.47,20.22,147.89-45.12,6.91-64.7,55.28,132.2,44.22,108.35,90-58.53,7.35-74.31,42.09c-25.51,56.17,128.58,35.33,116.31,75.36-9.79,31.92-56.3-2.63-67.36,21.15S288.19,1368.6,402.55,1405.3Z" style="fill: url(#Íîâûé_îáðàçåö_ãðàäèåíòà_10-2)"/>
                <path d="M517.85,1200.28c-.49-.59-1-1.16-1.54-1.72-4.16,7.17-9,14.92-14.69,22.84-20.73,29.08-56.17,66.43-107.49,79.9a854.26,854.26,0,0,0-24.33-96.13c28.61-71,62.06-106.26,85.08-123.3,2-1.47,3.94-2.83,5.84-4.1-.4-.66-.81-1.3-1.22-1.91-1.86,1.24-3.75,2.56-5.69,4-23,17-56.38,52-85,122.05,0-.14-.09-.28-.13-.42-11-34.8-24.53-71.54-40.49-109.87A589.86,589.86,0,0,1,340,1018.55c6.16-26.88,16.21-60.54,31.65-86.65a19.94,19.94,0,0,0-2-1c-15.5,26.35-25.59,60.1-31.76,87.06a604.51,604.51,0,0,0-11.51,69.4q-18.36-43.79-40.86-90.17c-41.76-86.11-84.27-158.17-106.68-194.66l-2.19.64c22.27,36.24,65,108.55,107,195.09,7.06,14.55,14.28,29.9,21.5,45.86a498.8,498.8,0,0,0-60.37-22.79c-25.45-7.82-60.31-16.28-97.07-18.5l-.15.34q-.39,1-.69,1.92c36.81,2.14,71.79,10.62,97.28,18.45a482.75,482.75,0,0,1,62.44,23.78c15.94,35.43,31.82,73.82,45.9,113.32-48.2-19.35-131.39-21.23-172.6-20.84-.24.79-.44,1.56-.61,2.31,41.37-.42,126.43,1.41,174.25,21.43,19.91,56.27,36.1,114.69,43.58,170-43.18-3.39-88.12-35.82-118.36-62.6a535.78,535.78,0,0,1-44.23-44.32,13.64,13.64,0,0,0-1.59,1.55,533.85,533.85,0,0,0,44.42,44.53c30.6,27.11,76.17,60,120.09,63.18a449.06,449.06,0,0,1,4.05,69.08l1.08.35,1.09-1c.69-30.42-2.36-64.08-9.09-100.7q5-1.32,10-2.95a175.4,175.4,0,0,0,54.39-30.05c16.1-12.91,31.06-29,44.48-47.84C508.92,1215,513.73,1207.36,517.85,1200.28Z" style="fill: #fff;opacity: 0.64;mix-blend-mode: color-dodge"/>
              </g>
              <path d="M422.53,1384s-25.36-147.19-177.34-237.12l4.2,54.81-21.72-61.86S137.35,1091.53,66,1076c0,0,85.73,153,114,180L230.13,1270l-42.21,19.08s45.94,86.38,122,124.26S422.53,1384,422.53,1384Z" style="fill: url(#Íîâûé_îáðàçåö_ãðàäèåíòà_9-3)"/>
              <g>
                <path d="M0,1275.49c20.31,46.74,47.12,80.42,77.13,104.34,17.44-11.39,38.44-24.52,38.44-24.52l-17,39.65c122.35,76.47,281.87,16,281.87,16-43-103.57-97.07-155-150.78-177-9.42,12-23.25,30-23.25,30l5.68-36.21c-26.95-8-53.51-9.11-78.22-6.29-2.85,18.83-6.54,40.13-6.54,40.13l-17.12-36.19C46.49,1239.23,0,1275.49,0,1275.49Z" style="fill: url(#Íîâûé_îáðàçåö_ãðàäèåíòà_10-3)"/>
                <path d="M229.61,1233.87c-9.42,12-23.25,30-23.25,30l5.68-36.21c-26.95-8-53.51-9.11-78.22-6.29-2.85,18.83-6.54,40.13-6.54,40.13l-17.12-36.19C46.49,1239.23,0,1275.49,0,1275.49c135.86,103.37,380.39,135.42,380.39,135.42C337.35,1307.34,283.32,1255.88,229.61,1233.87Z" style="fill: #b7d972"/>
              </g>
            </g>
            <g>
              <path d="M1744.12,569.55c-62.9-22.95-65,84-64.43,112.8a414.59,414.59,0,0,0-61.53,29.72c12.3-32.82,41.27-48.71,43-71.64,1.9-25.72-12.27-53.59-45.53-21.25-26.36,25.62-11.65,76.91-4.4,97.11a376.71,376.71,0,0,0-69.67,55.08c9-39.91,40.49-62.23,39.72-88.48-.84-28.72-19.59-57.45-52.44-16.74-27.14,33.65-2,91.55,7.5,110.63-14.17,15-21.35,25.55-22.11,26.69a733,733,0,0,0-39.12,63.46c7.12-35.34,30.36-60.06,26.73-83.74-4.35-28.43-26.36-54-53.75-8.27-21.67,36.17,6.6,86.79,19.35,106.37a727.19,727.19,0,0,0-52.09,129.28c-4.28-33.52,11.27-84.26-2.22-113.51-8.84-19.19-22.28-21.48-32.07-20-8.36,1.28-15.5,6.81-19.73,15-23.91,46.54,33.68,108.41,51.77,126.18a733.13,733.13,0,0,0-25.1,136.86c-2.35-17.32-5.79-43.47-7-57.13-2-21.54-14.53-49.71-31.12-58.73-.69-.38-1.37-.72-2-1-12.94-5.91-27.28.54-34.19,13.94-27,52.41,55.21,106.78,73.26,117.89l-.06.83c-6.32,99.48,9.57,165.41,10.25,168.17l8.86-2.57c-.16-.64-15.24-63.42-10.38-156.52,82.47-28.1,95.64-88.4,80.39-106.67-15.76-18.88-50-19.89-57.66,23.26-4.43,25-14.21,50-21.65,66.53a721.24,721.24,0,0,1,24.82-139.76c115.69,6.55,110.62-75.27,84.7-89.27-26.24-14.16-42.41,1.17-54.81,35.14a152.82,152.82,0,0,1-27.93,47.31,716.49,716.49,0,0,1,50.69-127.11c16.57,14.54,61.21,48.45,93.55,23.91,40.42-30.67,18.29-56.1-6.56-61.42-22.86-4.9-47.24,27.51-83.68,31.15a722.75,722.75,0,0,1,44.18-73c.26-.4,14.67-21.55,44.57-47.66,15.06,16.9,55.53,56.37,90.28,36.88,43.64-24.48,24.42-52.8.26-61.65-21.56-7.9-48.44,18.72-83.54,18.79a394.48,394.48,0,0,1,108.42-63.57c15.74,17.42,55.32,55,89.38,35.87,43.64-24.48,24.42-52.8.26-61.65-21.86-8-49.19,19.5-85,18.8l-.33-1.06c10.87-8.37,34-26,45.45-33.82,15.29-10.39,30.28-33.83,28.79-53.73S1744.12,569.55,1744.12,569.55Z" style="fill: url(#Íîâûé_îáðàçåö_ãðàäèåíòà_9-4)"/>
              <g>
                <path d="M1876.59,894.81c6.26,85.63-8.24,157.92-35.64,218.83-36.44-1.38-79.84-2.18-79.84-2.18l58.75,42.8c-128.78,217.68-426.7,268.58-426.7,268.58-16.9-188,25.61-309.88,91.52-388.63,24.43,9.23,60.62,23.38,60.62,23.38l-38.24-47.69c35.56-35.07,76.06-59.84,116.9-77.26,19.73,24.9,42.76,52.66,42.76,52.66l-2.67-67.52C1774.66,882.56,1876.59,894.81,1876.59,894.81Z" style="fill: url(#Íîâûé_îáðàçåö_ãðàäèåíòà_10-4)"/>
                <path d="M1484.68,1034.21c24.43,9.23,60.62,23.38,60.62,23.38l-38.24-47.69c35.56-35.07,76.06-59.84,116.9-77.26,19.73,24.9,42.76,52.66,42.76,52.66l-2.67-67.52c110.61-35.22,212.54-23,212.54-23-128,268.54-483.43,528-483.43,528C1376.26,1234.81,1418.77,1113,1484.68,1034.21Z" style="fill: #b7d972"/>
              </g>
              <g>
                <path d="M1890.67,1194.54c-52.8-9.62-101.32-7-145.23,3.5-6.4,19.93-14.56,43.61-14.56,43.61l-15.29-35.08c-163.09,54.26-254.66,212.67-254.66,212.67,115.31,22.85,200.7,8.57,263.56-21.57-1-14-2.67-34.68-2.67-34.68l22.48,24.27a299.76,299.76,0,0,0,72.09-58c-11.79-12.54-24.71-27.09-24.71-27.09l42.09,6.36C1878.06,1250.9,1890.67,1194.54,1890.67,1194.54Z" style="fill: #b7d972"/>
                <path d="M1724.49,1397.67c-1-14-2.67-34.68-2.67-34.68l22.48,24.27a299.76,299.76,0,0,0,72.09-58c-11.79-12.54-24.71-27.09-24.71-27.09l42.09,6.36c44.29-57.63,56.9-114,56.9-114-195,50.16-429.74,224.7-429.74,224.7C1576.24,1442.09,1661.63,1427.81,1724.49,1397.67Z" style="fill: url(#Íîâûé_îáðàçåö_ãðàäèåíòà_10-5)"/>
              </g>
            </g>
            <path d="M1854.5,1414.76s-41.25,33.78-132.12,37.49-121.62-9.32-256.77,2-180.55,46.34-347,53.57c-234.25,10.19-326.37-17.93-539.06-24.23-142.25-4.21-211.77,7.87-323.89-4.21-134-14.42-170.42-63.35-170.42-63.35H179.2Z" style="fill: url(#Íîâûé_îáðàçåö_ãðàäèåíòà_9-5)"/>
            <path d="M40.56,1405.65H1888.77a9.1,9.1,0,0,1,9.1,9.11h0a9.1,9.1,0,0,1-9.1,9.11H40.56a9.11,9.11,0,0,1-9.11-9.11h0A9.11,9.11,0,0,1,40.56,1405.65Z" style="fill: url(#Íîâûé_îáðàçåö_ãðàäèåíòà_9-6)"/>
          </g>
          <g>
            <g>
              <path d="M1548,1389.82l37.18-24.27,33.13,18.87-11.19,8.41-39.42,6.59s-15.49-1.58-16.19-2S1548,1389.82,1548,1389.82Z" style="fill: #ffc0bb"/>
              <path d="M1548,1389.82l-9.42,6.41a5.25,5.25,0,0,0,3,9.61l72.5-1.52a4.63,4.63,0,0,0,4.53-4.72l-.32-15.18C1570.35,1400.8,1553.57,1396.48,1548,1389.82Z" style="fill: #002a24"/>
              <polygon points="1618.3 1336.48 1586.12 1357.71 1585.17 1365.55 1590.87 1380.16 1618.3 1384.42 1618.3 1336.48" style="fill: #ffc0bb"/>
            </g>
            <g>
              <path d="M1429.28,1389.82l37.18-24.27,33.13,18.87-11.19,8.41-39.42,6.59s-15.49-1.58-16.19-2S1429.28,1389.82,1429.28,1389.82Z" style="fill: #ffc0bb"/>
              <path d="M1429.28,1389.82l-9.42,6.41a5.25,5.25,0,0,0,3,9.61l72.5-1.52a4.63,4.63,0,0,0,4.53-4.72l-.32-15.18C1451.64,1400.8,1434.86,1396.48,1429.28,1389.82Z" style="fill: #002a24"/>
              <polygon points="1499.59 1336.48 1467.41 1357.71 1466.46 1365.55 1472.16 1380.16 1499.59 1384.42 1499.59 1336.48" style="fill: #ffc0bb"/>
            </g>
            <path d="M1589.56,343.76l1.74,4.18a718.27,718.27,0,0,0,67.39,126c21.17,31.36,39.51,71.15,6,82,0,0,6.32,54.8-33.73,60.42,0,0,11.24,44.26-37.24,44.26s-112.48-1.48-112.48-1.48-56,12.64-48.23-35.83c0,0-44.8-7.76-12.56-96.9a579.94,579.94,0,0,0,32.25-149c1.76-21,5.15-40.67,11.43-51.45C1482.06,295.28,1560.05,272.8,1589.56,343.76Z" style="fill: #002a24"/>
            <path d="M1475.51,774.34l-10.83,583.37h36.85s60.63-152.69,60.63-223S1570,855.13,1570,855.13l-34.3-104-43.5-16.86Z" style="fill: #473b1e"/>
            <path d="M1497.52,764.73s42.16,327.88,58.08,403.75,27.28,189.23,27.28,189.23h38.3s30.91-142.39,0-267.91c0,0-11.25-24.36,8.43-104s37.47-147.07-15-237.47L1564,721.64Z" style="fill: #847d3d"/>
            <path d="M1204.12,493.49c1.66-1,20.65,5.73,20.86,4.5s-18.66-10.24-17.32-12.7,21.68,8.1,21.95,5.72-20.83-12.68-19.24-14.73c1.33-1.71,25.22,9.23,32.78,12.75a1.35,1.35,0,0,0,1.91-1.43c-2.39-16.4-1.62-17.8.24-17.65,1.33.1,8,13.61,15,25.89l8.08,15.15c3.6,3.38,89.73,70.78,101.78,73,5.9,1.09,55.29-36.67,55.29-36.67l43.78,27.25s-82.13,61.75-102,58.26c-20.33-3.59-118.88-107.57-118.88-107.57-3.36-1.15-11.9-4.69-11.9-4.69-33.71-15-30.52-12.91-30.18-14.23s16,.88,15.77-.68S1202.46,494.46,1204.12,493.49Z" style="fill: #ffc0bb"/>
            <path d="M1378.9,574.37c41.88-35.58,95.09-86.53,115.39-96.92,11.8-6,20.64,1.3,25.61,8a34.92,34.92,0,0,1,5.32,29.61c-11.12,42.62-74.72,88-116.39,112.56C1399.71,612,1386.62,594,1378.9,574.37Z" style="fill: #b7d972"/>
            <path d="M1601.5,567l25.58,186s-111.29,36-151.57,32c0,0,3.28-151.05-3.28-171.66-6.41-20.16-45.73-47,20.84-135.38,1.17-1.56,7-4.76,11.59-4.93l50-1.81,25.91.36Z" style="fill: #edfdfc"/>
            <path d="M1527.64,629.25c11-53.85,21.43-132.81,30.9-147.49,7.19-11.14,17-11.72,25.09-9.51a34.87,34.87,0,0,1,22.48,20c17.57,40.4-5.54,118.34-23.17,163.35C1566.08,648.89,1545.82,639.9,1527.64,629.25Z" style="fill: #b7d972"/>
            <path d="M1540.8,433.19l2.59,38S1520.71,488,1506.2,473h0l-.61-35.17Z" style="fill: #ffc0bb"/>
            <path d="M1506,459.31l-.38-21.53,35.21-4.6.75,11.09A69.77,69.77,0,0,1,1506,459.31Z" style="fill: #f99893"/>
            <path d="M1577,392.82s17.1-42.65-7.34-62.76-52.94-22.05-73.51-14.72-36.72,40.33-30.73,61.22l66.39-10.29Z" style="fill: #002a24"/>
            <path d="M1466.18,411.26a87.77,87.77,0,0,1-1.25-23.26c.1-1.51.11-3,.1-4.55a47.63,47.63,0,0,1,3.59-18.7c8.24-20.11,29.69-32.7,52.13-30.56,30.24,2.88,51.07,29.69,46.29,57.71a11.5,11.5,0,0,1,10,.92c5.57,3.59,6.37,11.9,1.78,18.56s-12.83,9.16-18.4,5.56a9.29,9.29,0,0,1-2-1.76A47.65,47.65,0,0,1,1504,449.13,47,47,0,0,1,1466.18,411.26Z" style="fill: #ffc0bb"/>
            <path d="M848.81,735.07s33.83-14,52.27,18.81c0,0,23.44-7.88,43.38,19.62,0,0,28.33,0,41.09,21.87,0,0,22.28-2.53,39.75,19.62a39.38,39.38,0,0,1,31.12,23.48s24.56,4.06,32.6,26.45-48.33,4-48.33,4l-175.64-82Z" style="fill: #edfdfc"/>
            <path d="M1518.94,392.31a4.83,4.83,0,1,0,5.6-3.69A4.76,4.76,0,0,0,1518.94,392.31Z" style="fill: #333"/>
            <path d="M1479.67,387.05a4.7,4.7,0,0,0,3.89,5.43,4.76,4.76,0,0,0,5.6-3.68,4.7,4.7,0,0,0-3.89-5.44A4.76,4.76,0,0,0,1479.67,387.05Z" style="fill: #333"/>
            <path d="M1515.94,384.1a30.54,30.54,0,0,1,7.07-1.58,22.4,22.4,0,0,1,7,.42,18.6,18.6,0,0,1,3.34,1.08,22.1,22.1,0,0,1,3.14,1.63,36.27,36.27,0,0,1,5.63,4.51,19.16,19.16,0,0,0-4.85-5.56,17,17,0,0,0-3.23-2,17.15,17.15,0,0,0-3.65-1.27,18.23,18.23,0,0,0-7.64-.08,20,20,0,0,0-3.6,1.08A15.07,15.07,0,0,0,1515.94,384.1Z" style="fill: #002a24"/>
            <path d="M1496.66,381.52A14.73,14.73,0,0,0,1494,379a19.43,19.43,0,0,0-3.19-2,18.3,18.3,0,0,0-7.4-1.93,17,17,0,0,0-3.84.27,17.53,17.53,0,0,0-3.66,1.08,19.29,19.29,0,0,0-6.13,4.1,36.19,36.19,0,0,1,6.61-2.88,24.23,24.23,0,0,1,3.46-.75,19.57,19.57,0,0,1,3.51-.16,22.33,22.33,0,0,1,6.9,1.45A30,30,0,0,1,1496.66,381.52Z" style="fill: #002a24"/>
            <path d="M1567,391.9s-32.84-18.1-48.53-41c0,0-1.09,11.28,2.27,15.74-1.33.62-24-11.75-27.22-30.1s28.67-7.18,28.67-7.18,19-.46,19.79,0,13,10,13.58,10.64,14.8,26.83,14.8,26.83l3.27,9.45,3.36,16.54Z" style="fill: #002a24"/>
            <path d="M1003.34,888.59h267.81a151.25,151.25,0,0,1,151.25,151.25v16.81a0,0,0,0,1,0,0H852.08a0,0,0,0,1,0,0v-16.81A151.25,151.25,0,0,1,1003.34,888.59Z" transform="translate(2274.48 1945.23) rotate(180)" style="fill: #b7d972"/>
            <path d="M909.45,888.59a150.52,150.52,0,0,0,146.24,114.93H1325a149.85,149.85,0,0,0,76.49-20.87,150.39,150.39,0,0,1-129.61,74H1002.57A150.49,150.49,0,0,1,852.08,906.16V888.59Z" style="fill: #847d3d;opacity: 0.5"/>
            <polygon points="1089.86 878.35 857.47 762.73 852.08 876.55 969.53 888.61 1089.86 878.35" style="fill: #b7d972"/>
            <rect x="840.84" y="876.55" width="594.15" height="24.36" rx="7.61" transform="translate(2275.83 1777.46) rotate(180)" style="fill: #847d3d"/>
            <path d="M1510.43,418.43a13.79,13.79,0,0,0-11.08-.06s-5.25-4.2-10.19-1.52a10.85,10.85,0,0,0,10.45,9.16C1509.06,426.71,1510.43,418.43,1510.43,418.43Z" style="fill: #f99893;opacity: 0.30000000000000004;mix-blend-mode: multiply"/>
            <path d="M1515.74,416.16a28,28,0,0,1-3.64,1.81,28.7,28.7,0,0,1-3.81,1.34,25.22,25.22,0,0,1-8,.95,21.83,21.83,0,0,1-7.77-1.89,30.24,30.24,0,0,1-6.76-4.44,25.47,25.47,0,0,0,2.94,2.84,23.08,23.08,0,0,0,3.47,2.28,20,20,0,0,0,3.91,1.54,21.71,21.71,0,0,0,4.17.67,22.28,22.28,0,0,0,8.25-1.22A23.41,23.41,0,0,0,1515.74,416.16Z" style="fill: #f99893"/>
            <path d="M1501.53,387.82a55.19,55.19,0,0,0-4.41,6,50.85,50.85,0,0,0-3.59,6.57,19.12,19.12,0,0,0-1.22,3.63,5.91,5.91,0,0,0-.1,1,5.59,5.59,0,0,0,0,.57,2.33,2.33,0,0,0,.21.63,2.9,2.9,0,0,0,.2.33l.17.19c.12.12.23.26.36.37a7.79,7.79,0,0,0,.77.65,18.5,18.5,0,0,0,3.34,2,25.74,25.74,0,0,0,3.58,1.44,42.43,42.43,0,0,1-6.11-4.35c-.23-.2-.42-.42-.62-.63l-.28-.33-.13-.16,0-.08a2.75,2.75,0,0,1,.07-1.4A19.39,19.39,0,0,1,1495,401c1-2.22,2.1-4.4,3.22-6.59S1500.46,390.06,1501.53,387.82Z" style="fill: #f99893"/>
            <path d="M1101.64,1062.47l197,221.37a14.24,14.24,0,0,1-1.24,20.09h0a14.23,14.23,0,0,1-20.08-1.24l-210-234.21C1077.84,1064.27,1101,1069.66,1101.64,1062.47Z" style="fill: #edfdfc"/>
            <rect x="929.34" y="1044.34" width="394.03" height="24.6" rx="7.69" transform="translate(2252.7 2113.29) rotate(180)" style="fill: #edfdfc"/>
            <path d="M851.54,1293.61l557.83-491.37a14.23,14.23,0,0,0,1.23-20.08h0a14.23,14.23,0,0,0-20.08-1.24L832.7,1272.29a14.22,14.22,0,0,0-1.24,20.08h0A14.23,14.23,0,0,0,851.54,1293.61Z" style="fill: #edfdfc"/>
            <path d="M1006.36,1110.59l138.32-121.83a10.94,10.94,0,0,1,15.26.77l11.76,12.68a11,11,0,0,1-.8,15.66L1114,1068l49.2,55.27a11,11,0,0,1-.82,15.38L1148.75,1151a10.94,10.94,0,0,1-15.5-.79l-49.68-55.42-50.69,44.65a11,11,0,0,1-15.1-.6l-12-12.43A11,11,0,0,1,1006.36,1110.59Z" style="fill: #473b1e"/>
            <path d="M1071.17,886.27a23.89,23.89,0,1,0,23.89-23.89A23.9,23.9,0,0,0,1071.17,886.27Z" style="fill: url(#Íîâûé_îáðàçåö_ãðàäèåíòà_7-5)"/>
            <path d="M1078.17,886.27a16.89,16.89,0,1,0,16.89-16.89A16.89,16.89,0,0,0,1078.17,886.27Z" style="fill: #edfdfc"/>
            <g>
              <polygon points="1212.64 1319.38 1287.07 1295.82 1217.78 1259.86 1219.56 1256.43 1288.85 1292.39 1265.29 1217.97 1268.97 1216.8 1292.53 1291.23 1328.5 1221.94 1331.93 1223.72 1295.96 1293.01 1370.39 1269.44 1371.56 1273.13 1297.13 1296.69 1366.42 1332.66 1364.64 1336.09 1295.35 1300.12 1318.91 1374.55 1315.23 1375.71 1291.66 1301.29 1255.7 1370.58 1252.27 1368.8 1288.23 1299.51 1213.81 1323.07 1212.64 1319.38" style="fill: #b7d972"/>
              <path d="M1198.24,1325.28a98.24,98.24,0,1,1,123.31,64A98.36,98.36,0,0,1,1198.24,1325.28Zm20.15-6.38a77.11,77.11,0,1,0,50.24-96.78A77.18,77.18,0,0,0,1218.39,1318.9Z" style="fill: #b7d972"/>
              <path d="M1267.35,1305a26.24,26.24,0,1,0,17.1-32.93A26.25,26.25,0,0,0,1267.35,1305Z" style="fill: url(#Íîâûé_îáðàçåö_ãðàäèåíòà_7-6)"/>
              <path d="M1186.84,1328.89a110.2,110.2,0,1,1,138.32,71.8A110.32,110.32,0,0,1,1186.84,1328.89Zm22.6-7.16a86.49,86.49,0,1,0,56.35-108.56A86.58,86.58,0,0,0,1209.44,1321.73Z" style="fill: #002a24"/>
              <path d="M1273.61,1303a19.67,19.67,0,1,0,12.82-24.69A19.67,19.67,0,0,0,1273.61,1303Z" style="fill: #edfdfc"/>
            </g>
            <g>
              <polygon points="748.78 1300.32 837.82 1275.32 757.18 1230.04 759.43 1226.05 840.06 1271.33 815.07 1182.29 819.47 1181.06 844.47 1270.1 889.75 1189.46 893.75 1191.7 848.46 1272.34 937.5 1247.34 938.74 1251.75 849.7 1276.74 930.33 1322.03 928.09 1326.02 847.45 1280.74 872.45 1369.78 868.04 1371.01 843.05 1281.97 797.76 1362.61 793.77 1360.37 839.05 1279.73 750.02 1304.73 748.78 1300.32" style="fill: #b7d972"/>
              <path d="M731.49,1306.73A116.38,116.38,0,1,1,875,1387.33,116.52,116.52,0,0,1,731.49,1306.73ZM755.6,1300a91.34,91.34,0,1,0,63.26-112.62A91.45,91.45,0,0,0,755.6,1300Z" style="fill: #b7d972"/>
              <circle cx="844.04" cy="1277.05" r="31.08" transform="translate(-633.95 1675.54) rotate(-71.63)" style="fill: url(#Íîâûé_îáðàçåö_ãðàäèåíòà_7-7)"/>
              <path d="M717.85,1310.56c-19.45-69.3,21.11-141.52,90.41-161s141.52,21.1,161,90.41-21.11,141.52-90.41,161S737.31,1379.87,717.85,1310.56Zm27-7.59a102.46,102.46,0,1,0,71-126.34A102.57,102.57,0,0,0,744.9,1303Z" style="fill: #002a24"/>
              <path d="M821.6,1283.35a23.31,23.31,0,1,0,16.14-28.74A23.32,23.32,0,0,0,821.6,1283.35Z" style="fill: #edfdfc"/>
            </g>
            <path d="M1440.84,762.73s53.39-61.51,69.72-81.77c5-6.22,18.75-24.13,23.61-48,18.18,10.64,27.23,14,44.09,20.66-3.17,8.09-13.89,27.77-16.5,33.29-13.81,29.28-121.22,98.38-121.22,98.38-14,5.82-13.78-5.83-34-7.94l-33.69,15.28c0-16.88,24.56-29.64,30.8-31.5C1409.54,759.37,1440.84,762.73,1440.84,762.73Z" style="fill: #ffc0bb"/>
            <path d="M1415.61,803.49,1269.68,932a12.1,12.1,0,0,1-17.06-1.07l-8.11-9.18a12.11,12.11,0,0,1,1.06-17.09l145.9-128.51a18.23,18.23,0,0,1,25.73,1.58h0A18.24,18.24,0,0,1,1415.61,803.49Z" style="fill: #473b1e"/>
          </g>
          <g>
            <path d="M270,439.8c-21.07,0-56.82-14-95.75,11.32-11,7.17-18.1,18.86-22.52,31.23a201.64,201.64,0,0,0-8.43,33.85C139.46,538.51,86,532.86,67.71,572c-23.81,50.82,18.14,96.69,48.64,131.8,66.26,76.3,151.78,56.1,172.8,66.18,15.11,7.26,4-23.4,20.68-22.32,16.51,1.06,36.12.72,45.56-12.86,5.39-7.76,5.8-17.9,9.61-26.54,5.33-12.12,16.75-20.24,27.64-27.75,13.75-9.47,27.57-19,42.67-26.13,16-7.59,105.62-16.83,78.85-132.32-10.37-44.74-36.83-71.33-64.29-90.55-19.71-13.79-38-18.75-65.53-19.49C321.1,410.25,325.58,439.8,270,439.8Z" style="fill: url(#Íîâûé_îáðàçåö_ãðàäèåíòà_7-8)"/>
            <path d="M487.1,730.78c14,54.24,44.72,81.87,44.72,81.87-8.6,20.19-47.63,12.43-47.63,12.43C442.57,795.21,449.14,757,449.14,757,471.24,720.53,487.1,730.78,487.1,730.78Z" style="fill: #f99893"/>
            <path d="M425.5,601.46s48,18.93,66.54,118.16c0,0-12,16.25-38.79,18S434.61,674,434.61,674Z" style="fill: url(#Íîâûé_îáðàçåö_ãðàäèåíòà_8)"/>
            <polygon points="368.94 568.88 370.76 597.64 409.95 605.79 416.88 605.79 415.43 571.34 373.86 556.66 368.94 568.88" style="fill: #ffc0bb"/>
            <path d="M430.41,614.92c1.77,19.32-6.22,22.92-6.22,22.92L365,593.92c36.73,3.6,60.49,7.54,60.49,7.54S428.55,615.45,430.41,614.92Z" style="fill: #ffc0bb"/>
            <path d="M332.22,506.35s-12.09-49.57,16.7-68.14,59.29-16.51,80.06-5.38,33.22,49.91,23.91,72.08l-69-21.17Z" style="fill: url(#Íîâûé_îáðàçåö_ãðàäèåíòà_7-9)"/>
            <polygon points="444.5 1377.39 432.81 1337.79 470.77 1333.77 473.08 1336.37 478.48 1378.51 461.51 1390.17 444.5 1377.39" style="fill: #ffc0bb"/>
            <polygon points="206.92 1328.09 226.65 1291.82 256.33 1315.81 256.13 1319.29 226.78 1356.79 209.91 1349.15 206.92 1328.09" style="fill: #ffc0bb"/>
            <path d="M357.09,842.14l28.46,248.94s27,213,48.77,260.39h48.32L472.12,875.39,387,821.86Z" style="fill: url(#Íîâûé_îáðàçåö_ãðàäèåíòà_11)"/>
            <path d="M368.09,561.37s.84,8.35,1.56,18.75c14.91,16.32,42.84,10.72,46.53,9.14-.22-5.23,0-15.81,0-15.81Z" style="fill: #f99893"/>
            <path d="M334.36,818.07s-54,69.63-41.21,180.48,10,150.64,10,150.64-69.64,64-91,156.33c0,0,30.55,21.32,51.16,24.87,0,0,102.32-156.32,110.13-174.8s56.44-309,56.44-309Z" style="fill: url(#Íîâûé_îáðàçåö_ãðàäèåíòà_11-2)"/>
            <path d="M443.92,513.67c-2.45,6.67-.12,13.67,5.22,15.63s11.65-1.85,14.11-8.52.12-13.67-5.22-15.64S446.38,507,443.92,513.67Z" style="fill: #f99893"/>
            <path d="M443.36,552.22a53.73,53.73,0,0,0,3.82-9.14,101.78,101.78,0,0,0,4.63-25.48c.11-1.69.31-3.36.55-5a55,55,0,1,0-109.42-5.74,11.89,11.89,0,0,0-10.72-.47c-6.43,3.14-8.45,12.19-4.53,20.22s12.31,12,18.73,8.85a10.9,10.9,0,0,0,2.41-1.64c3.66,26.81,26.42,46.82,52.85,45.47a49.27,49.27,0,0,0,33-15.08,23.46,23.46,0,0,0,1.8-1.8A47.87,47.87,0,0,0,443.36,552.22Z" style="fill: #ffc0bb"/>
            <path d="M393.91,514.37a5.17,5.17,0,1,1-5.42-4.9A5.17,5.17,0,0,1,393.91,514.37Z" style="fill: #333"/>
            <path d="M439.77,514.37a5.17,5.17,0,1,1-5.42-4.9A5.15,5.15,0,0,1,439.77,514.37Z" style="fill: #333"/>
            <path d="M398.25,505.76A31.33,31.33,0,0,0,391,503a22.84,22.84,0,0,0-7.53-.58,19.48,19.48,0,0,0-3.7.7c-.61.15-1.2.38-1.8.59-.3.1-.58.24-.88.36s-.59.23-.88.38a38.5,38.5,0,0,0-6.6,4.15,20.62,20.62,0,0,1,5.92-5.42,17.78,17.78,0,0,1,3.72-1.74,18,18,0,0,1,4-.86,18.88,18.88,0,0,1,8.11,1,20.19,20.19,0,0,1,3.67,1.73A16.16,16.16,0,0,1,398.25,505.76Z" style="fill: url(#Íîâûé_îáðàçåö_ãðàäèåíòà_7-10)"/>
            <path d="M419.07,505.76a16.16,16.16,0,0,1,3.19-2.44,20.51,20.51,0,0,1,3.67-1.73,18.9,18.9,0,0,1,8.12-1,18.12,18.12,0,0,1,7.76,2.6,20.79,20.79,0,0,1,5.93,5.42,38.58,38.58,0,0,0-6.61-4.15c-.29-.15-.58-.26-.88-.38s-.58-.26-.88-.36c-.6-.21-1.19-.44-1.8-.59a19.48,19.48,0,0,0-3.7-.7,22.84,22.84,0,0,0-7.53.58A31.5,31.5,0,0,0,419.07,505.76Z" style="fill: url(#Íîâûé_îáðàçåö_ãðàäèåíòà_7-11)"/>
            <path d="M301,679.38a41.49,41.49,0,0,0,3.51-4.25,47.48,47.48,0,0,0,3-4.68,41.4,41.4,0,0,0,2.44-5,51.85,51.85,0,0,0,1.86-5.3,30.05,30.05,0,0,1-1.19,5.54c-.26.92-.61,1.8-.95,2.69s-.73,1.76-1.17,2.6a38.1,38.1,0,0,1-2.93,4.91,33.59,33.59,0,0,1-2.86,3.59,20.43,20.43,0,0,0,2.92.36,22,22,0,0,0,6.1-.57,19.31,19.31,0,0,0,2-.61,21.61,21.61,0,0,0,3.76-1.8,17.19,17.19,0,0,1-7.57,3.72,18.62,18.62,0,0,1-4.28.43,17.81,17.81,0,0,1-4.32-.54l-1-.27Z" style="fill: #fff"/>
            <path d="M413,512a61.29,61.29,0,0,1,3.82,7.32,57.78,57.78,0,0,1,2.88,7.77,21.11,21.11,0,0,1,.77,4.19,7.56,7.56,0,0,1,0,1.16c0,.2-.08.42-.12.62a2.87,2.87,0,0,1-.31.67l-.25.33-.22.19c-.14.12-.28.25-.43.36-.3.2-.6.42-.91.6a19.64,19.64,0,0,1-3.83,1.74,25.77,25.77,0,0,1-4,1.06,45.34,45.34,0,0,0,7.11-3.89c.27-.19.5-.41.74-.61l.34-.32.17-.16a.36.36,0,0,1,0-.09,3.13,3.13,0,0,0,.12-1.55,23.78,23.78,0,0,0-.8-3.85c-.71-2.59-1.61-5.16-2.48-7.74S413.83,514.62,413,512Z" style="fill: #f99893"/>
            <path d="M310.4,761.39h0c-7-39.17-10.07-81.22-10.07-81.22a239.2,239.2,0,0,1,.23-25.85c9.81-8,23.5-19.32,23.5-19.32l23.4-39.87v0c4.63-.43,9.4-.74,12.92-.94a57.61,57.61,0,0,1,10.42.37l54.71,6.94.09,0a124.73,124.73,0,0,1,45.93,83.81c2.49,23.12,2.19,47.76.8,69.78h0S482.3,882.58,487.1,903c0,0-118.83,15.31-189.52,2.13C297.58,905.08,311,816.93,310.4,761.39Z" style="fill: #b7d972"/>
            <path d="M336,499.52l1.29-.16.87-10.75,4.81-9.95s18.84-26.75,19.51-27.41,15-9.29,15.91-9.73,21,2.87,21,2.87,35.39-7.61,29.4,12.16-31.83,30.07-33.15,29.18c4.2-4.42,4.64-17,4.64-17-19.9,23-57.31,38.11-57.31,38.11s-3.92-3-10.72-.47Z" style="fill: url(#Íîâûé_îáðàçåö_ãðàäèåíòà_7-12)"/>
            <path d="M424.48,546.14c-1.38,6.1-7.29,10.64-14.3,10.52s-12.77-4.86-13.92-11Z" style="fill: #fff"/>
            <g>
              <path d="M500.43,777.15,501.61,791s14.14,6.29,22.83-1.41l-.91-15.52Z" style="fill: #ffc0bb"/>
              <path d="M524.07,783.19l-.54-9.11-23.1,3.07.67,7.87A28.63,28.63,0,0,0,524.07,783.19Z" style="fill: #f99893"/>
              <path d="M536.06,736.85c-1.06,4.85,1.23,9.46,5.11,10.31s7.89-2.4,8.94-7.24-1.22-9.46-5.11-10.31S537.12,732,536.06,736.85Z" style="fill: #f99893"/>
              <path d="M541.13,756.86c.53-6.28,1.18-12.56.76-18-.08-1.18-.1-2.36-.1-3.54a38.42,38.42,0,1,0-76.28,6.51,8.33,8.33,0,0,0-7.47.71c-4.14,2.78-4.67,9.23-1.19,14.4s9.67,7.11,13.81,4.33a7.31,7.31,0,0,0,1.51-1.37c5.11,18.18,27.19,27,45.35,23.53C526.4,781.7,539.5,776.35,541.13,756.86Z" style="fill: #ffc0bb"/>
              <path d="M512.27,737.44a16,16,0,0,0,.25,4.53,12.2,12.2,0,0,0,.63,2.23,6,6,0,0,0,1.35,2.11c.75.59,1.09.75,1.32,1.3a2.07,2.07,0,0,1-.12,1.64,6.24,6.24,0,0,1-3.13,2.67,5.12,5.12,0,0,0,4.11-2.12,3.1,3.1,0,0,0,.43-2.64c-.31-.93-.81-1.25-1.64-1.92a5.27,5.27,0,0,1-1.07-1.59,19.29,19.29,0,0,1-.8-2C513.13,740.3,512.72,738.88,512.27,737.44Z" style="fill: #f99893"/>
              <path d="M499.49,745.42a3.35,3.35,0,1,1-4-2.48A3.34,3.34,0,0,1,499.49,745.42Z" style="fill: #333"/>
              <path d="M528,740.64a3.35,3.35,0,1,1-4-2.48A3.34,3.34,0,0,1,528,740.64Z" style="fill: #333"/>
              <path d="M501.45,737a34.28,34.28,0,0,0-5,.22,16.66,16.66,0,0,0-4.5,1.18,15.75,15.75,0,0,0-4,2.37c-1,.64-3.15,2.92-3.74,3.41A11.25,11.25,0,0,1,490.9,736a11.35,11.35,0,0,1,5.5-.81A10.29,10.29,0,0,1,501.45,737Z" style="fill: #473b1e"/>
              <path d="M516.11,734.53a10.34,10.34,0,0,1,4.07-3.51,11.24,11.24,0,0,1,5.43-1.19,11.24,11.24,0,0,1,9.19,5.3c-.74-.25-3.56-1.61-4.7-1.86a15.87,15.87,0,0,0-4.56-.81,17.58,17.58,0,0,0-4.64.49A36.17,36.17,0,0,0,516.11,734.53Z" style="fill: #473b1e"/>
              <path d="M531.15,756c-2.22-3.4-5.09-4.12-11.28-.7l-.06,0a13,13,0,0,1-9.66,1.15h-.06c-6.83-1.86-9.45-.48-10.8,3.34-1.24,3.49,4.38,17.13,16.18,15.37,1.19-.17,2.4-.32,3.6-.43C531,773.65,533.18,759.07,531.15,756Z" style="fill: #ff5b7e"/>
              <path d="M521.86,764.55a5.44,5.44,0,1,1-6.05-4.75A5.43,5.43,0,0,1,521.86,764.55Z" style="fill: #fff"/>
              <path d="M511.39,779.42a9.31,9.31,0,1,1,6.85,1.91A9.2,9.2,0,0,1,511.39,779.42Zm4.8-15.12a7.88,7.88,0,1,0,5.82,1.62A7.89,7.89,0,0,0,516.19,764.3Z" style="fill: #fff"/>
              <path d="M537.69,852s24.14,3.8,31.75,15.83c0,0,8-11,14.16-7.92,2.11,1.06,3,3.59,3.24,6.47a19.82,19.82,0,0,1-16.46,21c-5.86,1-13.91,1.21-24.94-.53C510.29,881.25,537.69,852,537.69,852Z" style="fill: url(#Íîâûé_îáðàçåö_ãðàäèåíòà_9-7)"/>
              <path d="M531.72,787.6s15.9-4.93,41-23.76c1-6.61,2.52-17,3.08-17.24.8-.39,1.38.1,3.16,7.74a.64.64,0,0,0,1.09.3c2.73-2.85,11.37-11.79,12.26-11.26,1.05.63-6.48,8.8-5.94,9.8S594,746,595,746.89s-5.75,8.07-5.44,8.58,7.52-5.72,8.42-5.58-6,7.73-5.8,8.45,6.69-2.93,7.07-2.41.72.8-11.56,13.21c0,0-1.19.87-2.48,2-1,3-13,36.11-39.38,47.13C521.57,821.64,531.72,787.6,531.72,787.6Z" style="fill: #ffc0bb"/>
              <path d="M532.33,787.26l0-.12a57.83,57.83,0,0,0-7.57-.63l-.09.1c-10.46,10.65-23.38.81-23.38.81-4.92.4-8.89.81-10.66,1l-1.08,0s-15.89,14.89-20.08,31c0,0-24.3,68.36,22.61,80.39s50.08-8,50.08-8,18.6-11.82,23-27.64S550.48,802.31,532.33,787.26Z" style="fill: url(#Íîâûé_îáðàçåö_ãðàäèåíòà_9-8)"/>
              <path d="M560.5,823.87c-5.6-.3-17.29-.67-18.39,1.38-1.45,2.7,16.83,4.86,16.33,6.06s-16.83,5.3-16.11,7.23c.65,1.72,17.42-.09,17.87.91s-13.7,7-13.46,9c.22,1.79,15.72-2.25,16.17-1.69l.05.09c-2.54,1.91-10.35,7.93-9.94,9.47.35,1.28,8.37-2,13.06-4.13,0,0,2.48-1.6,2.21-3.53-.13-.9-1.35-1.89-1.74-3.1s0-2.67-.16-4c-.15-.9-1.26-1.71-1.43-2.78-.22-1.46.51-3.22.29-4.49s-1.06-2.31-1.13-3.35c-.1-1.47.61-2.79.32-4C563.88,824.57,560.92,823.89,560.5,823.87Z" style="fill: #ffc0bb"/>
              <path d="M543.76,877.93a8,8,0,0,0-2.07-4.45,5.66,5.66,0,0,0-4.81-1.37,11.58,11.58,0,0,0-4.51,1.91,24.68,24.68,0,0,0-3.67,3.07,35.71,35.71,0,0,0-2.54,2.82,24.25,24.25,0,0,0-6-5.74,43.85,43.85,0,0,0-8.12-4.3,66.32,66.32,0,0,0-8.68-2.87,73.75,73.75,0,0,0-8.93-1.75c2.95.67,5.88,1.45,8.75,2.39a83.16,83.16,0,0,1,8.43,3.22,46.48,46.48,0,0,1,7.8,4.38,22.78,22.78,0,0,1,6.17,6.21l.54.84.62-.8a29.87,29.87,0,0,1,6.43-6.37,10.3,10.3,0,0,1,4-1.8,4.67,4.67,0,0,1,3.88,1,7.19,7.19,0,0,1,1.9,3.81,21.42,21.42,0,0,1,.39,4.54,49.53,49.53,0,0,1-1.06,9.2,39.41,39.41,0,0,0,1.12-4.53,40,40,0,0,0,.63-4.65A21.46,21.46,0,0,0,543.76,877.93Z" style="fill: url(#Íîâûé_îáðàçåö_ãðàäèåíòà_11-3)"/>
              <path d="M489.14,788.53s-14.92-7.36-36.72-29.88c.11-6.68.19-17.15-.33-17.51-.72-.51-1.38-.12-4.34,7.15a.64.64,0,0,1-1.12.13c-2.25-3.25-9.38-13.43-10.34-13-1.14.46,5,9.71,4.33,10.62s-6.45-8.27-7.59-7.58,4.4,8.87,4,9.32-6.53-6.82-7.44-6.82,4.71,8.57,4.41,9.25-6.16-3.94-6.61-3.49-.84.68,9.34,14.86c0,0,1,1.05,2.14,2.33.56,3.14,7.16,37.71,31.48,52.72C493.83,823.74,489.14,788.53,489.14,788.53Z" style="fill: #ffc0bb"/>
              <path d="M504.85,713.76c25.21-.5,25.07-15.78,25.07-15.78l-.67.67c-1.87,1.24-5.84,1.56-5.84,1.56,4.34-10.85-8.69-13-8.69-13s8.69,8.68-10.86,8.68c-12.11,0-18.39,2.49-21.41,4.39-6.54,4.12-.59,10.26,2.66,12.32a24.31,24.31,0,0,0,8.41,3.4,41.45,41.45,0,0,0,13.39.54c1.47-.22,2.93-.44,4.38-.75-1.48-.15-3-.21-4.41-.28A94.77,94.77,0,0,1,494,713.94a34.54,34.54,0,0,1-5.64-1.68C492.06,713.27,497.35,713.91,504.85,713.76Z" style="fill: #473b1e"/>
            </g>
            <path d="M499.51,866c-.1-1.92-16.19-14-15.28-14.9s18.85,9.89,20.16,7.41S485.65,845,487.49,843.4s22.09,10.35,22.91,7.9c.69-2.06-21.63-15.92-28.75-20.28a1.36,1.36,0,0,1,.14-2.38c15-7.06,15.74-8.49,14.58-10-.82-1-15.76.86-29.84,1.85l-17.1,1.64c-4.8-1.13-109.25-35.06-117.08-44.48-8-9.58,0-66.34,0-66.34l-46.9-21.44s-12.76,91,7.8,117.18c11.08,14.1,155.35,39.62,155.35,39.62,2.81,2.16,10.48,7.33,10.48,7.33,31.12,19.81,27.63,18.29,28.54,17.28s-9.55-12.8-8.15-13.52S499.62,867.94,499.51,866Z" style="fill: #ffc0bb"/>
            <path d="M347.46,595.12s-52.22,19.77-85.28,96.66c0,0,16.23,35.89,70,37.11Z" style="fill: #b7d972"/>
            <path d="M275.62,707.23a77.69,77.69,0,0,0,17.11,11A100.78,100.78,0,0,0,312,724.66c3.28.86,6.7,1.12,10,1.72,2.92.29,5.85.46,8.78.66,1.62-6.31,3.42-12.52,5.34-18.72,2.11-6.66,4.28-13.3,6.91-19.78a188.51,188.51,0,0,1,8.72-19.08c3.4-6.08,7.13-12.22,12.5-16.74-4.78,5.08-8.1,11.24-11,17.52a190.79,190.79,0,0,0-7.72,19.25c-2.19,6.56-4.45,13.11-6.38,19.76s-3.76,13.35-5.37,20l-.36,1.48-1.42-.13c-3.49-.32-7-.54-10.46-.94-3.45-.66-6.95-1-10.34-1.93a82.59,82.59,0,0,1-10.08-3,74,74,0,0,1-26.74-16.3c-5-4.88-9.45-10.39-12.29-16.72A60.5,60.5,0,0,0,275.62,707.23Z" style="fill: #fbf9eb"/>
            <g>
              <path d="M519.79,1405.84l-82.68-.28a3.83,3.83,0,0,1-3.82-3.86v-1a3.84,3.84,0,0,1,3.85-3.82l82.68.28a3.85,3.85,0,0,1,3.83,3.86v1A3.83,3.83,0,0,1,519.79,1405.84Z" style="fill: #edfdfc"/>
              <path d="M437.53,1370.64l-3.08,24c-.38,3,1.36,5.66,3.65,5.67l79.62.27a5.81,5.81,0,0,0,5.22-3.51c1.12-2.37,1.35-5.93-2.2-10.73-7-9.51-30-12-41.58-20a1.4,1.4,0,0,0-.8-.25l-36.64-.13C439.65,1366,437.87,1368,437.53,1370.64Z" style="fill: #473b1e"/>
              <path d="M473.13,1380.08h0a1.58,1.58,0,0,1-.45-2c1.58-3.28,5.54-11,15.47-9.29.58.1,1.92.51,1.82,1.25v0c-.1.72-.62,1.2-1.18,1.1-8.9-1.47-13.08,5.58-14.36,8.34A.91.91,0,0,1,473.13,1380.08Z" style="fill: #edfdfc"/>
              <path d="M483.09,1383.79h0a1.58,1.58,0,0,1-.45-2c1.58-3.29,5.57-10.88,15.51-9.2.57.1,1.88.41,1.78,1.16v0c-.1.72-.62,1.2-1.17,1.11-8.91-1.48-13.09,5.58-14.36,8.33A.92.92,0,0,1,483.09,1383.79Z" style="fill: #edfdfc"/>
            </g>
            <g>
              <path d="M228.49,1402.85l-48.83-66.72a3.84,3.84,0,0,1,.83-5.36l.78-.57a3.84,3.84,0,0,1,5.37.83l48.83,66.71a3.85,3.85,0,0,1-.83,5.37l-.78.57A3.85,3.85,0,0,1,228.49,1402.85Z" style="fill: #edfdfc"/>
              <path d="M208,1315.75l-21.17,11.79c-2.62,1.45-3.76,4.45-2.41,6.3l47,64.25a5.82,5.82,0,0,0,5.93,2.11c2.57-.5,5.57-2.43,7.33-8.13,3.49-11.3-8.18-31.28-8.58-45.33a1.42,1.42,0,0,0-.27-.8l-21.64-29.57C213,1314.7,210.37,1314.44,208,1315.75Z" style="fill: #473b1e"/>
              <path d="M221.54,1350h0a1.57,1.57,0,0,1,1.31-1.52c3.58-.68,12.12-2.06,16.66,6.94.27.52.73,1.84.07,2.2h0a1.1,1.1,0,0,1-1.58-.28c-4.1-8-12.26-7.22-15.23-6.61A.92.92,0,0,1,221.54,1350Z" style="fill: #edfdfc"/>
              <path d="M224.46,1360.22h0a1.57,1.57,0,0,1,1.32-1.52c3.58-.68,12.06-2,16.6,7,.26.52.79,1.76.13,2.13h0a1.13,1.13,0,0,1-1.59-.29c-4.1-8-12.26-7.22-15.23-6.61A.92.92,0,0,1,224.46,1360.22Z" style="fill: #edfdfc"/>
            </g>
          </g>
        </g>
      </g>
    </g>
  </g>
</svg>
