<svg xmlns="http://www.w3.org/2000/svg" viewBox="0 0 2333.47 1875.86">
  <title>Fichier 2</title>
  <g style="isolation: isolate">
    <g id="Calque_2" data-name="Calque 2">
      <g id="Layer_1" data-name="Layer 1">
        <g>
          <path d="M1984.2,1744.63l-2,70.8-47,34.08s-15.39-34-14.94-38.15-2.48-85.34-2.48-85.34Z" style="fill: #ffc0bb"/>
          <path d="M1854.66,1875.86l133-.09a7.44,7.44,0,0,0,7.44-7.44h0a7.45,7.45,0,0,0-7.44-7.44l-133,.08a7.45,7.45,0,0,0-7.44,7.45h0A7.45,7.45,0,0,0,1854.66,1875.86Z" style="fill: #444"/>
          <path d="M1988.3,1815.67l4.92,41.39c.61,5.11-2.24,9.75-6,9.75l-130.32.08c-3.39,0-6.73-2.11-8.51-6.08s-2.2-10.21,3.63-18.46c11.33-16,47.87-20.31,67.11-33.48a6.68,6.68,0,0,1,3.77-1.16l58.56,0C1984.86,1807.67,1987.75,1811.06,1988.3,1815.67Z" style="fill: #e6f7ff"/>
          <path d="M1930,1831.74h0a2.79,2.79,0,0,0,.74-3.37c-2.56-5.67-10.57-19.47-26.84-16.63-.94.17-1.58,1.42-1.42,2.71v0c.16,1.24,1,2.06,1.91,1.9,14.59-2.49,21.39,9.67,23.47,14.42C1928.3,1831.83,1929.21,1832.22,1930,1831.74Z" style="fill: #fff"/>
          <path d="M1916.46,1837.08h0a2.79,2.79,0,0,0,.74-3.37c-2.56-5.67-10.57-19.48-26.84-16.63-.94.17-1.58,1.41-1.42,2.7v0c.16,1.25,1,2.07,1.91,1.91,14.59-2.5,21.39,9.67,23.47,14.42C1914.77,1837.16,1915.68,1837.56,1916.46,1837.08Z" style="fill: #fff"/>
          <path d="M1903.88,1842.06h0a2.81,2.81,0,0,0,.74-3.38c-2.57-5.66-10.57-19.47-26.85-16.62-.94.16-1.57,1.41-1.41,2.7v0c.16,1.25,1,2.07,1.92,1.91,14.58-2.5,21.39,9.67,23.46,14.42C1902.18,1842.14,1903.09,1842.54,1903.88,1842.06Z" style="fill: #fff"/>
          <path d="M2049.33,1875.86l133-.09a7.42,7.42,0,0,0,7.43-7.44h0a7.44,7.44,0,0,0-7.44-7.44l-133,.08a7.43,7.43,0,0,0-7.43,7.45h0A7.44,7.44,0,0,0,2049.33,1875.86Z" style="fill: #444"/>
          <path d="M2183,1815.67l4.93,41.39c.6,5.11-2.25,9.75-6,9.75l-130.32.08c-3.38,0-6.73-2.11-8.51-6.08s-2.2-10.21,3.63-18.46c11.33-16,47.87-20.31,67.12-33.48a6.63,6.63,0,0,1,3.76-1.16l58.56,0C2179.53,1807.67,2182.42,1811.06,2183,1815.67Z" style="fill: #e6f7ff"/>
          <path d="M2124.66,1831.74h0a2.77,2.77,0,0,0,.74-3.37c-2.56-5.67-10.57-19.47-26.84-16.63-.94.17-1.57,1.42-1.41,2.71v0c.16,1.24,1,2.06,1.92,1.9,14.58-2.49,21.39,9.67,23.46,14.42C2123,1831.83,2123.88,1832.22,2124.66,1831.74Z" style="fill: #fff"/>
          <path d="M2111.13,1837.08h0a2.78,2.78,0,0,0,.74-3.37c-2.56-5.67-10.57-19.48-26.84-16.63-.94.17-1.58,1.41-1.41,2.7v0c.16,1.25,1,2.07,1.91,1.91,14.59-2.5,21.39,9.67,23.47,14.42C2109.44,1837.16,2110.35,1837.56,2111.13,1837.08Z" style="fill: #fff"/>
          <path d="M2098.55,1842.06h0a2.81,2.81,0,0,0,.74-3.38c-2.56-5.66-10.57-19.47-26.84-16.62-.94.16-1.58,1.41-1.42,2.7v0c.15,1.25,1,2.07,1.91,1.91,14.58-2.5,21.39,9.67,23.46,14.42C2096.85,1842.14,2097.77,1842.54,2098.55,1842.06Z" style="fill: #fff"/>
          <path d="M432.06,389.43c-.15-1.66-8.84-6.39-7.07-7.39s10.09.64,10.33-.66-7.88-5.38-6.41-7.95,11.12,3.17,11.45.65-10.13-8-8.41-10.13c1.44-1.8,14.84,4.42,22.77,8.3a1.43,1.43,0,0,0,2-1.47c-2.2-17.41-1.35-18.89.61-18.69,1.31.13,11.26,18.05,18.36,31.12,79.49,51.49,199,71.59,199,71.59s62.15,85.37,2.43,78.63c-52.35-5.91-178.56-94.16-208.89-115.84h0l-11.69-6.74h0l0,0c-3.55-1.3-6.72-2.21-6.72-2.21-35.33-16.53-23.21-11.55-22.82-12.94S432.22,391.09,432.06,389.43Z" style="fill: #ffc0bb"/>
          <g>
            <path d="M719.68,655.61a2.23,2.23,0,0,0,3.5,1.76c11.17-7.89,46.5-32.51,49.15-30.12,3.15,2.84-27.88,25.61-26.75,29.39s30.84-19.19,33.72-15.6-24.91,23.62-24.23,25.56,29.36-14.42,32.32-13.33S761.86,675.55,762,678.13s24.68-5.48,25.61-3.45,1.9,3.22-48.09,37.23L719.3,724.45l-22.06,1.3-11.3-24.07s25.14-73.74,28.23-74.56S718.79,628.39,719.68,655.61Z" style="fill: #ffc0bb"/>
            <path d="M393.11,605.44S551.93,804.23,559,805.41,685.07,680.12,685.07,680.12s38.74,35.57,45.19,47.55c0,0-130.08,194.76-161.53,204.64s-227.3-193.72-227.3-193.72Z" style="fill: #bc404f"/>
          </g>
          <path d="M215.72,411s8.69,42.71-4.74,71.81-24,58.27-5.69,81,84.1,30.33,105.78,10.15-19.72-175.11-19.72-175.11Z" style="fill: #daeef7"/>
          <path d="M412.37,388s14.1,49.65,33.66,75,36.37,51.46,23.57,77.73S394.35,589,368.73,574.18,349,399.07,349,399.07Z" style="fill: #daeef7"/>
          <path d="M84.39,1138.56s129.58-134.15,153.1-30c22.27,98.59-43.16,643.25-50.22,701.21L260,1857c7.93,5,4.35,17.32-5.05,17.32H125a8.29,8.29,0,0,1-8.29-8.29v-55.48l.22-.07Z" style="fill: #ffc0bb"/>
          <path d="M242.88,1845.91,260,1857c7.93,5,4.35,17.32-5.05,17.32H125a8.29,8.29,0,0,1-8.29-8.29v-27.19C203.25,1866.41,233.13,1858,242.88,1845.91Z" style="fill: #07085b"/>
          <path d="M273.1,1138.56s129.58-134.15,153.11-30c22.26,98.59-43.17,643.25-50.23,701.21L448.69,1857c7.93,5,4.35,17.32-5.05,17.32H313.75a8.29,8.29,0,0,1-8.29-8.29v-55.48l.22-.07Z" style="fill: #ffc0bb"/>
          <path d="M292.42,525s-8.63,71.63-22,91.82c0,0,37.37,51.74,88.25,21.54,0,0,7.34-60.89,16.23-74.35S292.42,525,292.42,525Z" style="fill: #ffc0bb"/>
          <path d="M292.42,525s-1.91,15.83-5.31,34.7a82.74,82.74,0,0,0,56.51,33,81.36,81.36,0,0,0,22.51-.42c2.54-12.23,5.57-23.4,8.8-28.29C383.82,550.53,292.42,525,292.42,525Z" style="fill: #f99893"/>
          <path d="M72.17,1086.72l-18.45,515.6s234.33,90.09,409.15,0l-23.27-481.5L281.67,1065l-118,15.32Z" style="fill: #3d3a55"/>
          <path d="M441.92,1037.85a342.71,342.71,0,0,1-.52-52.55c4.55-67.4,11.7-145.84,16.44-205.07,5.56-69.51-13.09-93.88-26.83-127.6-4.89-12-25.26-43.21-39.42-47.78a.37.37,0,0,0,0,.09s-22.3-3.18-25.49-3.61-66.91,5.08-66.91,5.08l-57.21-7.49c-21,2.16-34.22,4.63-34.22,4.63s-80.31,52.77-87.19,96.37S70.05,830.72,63.16,880.14s0,138.74,0,138.74l4,45.38c-5.71,71.16-14.12,179.14-13.4,188.53,1.08,14.12,252.91,44.39,313.7,16.23,0,0,37.72,8,48.85,7.11,34.55-2.77,46.6-7.15,46.6-7.15Z" style="fill: #d65561"/>
          <path d="M222,1873.43h-34.8V1196.87c0-16.79-6.14-33.18-17.82-45.24a62.94,62.94,0,0,0-45.53-19.3H77.5a17.41,17.41,0,0,1-17.4-17.41h0a17.4,17.4,0,0,1,17.4-17.4h44.77c26.83,0,52.88,10.28,71.67,29.43A97.49,97.49,0,0,1,222,1195.67Z" style="fill: #57ace5"/>
          <path d="M188.66,1090.53c-25.26-13.89-56.85-12.85-82.47-8.2-1.24.29-2.49.58-3.73.89-20.07,5-18.91,16-17.24,21a3.86,3.86,0,0,0,3.71,2.51c3.14,0,7.17.12,12.63.55,31.77,2.51,1.18,40.07,13.55,40.24,15.64.22,11.52-33.87,19.68-33.25,15.36,1.16-3.13,31.47,7,33.23,11.11,1.92,2-34.63,19.67-33.56,9.46.58-2.49,34.07,8.59,31.67,11.63-2.52,1.81-32,12.58-31.5,15.92.78-3.84,30.09,7.94,31.69C197.66,1146.71,206.56,1100.36,188.66,1090.53Z" style="fill: #ffc0bb"/>
          <path d="M207.72,603.55s-99.81,22.94-158.33,117.6S-27.29,896.69,60.1,1087.72c0,0,84,12,102.88-8.61l-59.12-191,115.91-136Z" style="fill: #d65561"/>
          <path d="M194.67,789.8c-13.28,14.63-26.74,29.08-40.62,43.12s-28.13,27.7-43.18,40.41a269.14,269.14,0,0,1-23.54,17.81c-8.17,5.45-16.84,10.31-26.38,13a65.9,65.9,0,0,0,14.12-4.61l3.4-1.54c1.12-.54,2.21-1.15,3.31-1.72l3.3-1.74,3.21-1.9c4.64-2.8,9.15-5.81,13.56-9,1.11,5.44,2.29,10.86,3.62,16.25,1.17,5.1,2.37,10.19,3.71,15.25s2.57,10.15,3.93,15.2q4.11,15.15,8.64,30.18c6,20,12.21,40,19,59.85q9.9,29.13,20.53,58a85,85,0,0,1-23.06,8.49,152.07,152.07,0,0,1-25.82,3.35,256.48,256.48,0,0,1-26.16,0c-8.72-.47-17.44-1.28-26.1-2.56a239.46,239.46,0,0,0,26,3.56,224,224,0,0,0,26.3.82,155.72,155.72,0,0,0,26.24-2.87,84.56,84.56,0,0,0,25-8.9l1-.58-.41-1.13c-7.14-19.62-13.93-39.4-20.52-59.22s-13.12-39.68-19.2-59.67-12-40-17.16-60.26q-2.11-8.4-4.13-16.82c3.18-2.31,6.32-4.67,9.39-7.1,7.78-6.17,15.24-12.72,22.59-19.39s14.38-13.65,21.39-20.67,13.76-14.26,20.46-21.56,13.26-14.71,19.69-22.24c12.91-15,25.34-30.45,37.14-46.33Q214.6,767.86,194.67,789.8Z" style="fill: #07085b"/>
          <path d="M391.55,604.94l-149.61-6s91.83,171.8,121.14,257.62C363.08,856.54,404.57,675.36,391.55,604.94Z" style="fill: #daeef7"/>
          <path d="M363.08,856.54c3.43,34.27,5.86,68.61,7.82,103,1,17.19,1.79,34.38,2.54,51.58s1.18,34.4,1.74,51.61c.28,17.22.71,34.43.74,51.65s-.05,34.45-.38,51.67l-.82,25.83c-.31,8.61-.93,17.22-1.4,25.82l-.41,6.44-.6,6.45-1.24,12.87c-.23,2.14-.39,4.29-.68,6.43l-1,6.4-2,12.76.91-12.88.49-6.42c.14-2.14.15-4.3.23-6.45l.43-12.87.21-6.44,0-6.44c0-8.6.28-17.18.19-25.77l-.1-25.77c-.34-17.18-.34-34.36-.84-51.55-.24-17.18-.72-34.37-1.12-51.55l-2.65-103.13C364.33,925.36,363.48,891,363.08,856.54Z" style="fill: #07085b"/>
          <path d="M351.87,628.28s19,23.15,41.4,30.57c1.09-21.48,1-39.39-1.72-53.91l-50.44,1.9L254,603.55l-12.07-4.63s11.74,22,28.16,54.1C291.16,660.5,320.73,660.69,351.87,628.28Z" style="fill: #daeef7;mix-blend-mode: multiply"/>
          <path d="M241.94,598.92s122.31,64.26,149.61,6C391.55,604.94,358.51,591,241.94,598.92Z" style="fill: #ffc0bb"/>
          <path d="M332.33,418a58.52,58.52,0,0,0-12.49-4.45,40.24,40.24,0,0,0-12.72-.89,33.84,33.84,0,0,0-6.23,1.15c-1,.25-2,.63-3.05,1-.51.17-1,.4-1.49.59s-1,.39-1.49.64a71.6,71.6,0,0,0-11.42,6.8,33.78,33.78,0,0,1,9.95-9.53,30.72,30.72,0,0,1,6.39-3,16.73,16.73,0,0,1,1.7-.53c.58-.14,1.15-.32,1.73-.44L305,409c.59-.09,1.19-.15,1.78-.22a31.93,31.93,0,0,1,14,1.86,34.33,34.33,0,0,1,6.26,3.08A26.37,26.37,0,0,1,332.33,418Z" style="fill: #d7d7d7"/>
          <path d="M367.84,418a26.43,26.43,0,0,1,5.36-4.33,34.33,34.33,0,0,1,6.26-3.08,31.91,31.91,0,0,1,14-1.86c.59.07,1.19.13,1.77.22l1.76.32c.59.12,1.16.3,1.74.44a17.55,17.55,0,0,1,1.7.53,30.72,30.72,0,0,1,6.39,3,33.78,33.78,0,0,1,9.95,9.53,71.6,71.6,0,0,0-11.42-6.8c-.48-.25-1-.44-1.49-.64s-1-.42-1.49-.59c-1-.34-2-.72-3-1a34.15,34.15,0,0,0-6.23-1.15,40.22,40.22,0,0,0-12.72.89A58.6,58.6,0,0,0,367.84,418Z" style="fill: #d7d7d7"/>
          <path d="M410.35,454.46c-4.51,12.25-.22,25.1,9.57,28.7s21.4-3.4,25.91-15.64.22-25.1-9.58-28.71S414.85,442.21,410.35,454.46Z" style="fill: #f99893"/>
          <path d="M419.71,516.11a99,99,0,0,0,5.09-17.46c3.45-16.23,3.93-33,3.22-47.43-.16-3.1-.13-6.2,0-9.31a101,101,0,0,0-6.45-38.36C406,362.07,364.21,335.25,320,338.46a101,101,0,0,0-92.86,115.46c-6.77-2.55-13.9-2.32-19.67,1.35-11.07,7.05-12.91,24-4.1,37.81s24.91,19.35,36,12.31a19.49,19.49,0,0,0,4.06-3.49c12.2,48.16,57.84,80,105.78,72.11a90.59,90.59,0,0,0,57.06-34.3,44.19,44.19,0,0,0,2.91-3.66A88,88,0,0,0,419.71,516.11Z" style="fill: #ffc0bb"/>
          <path d="M323,466a8.81,8.81,0,1,1-10.12-7.26A8.81,8.81,0,0,1,323,466Z" style="fill: #333"/>
          <path d="M394.89,457.88a8.81,8.81,0,1,1-10.12-7.27A8.81,8.81,0,0,1,394.89,457.88Z" style="fill: #333"/>
          <path d="M348.47,438.91c.27,2.83.56,5.65,1,8.45s.87,5.59,1.46,8.35a59.79,59.79,0,0,0,2.27,8.09,20.66,20.66,0,0,0,4,7.09,5.71,5.71,0,0,0,.71.68c.25.21.47.4.79.65a8.52,8.52,0,0,1,.87.72,8.75,8.75,0,0,1,.8.81,9.56,9.56,0,0,1,2.21,4,10.44,10.44,0,0,1-1.82,8.63,17.28,17.28,0,0,1-6.69,5.53,25.19,25.19,0,0,1-8.23,2.31,38,38,0,0,0,4.07-1.2,23.56,23.56,0,0,0,3.8-1.79,17.34,17.34,0,0,0,6-5.53,9.33,9.33,0,0,0,1.4-7.56,8.37,8.37,0,0,0-1.91-3.36,10.7,10.7,0,0,0-1.47-1.32l-.87-.69A7.75,7.75,0,0,1,356,472a17,17,0,0,1-2.54-3.66,28.87,28.87,0,0,1-1.71-4,54.05,54.05,0,0,1-2.08-8.36A90.9,90.9,0,0,1,348.47,438.91Z" style="fill: #f99893"/>
          <path d="M225.93,442.91s115.7-20.86,164.4-91.23c0,0-53.11-73.46-129-24.8S225.93,442.91,225.93,442.91Z" style="fill: #daeef7"/>
          <path d="M340.93,363.53s39.94,48.46,85.45,58c0,0,19.3-77.68-71.9-87.86S340.93,363.53,340.93,363.53Z" style="fill: #daeef7"/>
          <path d="M327.32,442.93a54.07,54.07,0,0,0-12.86-3.34,39.36,39.36,0,0,0-12.87.46,33,33,0,0,0-6.14,1.89c-1,.38-2,.88-2.94,1.34-.49.23-.94.53-1.42.78a15.22,15.22,0,0,0-1.41.82,65.53,65.53,0,0,0-10.41,8.29,35.19,35.19,0,0,1,9-10.31,30.06,30.06,0,0,1,6-3.66,29.72,29.72,0,0,1,6.69-2.23,32,32,0,0,1,13.95.21,34.71,34.71,0,0,1,6.56,2.22A27.91,27.91,0,0,1,327.32,442.93Z" style="fill: #daeef7"/>
          <path d="M362.61,439a27.76,27.76,0,0,1,4.94-4.74,35.43,35.43,0,0,1,5.89-3.63A32.3,32.3,0,0,1,387,427.27a31,31,0,0,1,13.66,2.93,35.45,35.45,0,0,1,11.08,8.05,66.33,66.33,0,0,0-12-5.77,14.06,14.06,0,0,0-1.56-.48c-.52-.14-1-.33-1.56-.45-1.05-.23-2.1-.5-3.16-.65a33.54,33.54,0,0,0-6.4-.48,39.57,39.57,0,0,0-12.66,2.42A54.4,54.4,0,0,0,362.61,439Z" style="fill: #daeef7"/>
          <path d="M325.64,504.36c3.64,11.11,15.43,18.48,28.42,17s22.81-11.29,23.85-22.92Z" style="fill: #fff"/>
          <path d="M1588,561.81a2.29,2.29,0,0,1-3.61,1.82c-11.56-8.17-48.1-33.63-50.85-31.16-3.26,2.95,28.84,26.5,27.68,30.41s-31.9-19.86-34.88-16.15,25.76,24.44,25,26.44-30.37-14.9-33.43-13.78,26.41,23,26.24,25.72-25.53-5.67-26.5-3.57-2,3.33,49.75,38.51l20.95,13,22.82,1.35,11.68-24.91s-26-76.28-29.2-77.12S1588.9,533.65,1588,561.81Z" style="fill: #ffc0bb"/>
          <path d="M1926,516.77s-164.5,198.78-171.79,200-130.43-129.6-130.43-129.6S1583.71,624,1577,636.35c0,0,134.55,201.47,167.09,211.69s235.12-200.39,235.12-200.39Z" style="fill: #04af9f"/>
          <path d="M844.71,1053.74a2.74,2.74,0,0,1,1.82-4.46c33.25-3.74,35.6-6,34.36-9.53-.73-2.06-29.38-10.21-54.87-17.09l.26.21L807,1047.74s-29,26.92-29.71,27.51l0,.06c1.39,2.3,2.27,3.83,2.27,3.83,46.5,58,47.87,56.74,50.26,55.39s-9.87-30.63-6.72-31.09,31.86,32.43,32.91,28.7-21.76-37.33-19.46-38.36,29.55,31.12,33.66,27.23-26.92-38.1-22.4-39.85,35.43,34.11,38.6,30C889.05,1107.64,855.47,1066.68,844.71,1053.74Z" style="fill: #ffc0bb"/>
          <path d="M1858.63,547.31c-.61,1.31,10,18.15,8.22,18.11s-13.44-14.37-14.19-13.5,9.71,17,7.48,18.25-13.11-16.73-14.46-15,10.25,19.92,8,20.76c-1.87.71-15.35-19.3-19.59-25.69a1.25,1.25,0,0,0-2.18.21c-6,14-7.27,14.76-8.65,13.75-.93-.67-.53-18.47-.13-31.38-37-73.46-117.81-140.93-117.81-140.93s-9.17-91.26,32.65-60c36.66,27.38,92.59,148.88,105.83,178.44h0l5.81,10.17h0a.06.06,0,0,1,0,0c2.1,2.53,4.07,4.6,4.07,4.6,19.24,27.88,18.5,28.31,17.6,29.18S1859.24,546,1858.63,547.31Z" style="fill: #fcb9b6"/>
          <path d="M1618.75,1869.21l-170.26,1.63a2.09,2.09,0,0,1-2.11-2.08l-.13-13.12a2.1,2.1,0,0,1,2.08-2.12l170.25-1.62a2.1,2.1,0,0,1,2.12,2.07l.12,13.13A2.09,2.09,0,0,1,1618.75,1869.21Z" style="fill: #3a2645"/>
          <path d="M1453.72,1800.87l-5.32,48.21c-.66,5.94,2.76,11.3,7.18,11.26l153.72-1.47c4,0,7.92-2.53,10-7.17s2.47-11.9-4.5-21.43c-13.69-18.71-57.59-23.14-80.26-38.61a4.76,4.76,0,0,0-2.74-.84l-70.09.66C1457.68,1791.52,1454.31,1795.5,1453.72,1800.87Z" style="fill: #ff5b7e"/>
          <polygon points="1098.03 1813.15 1098.03 1771.64 1145.5 1758.49 1156.07 1763.13 1157.87 1813.15 1142.92 1856.74 1098.03 1813.15" style="fill: #ffc0bb"/>
          <path d="M1254.84,1872.65l-170.25,1.62a2.09,2.09,0,0,1-2.12-2.07l-.12-13.13a2.1,2.1,0,0,1,2.07-2.11l170.26-1.62a2.08,2.08,0,0,1,2.11,2.07l.13,13.13A2.1,2.1,0,0,1,1254.84,1872.65Z" style="fill: #3a2645"/>
          <path d="M1089.81,1804.31l-5.32,48.2c-.65,6,2.77,11.31,7.19,11.26l153.72-1.46c4,0,7.92-2.53,10-7.17s2.47-11.9-4.5-21.43c-13.7-18.71-57.59-23.15-80.26-38.61a4.8,4.8,0,0,0-2.74-.85l-70.09.67C1093.78,1795,1090.41,1798.93,1089.81,1804.31Z" style="fill: #ff5b7e"/>
          <path d="M1158.78,1822.3h0a3.21,3.21,0,0,1-.91-3.91c3-6.63,12.23-22.78,31.46-19.67,1.11.18,1.88,1.63,1.7,3.13v.05c-.17,1.45-1.16,2.41-2.24,2.24-17.23-2.73-25.11,11.5-27.5,17.06A1.75,1.75,0,0,1,1158.78,1822.3Z" style="fill: #333"/>
          <path d="M1174.8,1828.35h0a3.24,3.24,0,0,1-.91-3.92c3-6.62,12.24-22.78,31.47-19.66,1.11.18,1.87,1.62,1.7,3.13v0c-.17,1.46-1.16,2.41-2.23,2.25-17.23-2.74-25.12,11.5-27.51,17C1176.8,1828.43,1175.73,1828.9,1174.8,1828.35Z" style="fill: #333"/>
          <path d="M1189.71,1834h0a3.24,3.24,0,0,1-.92-3.92c3-6.62,12.24-22.77,31.47-19.66,1.11.18,1.87,1.63,1.7,3.13v0c-.16,1.45-1.15,2.41-2.23,2.24-17.23-2.73-25.12,11.5-27.5,17.05C1191.7,1834.07,1190.64,1834.54,1189.71,1834Z" style="fill: #333"/>
          <path d="M1130.46,1857c-11-28.72-27.07-35.08-38.11-35.59a4.72,4.72,0,0,0-4.89,4.21l-3,26.88c-.65,6,2.77,11.31,7.19,11.26l34.38-.32A4.74,4.74,0,0,0,1130.46,1857Z" style="fill: #e87b50;opacity: 0.30000000000000004;mix-blend-mode: multiply"/>
          <path d="M1581.82,885.17c-64.49,73.84-193.33,180.35-193.33,180.35h0L1447.88,1781s86,7.07,115.61-10.3C1563.49,1770.69,1586,1092.39,1581.82,885.17Z" style="fill: #446284"/>
          <path d="M1557.43,912.61c-.22-10.46,24.9,20.4,24.42,12C1572,750.86,1259,896.58,1259,896.58l-65.74-10.51-120.76,892s78.56,13.19,123.55,0l192.41-703.87S1457.33,1051.78,1557.43,912.61Z" style="fill: #446284"/>
          <path d="M1469,291.1H1362L1357,340s34.7,9.26,37.93,7.06,61-16.31,61-17.63,30-7.77,28.66-8.51-2.2-29.83-2.2-29.83Z" style="fill: #fcb2ae"/>
          <path d="M1315.31,251.33l-5.47,48.53,3,3.81A91.64,91.64,0,0,0,1395,337.61h0l-11.26-83Z" style="fill: #ffc0bb"/>
          <path d="M1390.87,307.43l-7.17-52.8-68.39-3.3-3,26.82C1324.76,288.84,1350,304.88,1390.87,307.43Z" style="fill: #f99893"/>
          <path d="M1434.24,167.85c-3.35,11.66,1.51,23.28,10.85,26s19.64-4.6,23-16.26-1.51-23.28-10.85-26S1437.59,156.2,1434.24,167.85Z" style="fill: #f99893"/>
          <path d="M1438.11,233.52a92,92,0,0,0,5.37-16c3.8-14.94,4.85-30.48,4.7-43.92,0-2.88.11-5.76.3-8.64a94,94,0,1,0-187.27,3.84c-6.19-2.62-12.84-2.66-18.34.54-10.56,6.14-12.88,21.79-5.19,35s22.48,18.87,33,12.73a17.59,17.59,0,0,0,3.9-3.09c9.61,45.17,50.92,76.38,95.81,70.8A84.33,84.33,0,0,0,1424.76,255c.91-.95,1.85-2,2.84-3.3A81.72,81.72,0,0,0,1438.11,233.52Z" style="fill: #ffc0bb"/>
          <path d="M1349.22,172.39a8.2,8.2,0,1,1-9.16-7.12A8.18,8.18,0,0,1,1349.22,172.39Z" style="fill: #333"/>
          <path d="M1419.86,168.14a8.23,8.23,0,1,1-9.18-7.14A8.2,8.2,0,0,1,1419.86,168.14Z" style="fill: #333"/>
          <path d="M1353.77,143.78a78,78,0,0,0-12.32.64,40.63,40.63,0,0,0-11,3.13,37.61,37.61,0,0,0-9.63,6.14l-1.17.92c-.38.32-.69.71-1.06,1l-2.19,2.12c-1.46,1.45-2.72,3.09-4.37,4.6a35.9,35.9,0,0,1,1.94-6.23c1.08-1.89,1.94-4,3.45-5.67a26.76,26.76,0,0,1,10.63-8.36,28.07,28.07,0,0,1,13.31-2.35A25.94,25.94,0,0,1,1353.77,143.78Z" style="fill: #fee4cb"/>
          <path d="M1393.81,136.61a25.82,25.82,0,0,1,12.41-4.13,28,28,0,0,1,13.33,2.23,26.59,26.59,0,0,1,10.71,8.26c1.53,1.65,2.41,3.76,3.5,5.63a36.39,36.39,0,0,1,2,6.22c-1.67-1.49-3-3.13-4.42-4.56l-2.21-2.1c-.38-.34-.69-.72-1.08-1l-1.17-.91a37.27,37.27,0,0,0-9.7-6.05,40.6,40.6,0,0,0-11.08-3A77.08,77.08,0,0,0,1393.81,136.61Z" style="fill: #fee4cb"/>
          <path d="M1377.17,152.62a62.89,62.89,0,0,0-.63,17.71,48.57,48.57,0,0,0,1.69,8.93,23,23,0,0,0,4.51,8.69l1,1,.9.82a8.2,8.2,0,0,1,1.21,1.13,6.57,6.57,0,0,1,1.55,2.63c.71,1.91.11,4.2-1,6.33-2.51,4.34-7.62,7.29-13.13,9.32,5.83.24,12.44-1.49,16.75-6.81a12.08,12.08,0,0,0,2.59-10.13,9,9,0,0,0-1-2.66,10.72,10.72,0,0,0-1.53-2.32,14.25,14.25,0,0,0-1.94-1.87,7.91,7.91,0,0,1-.69-.66l-.57-.54a22,22,0,0,1-3.61-6.58,72.82,72.82,0,0,1-2.42-8C1379.51,164.07,1378.41,158.4,1377.17,152.62Z" style="fill: #f99893"/>
          <path d="M1447,36.39c-18.14-11-51.86-21.2-86.27-22.27,8.08-5.39,13-9.72,11-11.24-16.32-12.34-70.17,18.29-87.34,28.64-3.18-4.33-14.22-17.65-25.93-11.71-13.9,7,12.13,18.57,12.13,18.57s-18.7,1.87-23.16,11.74c-3.3,7.29,8.14,6.07,14.33,4.94a24,24,0,0,0-7.6,4.38h0S1228,80.26,1230.3,92.53c.54,3,3.09,3.25,6.62,2-3.23,12.66-8.66,36.63-4.17,39.83,2.57,1.84,5.09.45,7.15-1.78a245.34,245.34,0,0,0,8.32,34.69c22.46-3.4,40.93,20.94,40.93,20.94-4.79-30.08,18-86.6,18-86.6s85.15,36.69,71.31,11.38c0,0,99.94,34.89,79.33-13.6,0,0,38.2-2.26-6.38-40.5C1451.38,58.88,1479.42,56.07,1447,36.39Z" style="fill: #fee4cb"/>
          <path d="M1677.24,281.47l-34.36-3.89-65.69,1.76-12.79,30.27L1585,327.23s12.58,11.76,28.45,8.82-19.31,2.35,18.42-4.12,44.77-4.09,44.19-11,2.94-11.91,2.35-18.08S1677.24,281.47,1677.24,281.47Z" style="fill: #ffc0bb"/>
          <path d="M1300.3,291.1s-152.11,13.22-176.8,72.27,50.27,200.07,50.27,200.07l-8.82,401s213.84,119,421.5,15.87l-6.62-423.62-26.45-189.58-32.19,8.57s-5.73-59.93-50.7-65.66-69.66-4.41-69.66-4.41S1352.48,348.83,1300.3,291.1Z" style="fill: #ffcd92"/>
          <g>
            <path d="M1489.15,586.06s13.94-11.23,16.93-10,65.28,2.85,65.09,22.67-13.29,93.6-13.29,93.6l51.57,24.56,8.67,14,3,46.3s-3.78,17.61-4.4,18.35-9.48,3-9.48,3l-22.38-42.31c-17.14-3-77-15-95.74-37.06C1467.23,693.31,1489.15,586.06,1489.15,586.06Z" style="fill: #fcb2ae"/>
            <path d="M1566.83,696.58l42.62,20.3,8.67,14,3,46.3s-3.78,17.61-4.4,18.35-9.48,3-9.48,3l-22.38-42.31c-5.91-1-16.93-3.15-29.58-6.37C1563.81,730.78,1566.27,710.33,1566.83,696.58Z" style="fill: #fee4cb"/>
            <path d="M1607.27,798.57l6.49,11.73c3,5.43,11.34,3.91,11.85-2.15l7.09-83.65a5.54,5.54,0,0,0-5.09-5.87l-18.16-1.75C1623.13,774.36,1615.9,793.07,1607.27,798.57Z" style="fill: #09083c"/>
            <path d="M1549.91,586.06s13.95-11.23,16.94-10,65.27,2.85,65.08,22.67-13.28,93.6-13.28,93.6l51.57,24.56,8.66,14,3,46.3s-3.79,17.61-4.4,18.35-9.48,3-9.48,3l-22.38-42.31c-17.14-3-77-15-95.75-37.06C1528,693.31,1549.91,586.06,1549.91,586.06Z" style="fill: #ffc0bb"/>
            <path d="M1627.6,696.58l42.62,20.3,8.66,14,3,46.3s-3.79,17.61-4.4,18.35-9.48,3-9.48,3l-22.38-42.31c-5.92-1-16.93-3.15-29.58-6.37C1624.58,730.78,1627,710.33,1627.6,696.58Z" style="fill: #fee4cb"/>
            <path d="M1668,798.57l6.49,11.73c2.94,5.43,11.34,3.91,11.85-2.15l7.09-83.65a5.54,5.54,0,0,0-5.09-5.87l-18.16-1.75C1683.9,774.36,1676.67,793.07,1668,798.57Z" style="fill: #09083c"/>
          </g>
          <path d="M1389.14,223.27a53.21,53.21,0,0,1-22.55.89,65,65,0,0,1-10.77-3.08,21.53,21.53,0,0,1-2.65-1.06l-2.7-1.12c-1.79-.78-3.52-1.7-5.47-2.42a42.76,42.76,0,0,0,4.14,4.49,38.65,38.65,0,0,0,5,3.62,34.37,34.37,0,0,0,11.59,4.49,31.36,31.36,0,0,0,12.51-.29A23.07,23.07,0,0,0,1389.14,223.27Z" style="fill: #f99893"/>
          <path d="M1677.24,281.47a201.27,201.27,0,0,1,22.08,3.89c28.8,6.91,78.77,75.66,78.77,75.66s-8.23,39.67-56.43,50.1c0,0,35.86,201.68-63.79,225.48-125.65,30-224.69-44.07-224.69-44.07l49.17-66.1s40.61-84.36,38.84-150.72c0,0-4.5-55.53-47.33-65.11L1469,291.1l108.24-11.76s-1.1,42.52,42.32,43.49C1672.28,324,1677.24,281.47,1677.24,281.47Z" style="fill: #ff5b7e"/>
          <path d="M1502.82,474.78c179.15-5.35,204.43-124.63,204.43-124.63l14.41,61s35.86,201.68-63.79,225.48c-125.65,30-224.69-44.07-224.69-44.07l49.17-66.1A493.79,493.79,0,0,0,1502.82,474.78Z" style="fill: #feb546;opacity: 0.5;mix-blend-mode: multiply"/>
          <path d="M1299.28,525.74s26.16,30.65,62,29.12c11.16-.48,275.47-82.89,276.57-84,16.85-9.7,73.5-40.05,97.11-24.42,27.9,18.47,32.44,49.43,31,60.9s-20.77,42.82-37.49,24.15c-7.93-8.86-30.91-7.18-52.89-3,0,0-254.44,146.85-332.92,139.8S1214.77,608,1214.77,608,1261.22,547.19,1299.28,525.74Z" style="fill: #ffc0bb"/>
          <path d="M1687.2,577.57a27.39,27.39,0,0,1,24.52,40.15c-4.84,9.31-12.35,20.6-23,28.49-21.36,15.78-67.52,18.94-84.39-.39s-9.67-19.31-9.67-19.31-10-12-2.39-17.51c0,0-3.57-10.06,3.23-12.06a14.3,14.3,0,0,1,8.65,1.23s-.44-6.51,7.06-6.55,40,16.4,63.36,13.4c18.41-2.36-.09-14.25-8.8-19.2a19.49,19.49,0,0,1-8.77-10.14,13.72,13.72,0,0,1-.85-3.69,3.2,3.2,0,0,1,5.36-2.57c3.86,3.53,10.45,8.57,16.5,8.51C1680.23,577.9,1683.49,577.6,1687.2,577.57Z" style="fill: #ffc0bb"/>
          <path d="M1584.14,832.3l2.31,148c-207.67,103.12-421.5-15.87-421.5-15.87l8.82-401S1250.77,916.46,1584.14,832.3Z" style="fill: #ffcd92;opacity: 0.5;mix-blend-mode: multiply"/>
          <path d="M1707.25,350.15c1.66,7.76,3.4,15.44,5.13,23.13.82,3.85,1.75,7.67,2.53,11.52s1.68,7.68,2.46,11.53l1.21,5.77,1.12,5.78c.83,3.85,1.42,7.73,2.19,11.58,1.39,7.74,2.55,15.51,3.79,23.35A153.61,153.61,0,0,0,1725,419c-.18-2-.45-3.94-.71-5.91s-.52-3.93-.85-5.89-.66-3.91-1-5.86l-1.13-5.84c-.4-1.95-.88-3.87-1.31-5.81s-.87-3.86-1.39-5.78c-1-3.83-2-7.66-3.19-11.45A195.44,195.44,0,0,0,1707.25,350.15Z" style="fill: #fff"/>
          <path d="M1720,126.56s29.51-27.2,64.71-.61,3.08,64.67,27.08,85.63c0,0-50.46-.46-65.62-35.8C1734.71,149,1725,142.69,1721,141.23a9.1,9.1,0,0,1-5.46-5C1714.48,133.57,1714.73,130,1720,126.56Z" style="fill: #333"/>
          <path d="M1711.81,120.37h0a7.08,7.08,0,0,1,8.09,6l2.46,17a7.3,7.3,0,0,1-6.77,8.33h0a7.31,7.31,0,0,1-7.71-6.43l-2-17.07A7.08,7.08,0,0,1,1711.81,120.37Z" style="fill: #fee4cb"/>
          <path d="M1565.16,96.87s-29.51-27.2-64.71-.61-3.08,64.67-27.08,85.64c0,0,50.45-.47,65.62-35.8,11.5-26.81,21.18-33.09,25.19-34.56a9.07,9.07,0,0,0,5.45-5C1570.71,103.89,1570.47,100.33,1565.16,96.87Z" style="fill: #333"/>
          <path d="M1578.9,95.9h0a7.1,7.1,0,0,0-9.89,1.95l-9.5,14.33a7.3,7.3,0,0,0,2.55,10.43h0a7.31,7.31,0,0,0,9.72-2.51l9.14-14.57A7.08,7.08,0,0,0,1578.9,95.9Z" style="fill: #fee4cb"/>
          <rect x="1600.19" y="244.79" width="50" height="49.98" style="fill: #ffc0bb"/>
          <path d="M1650.19,274.75v-30h-50v25.49C1611,276.06,1626.89,279.39,1650.19,274.75Z" style="fill: #f99893"/>
          <path d="M1704.75,187.53s22.48-56-9.64-82.44-69.58-29-96.61-19.34-48.26,53-40.4,80.42l87.27-13.52Z" style="fill: #333"/>
          <path d="M1567.64,177.88c1.94,8.2-2,16-8.8,17.44s-13.9-4.06-15.84-12.27,2-16,8.8-17.44S1565.7,169.68,1567.64,177.88Z" style="fill: #f99893"/>
          <path d="M1562.28,223.07a62.29,62.29,0,0,1-3.22-11.31,116,116,0,0,1-1.64-30.56c.13-2,.15-4,.13-6a62.49,62.49,0,0,1,4.72-24.57c10.84-26.41,39-42.95,68.52-40.14,39.74,3.78,67.12,39,60.84,75.82a15.07,15.07,0,0,1,13.12,1.2c7.33,4.72,8.38,15.63,2.34,24.39s-16.86,12-24.18,7.3a13,13,0,0,1-2.67-2.31,62.62,62.62,0,0,1-71.47,44.59,61.72,61.72,0,0,1-37.77-23,29.91,29.91,0,0,1-1.9-2.41A56.41,56.41,0,0,1,1562.28,223.07Z" style="fill: #ffc0bb"/>
          <path d="M1624.47,176.07a40.05,40.05,0,0,1,9.29-2.08,29.23,29.23,0,0,1,9.25.56,24.54,24.54,0,0,1,4.4,1.42c.72.28,1.4.64,2.09,1,.35.17.68.38,1,.56s.69.37,1,.59a48.59,48.59,0,0,1,7.39,5.94,25.29,25.29,0,0,0-6.36-7.31,23,23,0,0,0-9-4.31,23.94,23.94,0,0,0-10-.1,25.65,25.65,0,0,0-4.74,1.42A20,20,0,0,0,1624.47,176.07Z" style="fill: #333"/>
          <path d="M1599.13,172.68a20,20,0,0,0-3.5-3.38,25.7,25.7,0,0,0-4.2-2.61,24,24,0,0,0-9.71-2.54,22,22,0,0,0-5.06.35,22.49,22.49,0,0,0-4.8,1.42,25,25,0,0,0-8.06,5.38,48.06,48.06,0,0,1,8.69-3.78,11.06,11.06,0,0,1,1.13-.3c.38-.09.74-.21,1.13-.28.76-.15,1.51-.32,2.28-.4a24.52,24.52,0,0,1,4.61-.21,29.51,29.51,0,0,1,9.08,1.9A40.42,40.42,0,0,1,1599.13,172.68Z" style="fill: #333"/>
          <path d="M1691.63,186.33s-43.17-23.78-63.78-53.92c0,0-1.44,14.81,3,20.67-1.75.81-31.6-15.43-35.78-39.54s37.69-9.43,37.69-9.43,25-.6,26,.06,17.14,13.09,17.85,14S1696,153.38,1696,153.38l4.3,12.43,4.41,21.72Z" style="fill: #333"/>
          <path d="M1609.12,178.09a38.84,38.84,0,0,1-.59,10.91,29.48,29.48,0,0,1-1.53,5.38,14.19,14.19,0,0,1-3.25,5.09l-.67.53-.6.46a5.76,5.76,0,0,0-.81.62,4.15,4.15,0,0,0-1.09,1.53,4.94,4.94,0,0,0,.28,3.95c1.3,2.8,4.27,4.9,7.53,6.44a12.37,12.37,0,0,1-9.89-5.1,7.49,7.49,0,0,1-1-6.37,5.52,5.52,0,0,1,.74-1.57,6.7,6.7,0,0,1,1.07-1.34,9.12,9.12,0,0,1,1.29-1.05,4.4,4.4,0,0,0,.46-.36l.38-.3a13.86,13.86,0,0,0,2.58-3.84,46.07,46.07,0,0,0,1.92-4.77C1607.05,185,1608,181.57,1609.12,178.09Z" style="fill: #f99893"/>
          <path d="M1281.93,480.24c-16.21-32.92-30.2-66.94-43.79-101,3.57,10.75,7.45,21.41,11.4,32,8.23,22.18,17.07,44.18,27,65.65,4.66,10,9.36,20.31,15,29.85q2.52,4.25,5.05,8.49c1,1.7,2.19,3.31,3.3,5l1.23,1.79-3.48,2.5q-5.35,3.94-10.58,8.09a454.73,454.73,0,0,0-39.89,35.72c-6.41,6.45-12.84,13.08-18.72,20-8,9.48-15.64,19.12-22.91,29.18q-11.7-20.14-23.57-40.2c-2.72-4.66-5.52-9.27-8.28-13.91q15.62,29.44,31.56,58.71c2.38-3.11,4.77-6.22,7.14-9.34,7.31-9.63,15.33-18.75,23.56-27.61a467.58,467.58,0,0,1,70.51-62.3C1296.88,509.55,1289.2,495,1281.93,480.24Z" style="fill: #fff"/>
          <path d="M1627.42,189.49a6,6,0,1,0,6.94-4.93A6,6,0,0,0,1627.42,189.49Z" style="fill: #333"/>
          <path d="M1579.35,182.54a6,6,0,1,0,7-4.92A6,6,0,0,0,1579.35,182.54Z" style="fill: #333"/>
          <path d="M1589.18,219.27c1.12,6.09,7.85,11.09,16.3,11.67s15.8-3.48,17.73-9.36Z" style="fill: #fff"/>
          <polygon points="911.57 445.97 1013.05 435.58 1006.31 460.98 887.56 490.45 911.57 445.97" style="fill: #fcb2ae"/>
          <path d="M755.28,1842.23l76.24-47.53,66.23,39.58-23,16.53-80,11.67s-31.28-3.85-32.66-4.77S755.28,1842.23,755.28,1842.23Z" style="fill: #f9b7b4"/>
          <path d="M939.2,1152.67s-10.11,263.42-11.92,308.87c-1.82,45.68-28.11,384-34.36,412.26l-56.58-4s-38.6-653.43-26.48-717.09S939.2,1152.67,939.2,1152.67Z" style="fill: #f9b7b4"/>
          <path d="M755.28,1842.23,736,1854.78c-9,5.71-4.91,19.57,5.71,19.57H888.38a9.37,9.37,0,0,0,9.37-9.37v-30.7C800,1865.39,766.3,1855.92,755.28,1842.23Z" style="fill: #07085b"/>
          <path d="M939.45,1842.23l76.24-47.53,66.22,39.58-23,16.53-80,11.67s-31.27-3.85-32.65-4.77S939.45,1842.23,939.45,1842.23Z" style="fill: #ffc0bb"/>
          <path d="M1123.37,1152.67s-10.12,263.42-11.93,308.87c-1.81,45.68-28.1,384-34.35,412.26l-56.59-4S981.91,1216.33,994,1152.67,1123.37,1152.67,1123.37,1152.67Z" style="fill: #ffc0bb"/>
          <path d="M939.45,1842.23l-19.32,12.55c-9,5.71-4.91,19.57,5.71,19.57h146.71a9.36,9.36,0,0,0,9.36-9.37v-30.7C984.21,1865.39,950.46,1855.92,939.45,1842.23Z" style="fill: #07085b"/>
          <path d="M763.58,425.39l-6.14,45s33.52,23.26,54-3.24L808,420.55Z" style="fill: #ffc0bb"/>
          <path d="M838.54,351.33c-4,10.95-.19,22.44,8.57,25.66s19.14-3,23.17-14,.2-22.44-8.57-25.66S842.57,340.38,838.54,351.33Z" style="fill: #f99893"/>
          <path d="M810.17,450.09,808,420.55l-44.46,4.84L761,444.34C769.46,447.86,785.29,452.1,810.17,450.09Z" style="fill: #f99893"/>
          <path d="M850.76,382.64c.85-13.12,1.93-26.25,1-37.72-.21-2.46-.28-4.93-.31-7.39a86.63,86.63,0,0,0-5.92-30.42c-12.76-32.81-44.5-53.73-77.14-50.76-44,4-73.37,47-65.37,92.62-5.08-2-10.37-1.71-14.53,1.26-8,5.71-8.85,19.17-1.92,30.09s19,15.13,27,9.43a14.31,14.31,0,0,0,2.9-2.81c10.47,38.15,53.74,57.22,89,50.5C822.76,434.15,848.13,423.33,850.76,382.64Z" style="fill: #ffc0bb"/>
          <path d="M805.46,345.26a38.81,38.81,0,0,0,.6,11,29.82,29.82,0,0,0,1.54,5.41,14.29,14.29,0,0,0,3.26,5.11l.68.54.61.45a5.81,5.81,0,0,1,.81.63,4.21,4.21,0,0,1,1.1,1.54,4.92,4.92,0,0,1-.28,4c-1.31,2.82-4.3,4.93-7.58,6.48a12.42,12.42,0,0,0,9.95-5.13,7.49,7.49,0,0,0,1-6.4,5.73,5.73,0,0,0-.75-1.58,6.41,6.41,0,0,0-1.08-1.34,8.47,8.47,0,0,0-1.29-1.05c-.27-.19-.33-.26-.47-.37l-.38-.3a13.64,13.64,0,0,1-2.59-3.86,46.5,46.5,0,0,1-1.94-4.79C807.54,352.19,806.55,348.76,805.46,345.26Z" style="fill: #f99893"/>
          <path d="M784.42,335.68A71.26,71.26,0,0,0,774,334.22a36.14,36.14,0,0,0-9.75.74,33.1,33.1,0,0,0-9.11,3.39c-1.56.66-2.88,1.75-4.44,2.59s-2.86,2.08-4.55,3a29.26,29.26,0,0,1,2.65-5,23.72,23.72,0,0,1,3.86-4.22A22.57,22.57,0,0,1,763,329.56a23.69,23.69,0,0,1,11.66.4A21.6,21.6,0,0,1,784.42,335.68Z" style="fill: #333"/>
          <path d="M810.55,333.35a72.68,72.68,0,0,1,10.35-2.19,35.88,35.88,0,0,1,9.77,0,32.74,32.74,0,0,1,9.33,2.73c1.6.55,3,1.55,4.61,2.27s3,1.87,4.75,2.7a29,29,0,0,0-3-4.77,23.82,23.82,0,0,0-4.15-3.93,22.64,22.64,0,0,0-10.78-4.48A23.68,23.68,0,0,0,819.85,327,21.58,21.58,0,0,0,810.55,333.35Z" style="fill: #333"/>
          <path d="M773.84,292.42c52.88-1,52.59-33.09,52.59-33.09L825,260.74c-3.93,2.6-12.26,3.26-12.26,3.26,9.11-22.73-18.22-27.28-18.22-27.28s18.22,18.19-22.78,18.19-50.12,13.64-50.12,13.64a8.57,8.57,0,0,0-.76,3.59h0a9.08,9.08,0,0,0,.54,4.94,21.19,21.19,0,0,0,3.84,6.56,32.84,32.84,0,0,0,7.19,6.32,51.71,51.71,0,0,0,17.63,7.14,41.53,41.53,0,0,0,4.67.83c1.56.2,3.12.47,4.68.61l4.71.22a38.64,38.64,0,0,0,4.69.07c3.12-.15,6.24-.24,9.33-.62s6.17-.91,9.2-1.56c-3.11-.33-6.19-.46-9.26-.6-1.53,0-3.06-.22-4.58-.33s-3-.21-4.57-.32c-3-.27-6-.67-9-1l-4.46-.76a41,41,0,0,1-4.42-.85l-4.37-1-4.26-1.34a22.4,22.4,0,0,1-3.21-1.18C747,291.39,758.1,292.73,773.84,292.42Z" style="fill: #333"/>
          <path d="M1146.46,461s-133.54-11.88-190.8-5.34c0,0-1.15,36,1.19,37.82s28.23,54.14,30.33,55.95,34.6,9.62,34.6,9.62,20.37-9,29.14-12,27.43-10.3,32.85-16.88,42.73-27.64,44.54-27.64S1146.46,461,1146.46,461Z" style="fill: #ffc0bb"/>
          <path d="M649.23,444.13C674.05,446.39,750.34,461,750.34,461c41.08,23.76,67.26-7.82,67.26-7.82,14.9-1.21,94-9,94-9l-1.22,32.94,21.68,8.57,10.23,128.14v73.09c-108.63,31.58-245,4.51-245,4.51-4.9-67.68,2.38-151.6,2.38-151.6C652.27,534.93,630,519.93,630,519.93,628.16,494.66,649.23,444.13,649.23,444.13Z" style="fill: #318ff1"/>
          <path d="M649.23,444.13c15.35,1.4,50.36,7.5,74.86,12,13.5,53.94,67.78,154.67,217.42,147.44l.82,10.24v73.09c-108.63,31.58-245,4.51-245,4.51-4.9-67.68,2.38-151.6,2.38-151.6C652.27,534.93,630,519.93,630,519.93,628.16,494.66,649.23,444.13,649.23,444.13Z" style="fill: #318ff1;opacity: 0.30000000000000004;mix-blend-mode: multiply"/>
          <path d="M854.46,825.53c74.63-55.35,74-171.15,74-171.15S874.32,518.73,905,482.63c12.34-14.51,31.79-22.56,50.64-27,6.63,26.55,24.17,81.62,55.28,79.33,33-2.42,107.69-54,135.52-74,25.91,8.18,50.9,22.71,56.17,48.51,11.74,57.36-68.61,302-68.61,302s121.88,296.8,139.93,479.07c0,0-265.41,135.36-624.72,0C649.23,1290.54,779.83,880.87,854.46,825.53Z" style="fill: #ff5b7e"/>
          <path d="M1011.24,853.78C1162.91,721.12,1146.46,461,1146.46,461c25.91,8.18,50.9,22.71,56.17,48.51,11.74,57.36-68.61,302-68.61,302s121.88,296.8,139.93,479.07c0,0-265.41,135.36-624.72,0,0,0,13.87-43.52,35.16-104.1C1081.91,1297,1011.24,853.78,1011.24,853.78Z" style="fill: #ff5b7e;opacity: 0.30000000000000004;mix-blend-mode: multiply"/>
          <path d="M1173.8,828.66l-70.49,57.91a2.44,2.44,0,0,1-3.43-.34l-3.22-3.9a2.43,2.43,0,0,1,.33-3.43l70.49-57.9a2.45,2.45,0,0,1,3.44.34l3.21,3.9A2.42,2.42,0,0,1,1173.8,828.66Z" style="fill: #fff"/>
          <path d="M1079.31,854.38l15.12,23.33c1.86,2.88,5.26,4.08,7.14,2.54L1167,826.5a6.17,6.17,0,0,0,1.69-6.64c-.81-2.85-3.24-6.16-9.67-8-12.63-3.61-33.06,9.57-48.37,10.51a2.52,2.52,0,0,0-1.49.57l-29.83,24.5C1077.64,848.84,1077.62,851.78,1079.31,854.38Z" style="fill: #318ff1"/>
          <path d="M1115.4,838.58h0a1.9,1.9,0,0,1-1.81-1.43c-1.12-4-3-14.38,6.41-19.63.54-.31,1.39.07,1.86.8v0c.45.7.38,1.47-.15,1.77-8.38,4.73-6.62,13.8-5.64,17.1C1116.28,837.93,1116,838.51,1115.4,838.58Z" style="fill: #fff"/>
          <path d="M1124.46,835.74h0a1.9,1.9,0,0,1-1.81-1.43c-1.12-4-3-14.38,6.41-19.63.54-.31,1.39.07,1.86.8v0c.45.7.37,1.47-.15,1.77-8.38,4.73-6.63,13.8-5.65,17.1C1125.34,835.09,1125.06,835.67,1124.46,835.74Z" style="fill: #fff"/>
          <path d="M1132.89,833.11h0a1.9,1.9,0,0,1-1.81-1.43c-1.12-4-3-14.38,6.41-19.63.54-.31,1.39.07,1.86.8v0c.45.7.38,1.47-.15,1.77-8.38,4.73-6.62,13.8-5.64,17.1C1133.77,832.45,1133.49,833,1132.89,833.11Z" style="fill: #fff"/>
          <path d="M1115.77,863.83c-15.09-9-24.28-6.28-29.2-2.7a2.64,2.64,0,0,0-.58,3.57l8.44,13c1.86,2.88,5.26,4.08,7.14,2.54l14.64-12A2.71,2.71,0,0,0,1115.77,863.83Z" style="fill: #e87b50;opacity: 0.30000000000000004;mix-blend-mode: multiply"/>
          <path d="M971,912.65,880.67,925.8a2.45,2.45,0,0,1-2.77-2.06l-.74-5a2.45,2.45,0,0,1,2.06-2.77l90.29-13.14a2.45,2.45,0,0,1,2.77,2.06l.73,5A2.42,2.42,0,0,1,971,912.65Z" style="fill: #fff"/>
          <path d="M876.77,885.85l.87,27.78c.11,3.42,2.4,6.22,4.81,5.86l83.81-12.2a6.17,6.17,0,0,0,4.88-4.81c.78-2.86.41-7-4.14-11.84-8.94-9.62-33.25-8.89-46.84-16a2.53,2.53,0,0,0-1.57-.28l-38.21,5.56C878.2,880.24,876.67,882.75,876.77,885.85Z" style="fill: #318ff1"/>
          <path d="M915.83,891h0a1.91,1.91,0,0,1-.81-2.16c1.1-4,4.9-13.84,15.64-13.5.62,0,1.15.79,1.18,1.65v0c0,.84-.45,1.46-1.05,1.44-9.62-.28-12.81,8.39-13.68,11.72C916.93,890.86,916.38,891.21,915.83,891Z" style="fill: #fff"/>
          <path d="M925.05,893.22h0a1.9,1.9,0,0,1-.8-2.16c1.09-4,4.89-13.85,15.63-13.5.62,0,1.16.79,1.18,1.65v0c0,.84-.44,1.46-1,1.44-9.63-.28-12.82,8.39-13.68,11.72C926.15,893.11,925.6,893.46,925.05,893.22Z" style="fill: #fff"/>
          <path d="M933.63,895.32h0a1.89,1.89,0,0,1-.8-2.16c1.09-4,4.89-13.84,15.63-13.49.62,0,1.16.78,1.18,1.65v0c0,.84-.45,1.46-1,1.44-9.62-.28-12.81,8.39-13.68,11.73C934.73,895.22,934.18,895.56,933.63,895.32Z" style="fill: #fff"/>
          <path d="M903.09,912.78c-8.27-15.5-17.53-17.93-23.6-17.4a2.63,2.63,0,0,0-2.34,2.75l.49,15.5c.11,3.42,2.4,6.22,4.81,5.86l18.74-2.73A2.69,2.69,0,0,0,903.09,912.78Z" style="fill: #e87b50;opacity: 0.30000000000000004;mix-blend-mode: multiply"/>
          <path d="M1022.08,722.51s73.57,59.55,90.95,89.33c0,0-8.35,29.78-38.59,47.38,0,0-79.45-67.68-88.47-71.74s-68.16-5.87-68.16-5.87-69.07-69-69.07-69.48,4.06-28.42,7.22-28.42,113.3-6.32,113.3-6.32l39.73,32Z" style="fill: #232222"/>
          <path d="M697.38,691.38s-14.75,69,52.51,79.86,93.89,13.08,93.89,13.08l23.47,105s34.31-3,63.19-15.67c0,0,27.54-138.51-64.09-184.53S697.38,691.38,697.38,691.38Z" style="fill: #333"/>
          <path d="M701,567.26c18.89-12.52,64.24,11.77,77.73,19.53.87.88,212.42,66.84,221.35,67.22,23.43,1,41.68-15.16,47.59-21.13,8,11,31.92,40.93,66.49,59.57,2,2.56,3.19,4.06,3.19,4.06s-39.52,42.67-102.33,48.32S748.56,632.94,748.56,632.94c-17.58-3.37-36-4.71-42.33,2.38-13.38,14.95-28.82-10.14-30-19.32S678.68,582,701,567.26Z" style="fill: #ffc0bb"/>
          <path d="M1040.82,623.47q10.76-14.65,21.65-29.17t22.06-28.86c7.44-9.55,14.94-19.07,22.64-28.42s15.42-18.69,23.69-27.53c-7.75,9.29-15.17,18.85-22.48,28.49s-14.55,19.33-21.71,29.08-14.36,19.47-21.45,29.27q-10.34,14.14-20.54,28.39a119.37,119.37,0,0,0,17.26,22.75c3.41,3.65,7,7.13,10.73,10.5s7.5,6.64,11.4,9.81c7.78,6.34,15.93,12.25,24.27,17.88,7.9,5.34,16,10.45,24.28,15.13l1.22-1.68c.7-1,1.44-1.91,2.06-3,1.27-2.06,2.63-4.06,3.85-6.17l3.64-6.34,3.46-6.45q6.75-13,13-26.33c4.12-8.89,8.22-17.8,12.18-26.76s7.83-18,11.67-27c-3.33,9.23-6.86,18.39-10.49,27.51s-7.35,18.21-11.28,27.21-8,18-12.39,26.76l-3.36,6.58-3.56,6.49c-1.2,2.17-2.55,4.26-3.82,6.39-.62,1.07-1.39,2.07-2.1,3.1l-2.18,3.08-.85,1.2-1.36-.74c-9-4.88-17.62-10.18-26.11-15.78s-16.71-11.59-24.63-18A214.86,214.86,0,0,1,1059,650.21a120.73,120.73,0,0,1-18.33-24.69l-.58-1.07Z" style="fill: #fff"/>
          <path d="M725.36,729.91A28,28,0,0,0,709,775.22c6.77,8.35,16.62,18.12,29,23.84,24.68,11.43,71.62,5.11,84.56-17.75S828.28,760,828.28,760s7.52-14.14-1.2-18.05c0,0,1.5-10.83-5.72-11.43a14.62,14.62,0,0,0-8.43,3s-.9-6.62-8.42-5.12S767.79,753,743.72,754.84c-19,1.42-2.84-14.31,4.87-21.06a20,20,0,0,0,6.71-12,13.6,13.6,0,0,0,.09-3.87,3.28,3.28,0,0,0-5.91-1.48c-3.14,4.33-8.71,10.75-14.79,11.92C732.42,728.81,729.09,729.18,725.36,729.91Z" style="fill: #ffc0bb"/>
          <polygon points="1078.38 395.91 1077.32 473.61 1010.34 490.45 998.99 472.41 1002.03 399.93 1070.29 375.84 1078.38 395.91" style="fill: #ffc0bb"/>
          <path d="M1079.77,383.58s-1.37,13.7-2.56,30.76c-24.48,26.8-70.35,17.61-76.41,15,.37-8.59,0-26,0-26Z" style="fill: #f99893"/>
          <rect x="696.7" y="225.2" width="1.34" height="32.47" transform="translate(7.88 504.53) rotate(-39.98)" style="fill: #fa5371"/>
          <rect x="674.55" y="242.86" width="1.34" height="34.11" transform="translate(219.51 821.88) rotate(-72.01)" style="fill: #fa5371"/>
          <rect x="664.82" y="291.08" width="29.24" height="1.34" transform="translate(-59.86 305.35) rotate(-24.29)" style="fill: #fa5371"/>
          <path d="M1151.24,257.54s34.23-13.07,64,14,15.38,93.16-1.5,106.05-7.44,37.39-38.8,52.19-75.77,13-94.92-16.42S1090.56,334,1090.56,334Z" style="fill: #333"/>
          <path d="M967.58,295.48c2.77,11.53-2.47,22.67-11.69,24.89S937,315,934.18,303.5s2.47-22.67,11.69-24.88S964.82,284,967.58,295.48Z" style="fill: #f99893"/>
          <path d="M961,359.45a89.31,89.31,0,0,1-4.55-15.88c-3.06-14.76-3.42-30-2.7-43.1.15-2.82.14-5.64.08-8.46a91.72,91.72,0,1,1,182.37,11.81c6.15-2.28,12.63-2,17.86,1.32,10,6.45,11.62,21.84,3.56,34.37s-22.73,17.47-32.75,11a17.33,17.33,0,0,1-3.67-3.19c-11.3,43.7-52.91,72.41-96.42,65A82.32,82.32,0,0,1,973.09,381a41.6,41.6,0,0,1-2.62-3.34A79.51,79.51,0,0,1,961,359.45Z" style="fill: #ffc0bb"/>
          <path d="M1025.34,286c-.91,5.11-1.84,10.16-3,15.09a61.44,61.44,0,0,1-2.23,7.16,18.74,18.74,0,0,1-3.49,6.05l-.57.53c-.21.19-.33.33-.66.6a11.78,11.78,0,0,0-1.64,1.52,8.38,8.38,0,0,0-1.34,1.87,7.64,7.64,0,0,0-.87,2.15,10.14,10.14,0,0,0,1.86,8.51,15.59,15.59,0,0,0,6.46,5.06,21.93,21.93,0,0,0,7.7,1.71,29.8,29.8,0,0,1-6.9-3.19,15.33,15.33,0,0,1-5-5c-1.1-2-1.68-4.24-1-6.18a5.82,5.82,0,0,1,.63-1.39,5.61,5.61,0,0,1,.94-1.25,8.81,8.81,0,0,1,1.2-1.07c.43-.36,1.13-1,1.66-1.45a21,21,0,0,0,4.06-7.32,45.28,45.28,0,0,0,1.8-7.75A64.3,64.3,0,0,0,1025.34,286Z" style="fill: #f99893"/>
          <path d="M1053.59,299.26a8,8,0,1,0,9.23-6.55A8,8,0,0,0,1053.59,299.26Z" style="fill: #333"/>
          <path d="M985.05,292.2a8,8,0,1,0,9.23-6.55A8,8,0,0,0,985.05,292.2Z" style="fill: #333"/>
          <path d="M820.26,350.89a7.07,7.07,0,1,0,8.14-5.78A7.05,7.05,0,0,0,820.26,350.89Z" style="fill: #333"/>
          <path d="M768.84,356A7.07,7.07,0,1,0,777,350.2,7.07,7.07,0,0,0,768.84,356Z" style="fill: #333"/>
          <path d="M1044.18,359.42s-10.54-6.06-22.39-1c0,0-10.18-9.24-20.44-4,0,0,1.12,17.83,20.15,20.07S1044.18,359.42,1044.18,359.42Z" style="fill: #f99893;opacity: 0.30000000000000004;mix-blend-mode: multiply"/>
          <path d="M1055.15,355.08a66.52,66.52,0,0,1-15.38,6,49.81,49.81,0,0,1-16.2,1.35,42.41,42.41,0,0,1-15.5-4.6A59.63,59.63,0,0,1,994.86,348a49.41,49.41,0,0,0,5.65,6.2,45.61,45.61,0,0,0,6.77,5.07,39.27,39.27,0,0,0,7.74,3.54,41.69,41.69,0,0,0,8.36,1.74,43.82,43.82,0,0,0,16.82-1.89A47.82,47.82,0,0,0,1055.15,355.08Z" style="fill: #f99893"/>
          <path d="M1047.62,279.45a83.23,83.23,0,0,1,12-.25,40.76,40.76,0,0,1,10.92,2.13,37.51,37.51,0,0,1,9.84,5.06c1.68.95,3,2.36,4.68,3.52s3,2.74,4.74,4a34,34,0,0,0-2.33-6,27.2,27.2,0,0,0-3.8-5.3,25.88,25.88,0,0,0-11.11-7.3,26.87,26.87,0,0,0-13.22-1.1A24.64,24.64,0,0,0,1047.62,279.45Z" style="fill: #333"/>
          <path d="M1012.32,275.81a24.69,24.69,0,0,0-10.23-7.77A27.06,27.06,0,0,0,989,266a25.85,25.85,0,0,0-12.5,4.53,27.2,27.2,0,0,0-4.92,4.26,33.36,33.36,0,0,0-3.66,5.27c2-.84,3.72-2,5.54-2.81s3.52-1.81,5.38-2.35a37.85,37.85,0,0,1,10.74-2.63,41,41,0,0,1,11.12.47A81.9,81.9,0,0,1,1012.32,275.81Z" style="fill: #333"/>
          <path d="M971.36,188.45c19-25.2,47.49-35.55,71.05-39.61a117.41,117.41,0,0,1,83.67,16.66c69.61,45,36.24,125.33,29.27,140.2-3.44-1.63-8.45-2.61-15.23-.65a35.56,35.56,0,0,0-7.23,2.94c-13.77-7.72-12.89-33.18-18-46.64-6.86-18.27-50.37-11.79-65.21-26.93s-15.22-27.6-15.22-27.6c-69.09-4-80.49,72.27-80.49,72.27-2.74-1.27-7.06-13.55-7.06-13.55S936.44,234.8,971.36,188.45Z" style="fill: #333"/>
          <path d="M822.25,385.28s-26.27-1.45-40.1,5.12c0,0,3.41,21.23,22.78,18.85C825,406.79,822.25,385.28,822.25,385.28Z" style="fill: #f99893"/>
          <path d="M820.22,385.21c-.29,1.51-.77,3.5-1.39,4.18-1.06,1.15-29.55,3.89-30.62,3.9-.53,0-1.74-2.07-2.84-4.2C797.11,384.94,814.38,385,820.22,385.21Z" style="fill: #fff"/>
          <path d="M2040.44,429.6s7.58,71.45,20.59,91.75c0,0-38,51-88.32,20.18,0,0-6.44-60.74-15.11-74.27S2040.44,429.6,2040.44,429.6Z" style="fill: #ffc0bb"/>
          <path d="M2040.44,429.6s1.68,15.79,4.81,34.64a82.64,82.64,0,0,1-56.84,32.06,81.47,81.47,0,0,1-22.44-.74c-2.37-12.22-5.22-23.38-8.37-28.3C1948.93,453.72,2040.44,429.6,2040.44,429.6Z" style="fill: #f99893"/>
          <path d="M1897.72,350.94c4.59,12.47.22,25.54-9.76,29.21s-21.81-3.46-26.4-15.92-.22-25.54,9.76-29.21S1893.12,338.48,1897.72,350.94Z" style="fill: #f99893"/>
          <path d="M1898.77,423a100.34,100.34,0,0,1-7.15-17.07c-5.34-16-7.74-32.9-8.66-47.59-.2-3.15-.58-6.29-1-9.41a102.87,102.87,0,1,1,204.72-10.74c6.55-3.35,13.8-3.92,20.07-.87,12,5.86,15.8,22.77,8.46,37.76s-23,22.4-35,16.54a19.74,19.74,0,0,1-4.5-3.06c-6.86,50.08-49.45,87.47-98.89,85a92.41,92.41,0,0,1-61.7-28.17,44.78,44.78,0,0,1-3.36-3.38A89.12,89.12,0,0,1,1898.77,423Z" style="fill: #ffc0bb"/>
          <polygon points="1996.12 316.7 2028.64 356.1 2017.76 366.71 1985.24 322.7 1996.12 316.7" style="fill: #fff;opacity: 0.30000000000000004"/>
          <path d="M1982.85,326.55s31.72,41.35,31.85,41.88l-2.12,2.09-32.52-41.27Z" style="fill: #fff;opacity: 0.30000000000000004"/>
          <path d="M1977.61,344.15A26.42,26.42,0,1,0,2004,317.77,26.39,26.39,0,0,0,1977.61,344.15Z" style="fill: #daeef7;opacity: 0.30000000000000004"/>
          <path d="M1984.2,345a9,9,0,1,0,9.43-8.5A9,9,0,0,0,1984.2,345Z" style="fill: #333"/>
          <path d="M1916.75,345a9,9,0,1,0,9.42-8.5A9,9,0,0,0,1916.75,345Z" style="fill: #333"/>
          <path d="M1984.11,315a94.93,94.93,0,0,1,13.08-3.34,45.91,45.91,0,0,1,12.45-.48,42.18,42.18,0,0,1,12,3l1.53.54c.51.18,1,.47,1.47.69,1,.48,2,.94,3,1.39,2,1,3.94,2.2,6.23,3.14a37.35,37.35,0,0,0-4.08-5.92c-.84-.86-1.71-1.72-2.61-2.55a15.59,15.59,0,0,0-2.91-2.25,29,29,0,0,0-14-5.12,30.31,30.31,0,0,0-14.73,2.24A27.49,27.49,0,0,0,1984.11,315Z" style="fill: #daeef7"/>
          <path d="M1947.92,315a27.49,27.49,0,0,0-11.48-8.71,30.31,30.31,0,0,0-14.73-2.24,29,29,0,0,0-14,5.12,15.59,15.59,0,0,0-2.91,2.25c-.9.83-1.77,1.69-2.61,2.55a37.35,37.35,0,0,0-4.08,5.92c2.29-.94,4.19-2.18,6.23-3.14,1-.45,2-.91,3-1.39.5-.22,1-.51,1.47-.69l1.53-.54a42.18,42.18,0,0,1,12-3,45.91,45.91,0,0,1,12.45.48A94.93,94.93,0,0,1,1947.92,315Z" style="fill: #daeef7"/>
          <path d="M2080.61,361.77c6.1-31.8-12.61-37.06-18.52-29.42s1.79,69.71-28.87,67.2c-19.25-1.58-42.61-12.33-80-8.35-30.67,3.25-55.35,17.89-67.3-10.74,0,0-16.32,97.94,89.61,98.21,107.26.27,105.13-116.9,105.13-116.9Z" style="fill: #daeef7"/>
          <path d="M1992.7,404.58a52.4,52.4,0,0,1-6.52,4.05,53.23,53.23,0,0,1-6.92,3.17,45.73,45.73,0,0,1-14.74,3,39,39,0,0,1-14.74-2.57,54.43,54.43,0,0,1-13.16-7.66,45.61,45.61,0,0,0,5.87,5,41.89,41.89,0,0,0,6.76,3.89,36.16,36.16,0,0,0,7.47,2.4,39,39,0,0,0,7.85.68,40.46,40.46,0,0,0,15.2-3.52A44.65,44.65,0,0,0,1992.7,404.58Z" style="fill: #f99893"/>
          <path d="M1974,344.15a29.09,29.09,0,0,0,47.5,22.48,5.15,5.15,0,0,0,9.24,1.27c7.5,4.29,14.51,6.46,21,6.46a26.52,26.52,0,0,0,10.57-2.14c18.46-7.93,25.95-33.79,26.18-34.93l-1.82.86c-.06.27-7.48,24.87-25.08,32.43-8.6,3.69-18.71,2.23-30.09-4.31a5.51,5.51,0,0,0,.14-.92,5.16,5.16,0,0,0-4.17-5.31,28.8,28.8,0,0,0,4.77-15.89,29.1,29.1,0,0,0-58.2,0Zm3.59,0a25.52,25.52,0,1,1,25.51,25.47A25.52,25.52,0,0,1,1977.61,344.15Z" style="fill: #07085b"/>
          <path d="M1962.63,316.71a80.32,80.32,0,0,1-1.22,22.51,62.86,62.86,0,0,1-3.17,11.13,29.27,29.27,0,0,1-6.71,10.5l-1.4,1.1-1.24.94a11.45,11.45,0,0,0-1.66,1.29,8.43,8.43,0,0,0-2.26,3.16c-1.13,2.34-.63,5.31.58,8.14,2.68,5.79,8.83,10.12,15.57,13.31-7.42-.35-15.59-3.3-20.44-10.54a15.41,15.41,0,0,1-2.13-13.14,12.2,12.2,0,0,1,1.54-3.26,13.93,13.93,0,0,1,2.22-2.76,18.09,18.09,0,0,1,2.66-2.16,8.36,8.36,0,0,0,1-.76l.78-.61a28,28,0,0,0,5.32-7.93,93.61,93.61,0,0,0,4-9.84C1958.35,331,1960.4,323.89,1962.63,316.71Z" style="fill: #f99893"/>
          <path d="M1975.51,266.25c-64.54-1.26-64.19-40.4-64.19-40.4l1.73,1.72c4.79,3.17,15,4,15,4-11.13-27.76,22.24-33.31,22.24-33.31s-22.24,22.2,27.8,22.2,61.17,16.66,61.17,16.66a10.71,10.71,0,0,1,.92,4.38h0a11.14,11.14,0,0,1-.66,6,25.69,25.69,0,0,1-4.68,8,39.91,39.91,0,0,1-8.78,7.72,63.16,63.16,0,0,1-21.52,8.71,52.58,52.58,0,0,1-5.69,1c-1.91.25-3.81.57-5.72.75l-5.74.26a49.81,49.81,0,0,1-5.73.09c-3.81-.19-7.62-.3-11.39-.76s-7.52-1.12-11.23-1.91c3.81-.4,7.56-.55,11.31-.73,1.87,0,3.74-.27,5.59-.4s3.72-.26,5.58-.39c3.7-.33,7.36-.82,11-1.21l5.44-.93a50.76,50.76,0,0,0,5.39-1l5.34-1.22,5.2-1.64a29,29,0,0,0,3.91-1.44C2008.26,265,1994.72,266.63,1975.51,266.25Z" style="fill: #daeef7"/>
          <path d="M1874.77,1063.14c60.31,63.55,185.44-.72,185.44-.72l-20.54,296.66-52,459.48s-48.4,9.21-76.05-5.75C1911.62,1812.81,1870.84,1241.5,1874.77,1063.14Z" style="fill: #446284"/>
          <path d="M2201,1082c-3.65-18.55-6.88-32.8-8-32.8-3.1,0-130.32-17.56-137.56-16.53s-182.63,36.71-182.63,36.71,107.39,119.18,196.73,146c8.64,237.68,34.31,597.38,34.31,597.38,27.66,15,76.06,5.75,76.06,5.75l52-459.48,20.54-296.66A309.3,309.3,0,0,1,2201,1082Z" style="fill: #55769f"/>
          <path d="M1926,514.3h188.59s-41.1,160.54-108.8,147.26-85.57-109-85.57-109Z" style="fill: #daeef7"/>
          <path d="M2051.85,581.78l-44-33.19-45,33.19L2001,644.51s22.31,0,22.74-3,28.1-57.81,28.1-57.81Z" style="fill: #daeef7;mix-blend-mode: multiply"/>
          <polygon points="2034.26 629.09 2012.56 570.85 2000.51 570.85 1981.29 633.83 2003.8 676.63 2034.26 629.09" style="fill: #446284"/>
          <path d="M2114.59,514.3H2087s-41.34,93.81-80.8,126.36c0,0-39.46-47.16-60.9-126.36H1926V649.22s35.56,80.51,58.72,67.66,50.61-6,66-42.82,32.06-42.83,36.19-67.66,8.6-35.12,14.94-52.25S2114.59,514.3,2114.59,514.3Z" style="fill: #05ad99"/>
          <path d="M1926,514.3s-84.62,65.18-75,185.88,28.89,317.27,19.22,358.31c-9.13,38.73,168.21,62.54,352.84,24.49a45.11,45.11,0,0,0,35.82-40.25l8-91.49s7.25-94,0-146-53.19-143.73-60.45-189.6-91.88-101.39-91.88-101.39-62.86,118.29-108.8,147.26C2005.79,661.56,1950.18,635,1926,514.3Z" style="fill: #02ccc0"/>
          <path d="M2087,514.3l-18.33-19.39s-64.38,35.75-106.46,8.39l-16.91,11,21.41,19.3s86.67,6.85,87.82,4.57S2087,514.3,2087,514.3Z" style="fill: #daeef7"/>
          <path d="M2028.28,564l-20.4-15.4L1988.27,563l10.41,11.78a11.37,11.37,0,0,0,16,1Z" style="fill: #55769f"/>
          <path d="M2099.54,1874.35h36.67V1138.49c0-17.66,6.46-34.91,18.77-47.6a66.4,66.4,0,0,1,48-20.3h48.85a18.32,18.32,0,0,0,18.33-18.31h0a18.32,18.32,0,0,0-18.33-18.31h-47.17c-28.27,0-55.72,10.82-75.52,31a102.47,102.47,0,0,0-29.58,72.29Z" style="fill: #333"/>
          <path d="M1864.69,849l-1.4-1.39c.14,1.84.29,3.68.44,5.53l1-1,36.74,36.68-32.68,32.64q.4,6.09.77,12.05l31.4,31.35-28.46,28.41c.21,6.73.35,13.12.42,19.11l30.14,30.1,38.34-38.27,38.33,38.27,38.33-38.27,38.34,38.27,38.33-38.27,38.33,38.27,38.34-38.27,38.33,38.27,37.72-37.66,13.63,13.61,3-34.64-16.66,16.63-35.62-35.56,35.62-35.56L2267.08,949c.43-6,1.63-23.88,2.39-46.06l-22.06,22-36.13-36.08,36.13-36.07,22.68,22.65c.16-16.32-.07-33.27-1.07-48.63l-21.61,21.58-37.72-37.66L2171.36,849,2133,810.77,2094.69,849l-38.33-38.27L2018,849l-38.33-38.27L1941.36,849,1903,810.77Zm270.43,115.9,36.24-36.18,36.23,36.18-36.23,36.18Zm-.51-76,36.75-36.68,36.74,36.68-36.74,36.69Zm-76.15,76,36.23-36.18,36.23,36.18-36.23,36.18Zm-.52-76,36.75-36.68,36.74,36.68-36.74,36.69Zm-76.15,76L2018,928.76l36.23,36.18L2018,1001.12Zm-.51-76L2018,852.22l36.75,36.68L2018,925.59Zm-76.16,76,36.24-36.18,36.23,36.18-36.23,36.18Zm-.51-76,36.75-36.68,36.74,36.68-36.74,36.69Z" style="fill: #05ad99;opacity: 0.30000000000000004"/>
          <path d="M2134.68,1026.62c26.62-14.61,59.9-13.51,86.9-8.63l3.93.94c21.15,5.21,19.92,16.8,18.16,22a4.07,4.07,0,0,1-3.9,2.64c-3.32,0-7.56.12-13.31.58-33.48,2.64-1.24,42.15-14.28,42.33-16.48.23-12.14-35.64-20.74-35-16.18,1.23,3.31,33.11-7.39,35-11.71,2-2.13-36.44-20.73-35.31-10,.61,2.62,35.84-9.05,33.32-12.26-2.65-1.91-33.7-13.25-33.14-16.78.83,4,31.66-8.37,33.34C2125.2,1085.72,2115.82,1037,2134.68,1026.62Z" style="fill: #ffc0bb"/>
          <path d="M2114.59,514.3S2219.77,538.44,2281.42,638s80.8,184.67-11.28,385.64c0,0-88.45,12.67-108.4-9l62.29-201-122.13-143Z" style="fill: #02ccc0"/>
          <path d="M2128.34,710.25c14,15.38,28.19,30.59,42.81,45.36s29.64,29.13,45.5,42.51a281.76,281.76,0,0,0,24.8,18.74c8.61,5.73,17.75,10.84,27.8,13.71a69.28,69.28,0,0,1-14.88-4.86l-3.59-1.61c-1.17-.57-2.32-1.21-3.48-1.81l-3.48-1.84-3.38-2c-4.89-3-9.64-6.11-14.28-9.43-1.18,5.72-2.42,11.42-3.82,17.09-1.24,5.37-2.5,10.73-3.92,16s-2.7,10.68-4.14,16q-4.32,15.95-9.09,31.75c-6.34,21.09-12.87,42.12-20,63-7,20.44-14.12,40.8-21.64,61a89.61,89.61,0,0,0,24.3,8.93,161.22,161.22,0,0,0,27.21,3.53,269.72,269.72,0,0,0,27.57,0c9.18-.49,18.37-1.34,27.49-2.69a252.69,252.69,0,0,1-27.42,3.75,237.36,237.36,0,0,1-27.72.86,164.16,164.16,0,0,1-27.65-3,89.19,89.19,0,0,1-26.36-9.36l-1.07-.61.43-1.19c7.52-20.65,14.68-41.45,21.62-62.31S2195.8,910,2202.2,889s12.61-42.11,18.09-63.39q2.22-8.83,4.34-17.7c-3.35-2.42-6.65-4.9-9.88-7.47-8.21-6.48-16.07-13.38-23.81-20.39s-15.16-14.36-22.53-21.74-14.5-15-21.57-22.68-14-15.48-20.75-23.41q-20.4-23.68-39.13-48.74Q2107.36,687.16,2128.34,710.25Z" style="fill: #daeef7"/>
          <g>
            <path d="M421,1845.91,438.06,1857c7.92,5,4.34,17.32-5.06,17.32H303.12a8.3,8.3,0,0,1-8.3-8.29v-27.19C381.32,1866.41,411.2,1858,421,1845.91Z" style="fill: #07085b"/>
            <path d="M621.77,1621.56l92-22.08,43.49,219.9,0,0,27,7.36,10.86,3,6.34,8.16s-7,2.25-6.74,3.63-11.21,6.53-22.14,9.44-10.05,3-27.71,8.94-15.55.86-18.8.45c-2.13-.27-5.27-6.27-7.19-10.4l-.48-.09-5.24-16.23C713.25,1833.6,621.77,1621.56,621.77,1621.56Z" style="fill: #ffc0bb"/>
            <path d="M733.32,1698.54l23.9,120.84,0,0,27,7.36,10.86,3,6.34,8.16s-7,2.25-6.74,3.63-11.21,6.53-22.14,9.44-10.05,3-27.71,8.94-15.55.86-18.8.45c-2.13-.27-5.27-6.27-7.19-10.4l-.48-.09-5.24-16.23s-24.22-56.26-47.75-110.82C694.47,1716.73,719,1705.83,733.32,1698.54Z" style="fill: #daeef7"/>
            <path d="M767.33,1847c18.63-4,25.88-10.69,27.8-17.3l14.8,4a6,6,0,0,1,.33,11.59l-79.43,25.64a5.33,5.33,0,0,1-6.71-3.43l-6.93-21.46C724,1849.65,738.43,1853.21,767.33,1847Z" style="fill: #feb546"/>
            <path d="M575.42,1603l-94.29,7.24,26.16,222.63h0l-23.46,15.31-9.42,6.15-3.53,9.71s7.33,0,7.53,1.38,12.68,2.78,24,2.19,10.5-.21,29.12,0,15.06-4,18-5.34c1.94-.91,3.08-7.59,3.64-12.11l.43-.24v-17C553.51,1832.86,575.42,1603,575.42,1603Z" style="fill: #ffc0bb"/>
            <path d="M722.21,1127.36c-8.21-21.35-16.2-12.89-31-38.7a56.49,56.49,0,0,1-5.24-14.31,72.28,72.28,0,0,0-22.65-37.85c-34.73-30-74-16.69-74-16.69s10.2,58,12.15,69.74c-8.69,11.81-17.44,23.88-17.44,23.88s-18.28,95.31,10.41,103.35,33.91-4.86,47.92-11.58,27.69,11.62,48.62-1.14c16-9.75,7.87-34.06,16.33-38.62S731.06,1150.39,722.21,1127.36Z" style="fill: #fee4cb"/>
            <path d="M527,1041.21s-15.07,22.67-22.76,31.66c-19.34,22.61-31,15.52-43,35-13,21,.16,34.14,7.62,40.19s-5,28.44,8.88,41c18.2,16.43,35,.94,47.57,10.14s15.26,22.84,44.94,20.26,29.39-99.63,29.39-99.63-24.29-51.45-25.26-51.88S527,1041.21,527,1041.21Z" style="fill: #fee4cb"/>
            <path d="M921.41,1119.51c-.28-1.94,19.85-19.59,17.56-20.23s-22.86,13.4-23.5,12,19-18.16,16.66-20.68-23.33,16.56-24.41,13.79,20.86-21.77,18.32-23.71c-2.14-1.64-27.21,19-35.14,25.63a1.68,1.68,0,0,1-2.73-1.11c-2.35-20.38-3.72-21.82-5.9-21-1.45.51-7.77,23.63-12.2,40.45-76,80.58-206.1,136.65-206.1,136.65s-46.84,114.24,19.11,90c57.81-21.27,176.61-156.6,205-189.66h0l11.4-10.9h0l0-.05c3.68-2.46,7-4.38,7-4.38,35.53-28.6,34.73-29.44,33.9-30.9S921.7,1121.44,921.41,1119.51Z" style="fill: #ffc0bb"/>
            <path d="M261.25,1119.51c.29-1.94-19.85-19.59-17.56-20.23s22.86,13.4,23.5,12-19-18.16-16.66-20.68,23.33,16.56,24.42,13.79-20.87-21.77-18.33-23.71c2.14-1.64,27.21,19,35.14,25.63a1.68,1.68,0,0,0,2.73-1.11c2.35-20.38,3.72-21.82,5.9-21,1.45.51,7.77,23.63,12.2,40.45,76,80.58,206.1,136.65,206.1,136.65s46.85,114.24-19.11,90c-57.81-21.27-176.61-156.6-205-189.66h0l-11.4-10.9h0l0-.05c-3.68-2.46-7-4.38-7-4.38-35.52-28.6-34.73-29.44-33.9-30.9S261,1121.44,261.25,1119.51Z" style="fill: #fcb9b6"/>
            <g>
              <path d="M760.09,1202l-92.81,36-21.6,57.55s-2.87,65,34.38,64.39,108.56-81,108.56-81C786.24,1244.77,760.09,1202,760.09,1202Z" style="fill: #feb546"/>
              <path d="M521.59,1237.94l-85.18-31.39s-33.77,45.75-36.15,79.83c0,0,71.31,72.92,108.56,73.5s34.37-64.39,34.37-64.39Z" style="fill: #feb546"/>
            </g>
            <rect x="569.74" y="1201.98" width="53.81" height="53.81" style="fill: #ffc0bb"/>
            <path d="M623.55,1234.24V1202H569.74v27.45C581.33,1235.65,598.48,1239.24,623.55,1234.24Z" style="fill: #f99893"/>
            <path d="M688.49,1113.83c-4.67-2.31-10.09-1.9-15,.59a79.66,79.66,0,1,0-159.32,0c-4.9-2.49-10.32-2.9-15-.59-8.95,4.41-11.74,17.07-6.21,28.26s17.25,16.69,26.21,12.27a14.44,14.44,0,0,0,3.35-2.3c5.14,36.49,35.58,63.85,71.3,63.34,35.72.51,66.16-26.85,71.3-63.34a14.44,14.44,0,0,0,3.35,2.3c9,4.42,20.69-1.07,26.21-12.27S697.44,1118.24,688.49,1113.83Z" style="fill: #ffc0bb"/>
            <path d="M521.82,1237.94s87.52,57.68,145.46,0Z" style="fill: #ffc0bb"/>
            <path d="M573.71,1130.1a6.71,6.71,0,1,1-7.06-6.33A6.71,6.71,0,0,1,573.71,1130.1Z" style="fill: #333"/>
            <path d="M631.43,1130.72a6.71,6.71,0,1,1-7.07-6.32A6.72,6.72,0,0,1,631.43,1130.72Z" style="fill: #333"/>
            <path d="M581.07,1116.38a63.76,63.76,0,0,0-9.73-2.64,33.37,33.37,0,0,0-9.38-.39,30.82,30.82,0,0,0-9,2.32l-1.14.42c-.38.15-.72.37-1.1.54l-2.24,1.08c-1.5.76-2.9,1.72-4.57,2.47a29.79,29.79,0,0,1,3.1-4.36,24.07,24.07,0,0,1,4.12-3.53,21.89,21.89,0,0,1,10.39-3.8,22.82,22.82,0,0,1,10.94,1.58A21.12,21.12,0,0,1,581.07,1116.38Z" style="fill: #fee4cb"/>
            <path d="M608.09,1116.28a21.08,21.08,0,0,1,8.6-6.38,22.88,22.88,0,0,1,10.92-1.66A21.87,21.87,0,0,1,638,1112a24.9,24.9,0,0,1,4.14,3.5,30.36,30.36,0,0,1,3.14,4.33c-1.68-.73-3.08-1.68-4.6-2.42l-2.25-1.07c-.37-.17-.71-.39-1.09-.53l-1.15-.42a30.78,30.78,0,0,0-9.06-2.24,33,33,0,0,0-9.37.45A63.78,63.78,0,0,0,608.09,1116.28Z" style="fill: #fee4cb"/>
            <path d="M623.11,1166c-2,8.85-12.08,15.8-24.48,16.18s-22.91-5.94-25.42-14.65Z" style="fill: #fff"/>
            <path d="M597.15,1120.93a37.72,37.72,0,0,0,.58,10.54,28.32,28.32,0,0,0,1.48,5.2,13.71,13.71,0,0,0,3.13,4.92l.65.52.59.43a5.17,5.17,0,0,1,.77.61,4,4,0,0,1,1.06,1.48,4.77,4.77,0,0,1-.27,3.81c-1.26,2.7-4.13,4.73-7.28,6.23a11.91,11.91,0,0,0,9.55-4.94,7.21,7.21,0,0,0,1-6.15,5.61,5.61,0,0,0-.73-1.52,6.15,6.15,0,0,0-1-1.29,7.83,7.83,0,0,0-1.24-1,5.28,5.28,0,0,1-.45-.36l-.36-.29a12.74,12.74,0,0,1-2.49-3.71,45.08,45.08,0,0,1-1.87-4.6C599.15,1127.6,598.2,1124.29,597.15,1120.93Z" style="fill: #f99893"/>
            <path d="M667.28,1237.94c-28.15,20.9-117.3,20.9-145.46,0,0,0-64.75,307.16-104.37,369,0,0,52.23,49.43,112.85,18.18,0,0,69.18,39.87,134.23-.44,0,0,52.53,31.39,107.13-17.74C732,1545.1,667.28,1237.94,667.28,1237.94Z" style="fill: #feb546"/>
            <path d="M494.82,1357c.74-4.8,1.67-9.55,2.63-14.3s2-9.47,3.1-14.18,2.24-9.42,3.5-14.1l1.89-7c.69-2.33,1.33-4.66,2.08-7-.36,2.41-.82,4.78-1.23,7.17l-1.41,7.13c-.94,4.75-2,9.47-3.1,14.19s-2.24,9.42-3.5,14.09S496.27,1352.41,494.82,1357Z" style="fill: #daeef7"/>
            <path d="M694,1357c-.74-4.8-1.68-9.55-2.64-14.3s-2-9.47-3.09-14.18-2.25-9.42-3.5-14.1l-1.9-7c-.69-2.33-1.33-4.66-2.07-7,.35,2.41.82,4.78,1.22,7.17l1.41,7.13c.94,4.75,2,9.47,3.1,14.19s2.24,9.42,3.5,14.09S692.5,1352.41,694,1357Z" style="fill: #daeef7"/>
            <path d="M514.18,1114.42s95.1-17.61,129.67-66.77c0,0-26.45-53.48-87.62-25.7S503.52,1087.83,514.18,1114.42Z" style="fill: #fee4cb"/>
            <path d="M502.87,1555.51a490.39,490.39,0,0,0,79.88,6.35c45.29,0,99.52-5.77,161-22.75-3.17-9.68-6.36-20-9.55-30.66-96.59,26.53-173.72,23.82-224.26,15.69a391.6,391.6,0,0,1-55.73-13.09c-3.22,10.71-6.43,21-9.62,30.64A422.72,422.72,0,0,0,502.87,1555.51Z" style="fill: #daeef7"/>
            <path d="M502.87,1492.69a490.39,490.39,0,0,0,79.88,6.35c40.93,0,89.16-4.72,143.42-18.16-2.85-10.15-5.69-20.52-8.48-31-88.9,21.91-160.16,19.08-207.79,11.42-14.58-2.35-27.7-5.25-39.31-8.33-2.81,10.47-5.66,20.83-8.52,31C474.2,1487.18,487.82,1490.2,502.87,1492.69Z" style="fill: #daeef7"/>
            <path d="M492.91,1710.5l14.38,122.34h0l-23.46,15.31-9.42,6.15-3.53,9.71s7.33,0,7.53,1.38,12.68,2.78,24,2.19,10.5-.21,29.12,0,15.06-4,18-5.34c1.94-.91,3.08-7.59,3.64-12.11l.43-.24v-17s5.77-61,11.4-120.14C535.47,1715.88,508.75,1713.05,492.91,1710.5Z" style="fill: #daeef7"/>
            <path d="M506.15,1862.22c-19,1.9-27.91-2.23-31.77-7.93l-12.85,8.38a6,6,0,0,0,3.25,11.13h83.46a5.32,5.32,0,0,0,5.33-5.33v-22.55C548.21,1851.44,535.56,1859.26,506.15,1862.22Z" style="fill: #feb546"/>
          </g>
          <g>
            <polygon points="1730.95 1593.08 1764.06 1827.69 1810.26 1831.66 1809.26 1825.32 1822.07 1589.96 1730.95 1593.08" style="fill: #ffc0bb"/>
            <path d="M1585.15,1825c.58-4.81-15.09-261-15.09-261s103.18,16.26,101.83,13.94-42,257.37-42,257.37Z" style="fill: #ffc0bb"/>
            <path d="M1570.05,1427s-13.19,133.6-8.34,176c0,0,60,20.91,115.8,7l18.59-105.72s25.63,96.13,28.5,110.51c0,0,79.16.43,112.76-4.21l-10.46-172.57-155-16.22Z" style="fill: #1e1e1e"/>
            <path d="M1579.75,1725.33c3.08,52.34,5,104.45,4.74,106.45l45.39,3.57s7.61-48.63,16.36-103.62C1615.84,1732.1,1592.71,1728.24,1579.75,1725.33Z" style="fill: #dceaf4"/>
            <g>
              <path d="M1634.32,1832.71l4.07,31.37c.5,3.86-1.68,7.36-4.58,7.34l-101-.68a7.51,7.51,0,0,1-6.63-4.65c-1.44-3.1-1.76-7.74,2.7-14,8.93-12.43,38.6-15.27,53-25.83l47,.31C1631.61,1826.63,1633.87,1829.21,1634.32,1832.71Z" style="fill: #aad9f9"/>
              <path d="M1589.46,1843.25h0a2.06,2.06,0,0,0,.55-2.55c-.55-1.19-10.32-14.47-20.89-12.74-.73.12-1.21,1.06-1.08,2v0c.13.94.79,1.56,1.5,1.45,11.28-1.81,16.63,7.44,18.26,11C1588.15,1843.3,1588.86,1843.61,1589.46,1843.25Z" style="fill: #dceaf4"/>
              <path d="M1579,1847.21h0a2.06,2.06,0,0,0,.56-2.55c-2-4.3-8.31-14.8-20.9-12.74-.73.12-1.21,1.06-1.08,2v0c.12.94.79,1.57,1.49,1.45,11.28-1.8,16.42,8.74,18.06,12.35C1577.5,1848.56,1578.41,1847.57,1579,1847.21Z" style="fill: #dceaf4"/>
              <path d="M1569.3,1850.91h0a2.07,2.07,0,0,0,.55-2.55c-2-4.31-8.31-14.8-20.9-12.74a1.74,1.74,0,0,0-1.08,2v0c.13.94.79,1.57,1.49,1.45,9.31-1.49,18.05,10.58,18.27,11.06A1.16,1.16,0,0,0,1569.3,1850.91Z" style="fill: #dceaf4"/>
            </g>
            <path d="M1814.39,1731.11c-23.77,1.26-47.69-.64-64.32-2.59l14,99.17,46.2,4-1-6.34Z" style="fill: #dceaf4"/>
            <g>
              <path d="M1814.4,1832.71l4.07,31.37c.5,3.86-1.68,7.36-4.59,7.34l-101-.68a7.52,7.52,0,0,1-6.63-4.65c-1.44-3.1-1.76-7.74,2.7-14,8.93-12.43,38.6-15.27,53-25.83l47,.31C1811.68,1826.63,1813.94,1829.21,1814.4,1832.71Z" style="fill: #aad9f9"/>
              <path d="M1769.54,1843.25h0a2.07,2.07,0,0,0,.55-2.55c-.56-1.19-10.32-14.47-20.9-12.74a1.73,1.73,0,0,0-1.07,2v0c.13.94.79,1.56,1.49,1.45,11.28-1.81,16.63,7.44,18.27,11C1768.23,1843.3,1768.93,1843.61,1769.54,1843.25Z" style="fill: #dceaf4"/>
              <path d="M1759.09,1847.21h0a2.07,2.07,0,0,0,.55-2.55c-.56-1.18-10.32-14.47-20.89-12.74a1.72,1.72,0,0,0-1.08,2v0c.13.94.79,1.57,1.49,1.45,11.28-1.8,16.63,7.45,18.27,11.06A1.16,1.16,0,0,0,1759.09,1847.21Z" style="fill: #dceaf4"/>
              <path d="M1749.37,1850.91h0a2.06,2.06,0,0,0,.55-2.55c-2-4.31-8.3-14.8-20.89-12.74-.73.12-1.21,1.06-1.08,2v0c.13.94.79,1.57,1.5,1.45,9.31-1.49,18,10.58,18.26,11.06A1.16,1.16,0,0,0,1749.37,1850.91Z" style="fill: #dceaf4"/>
            </g>
            <path d="M1752.32,1744.48l1,7.19a128,128,0,0,0,51.73.51c2.72-.55,5.49-1.2,8.29-2l.39-7.11A122.8,122.8,0,0,1,1752.32,1744.48Z" style="fill: #1e1e1e"/>
            <path d="M1754.69,1761.27l1,7.15a127.74,127.74,0,0,0,49.36,0c2.43-.48,4.9-1.07,7.39-1.73l.39-7.09A122.62,122.62,0,0,1,1754.69,1761.27Z" style="fill: #1e1e1e"/>
            <path d="M1581.77,1760c.15,2.65.3,5.26.45,7.81a139,139,0,0,0,51.26,3.5c2.18-.27,4.41-.62,6.65-1q.6-3.78,1.22-7.7A133.4,133.4,0,0,1,1581.77,1760Z" style="fill: #1e1e1e"/>
            <path d="M1580.7,1741.6q.24,4,.46,7.85a139.3,139.3,0,0,0,53.67,4.15c2.67-.33,5.39-.76,8.14-1.27q.6-3.82,1.23-7.73A133.59,133.59,0,0,1,1580.7,1741.6Z" style="fill: #1e1e1e"/>
            <g>
              <path d="M1363.2,1263.68a1.38,1.38,0,0,1-2.31.75c-6.13-5.88-25.55-24.26-27.4-23-2.2,1.45,14.75,18.3,13.71,20.51s-17.17-14.63-19.27-12.7,13.11,16.8,12.51,17.92-16.7-11.56-18.62-11.17,13.62,16,13.27,17.6-14.65-5.66-15.41-4.5-1.47,1.8,26.09,27.3l15.81,14.85,8.89-2.43,9.19-13.71s-8.6-47.55-10.42-48.34S1366.28,1247.07,1363.2,1263.68Z" style="fill: #ffc0bb"/>
              <path d="M1554.25,1299.8l-48.19-38.43L1497,1275.7c-12.84,32.65-39.42,58.27-46.46,61.42-15,6.69-75.84-57.65-75.84-57.65l-16.34,27s65.81,99.26,106.77,81.67,85.53-80.66,85.53-80.66Z" style="fill: #ffc0bb"/>
            </g>
            <polygon points="1690.56 1134.23 1690.29 1165.68 1642.75 1164.06 1638.86 1118.61 1690.56 1134.23" style="fill: #ffc0bb"/>
            <path d="M1690.4,1152.45c-10.1,3.92-26.13,7.51-48.24,4.75l-3.3-38.59,51.7,15.62Z" style="fill: #f99893"/>
            <path d="M1577.5,1032.1c4,11.48-.22,23.38-9.42,26.57s-19.89-3.51-23.89-15,.22-23.37,9.42-26.57S1573.5,1020.62,1577.5,1032.1Z" style="fill: #f99893"/>
            <path d="M1577.27,1098a92.52,92.52,0,0,1-6.26-15.74c-4.63-14.74-6.54-30.23-7.14-43.69-.13-2.88-.42-5.76-.77-8.63a94.14,94.14,0,1,1,187.49-6.53c6.05-3,12.7-3.37,18.38-.47,10.9,5.55,14.09,21.09,7.12,34.69s-21.44,20.13-32.33,14.57a17.61,17.61,0,0,1-4.07-2.88c-7.11,45.73-46.69,79.25-91.89,76.15a84.47,84.47,0,0,1-56-26.77c-1-.9-2-1.94-3-3.14A81.65,81.65,0,0,1,1577.27,1098Z" style="fill: #ffc0bb"/>
            <path d="M1651.87,1026.35a78.16,78.16,0,0,1,12-3.08,40.84,40.84,0,0,1,11.5-.31,37.88,37.88,0,0,1,11.05,3l1.39.54c.46.19.87.47,1.33.68l2.72,1.37c1.83,1,3.53,2.15,5.56,3.09a35.84,35.84,0,0,0-3.73-5.37c-1.58-1.49-3-3.25-5-4.39a26.77,26.77,0,0,0-12.66-4.81,28,28,0,0,0-13.42,1.73A26,26,0,0,0,1651.87,1026.35Z" style="fill: #fee4cb"/>
            <path d="M1622.88,1027.12a25.91,25.91,0,0,0-10.43-7.93,27.92,27.92,0,0,0-13.35-2.21,26.8,26.8,0,0,0-12.83,4.36c-2,1.07-3.51,2.79-5.15,4.22a36.67,36.67,0,0,0-3.92,5.24c2.07-.88,3.8-2,5.67-2.9l2.77-1.27c.47-.2.89-.46,1.36-.63l1.41-.49a37.67,37.67,0,0,1,11.15-2.6,40.65,40.65,0,0,1,11.48.72A77.49,77.49,0,0,1,1622.88,1027.12Z" style="fill: #fee4cb"/>
            <path d="M1639.93,1031.86a48.46,48.46,0,0,1,1.24,13.6,37.86,37.86,0,0,1-.92,7,17.66,17.66,0,0,1-3.1,6.89l-.74.78-.66.67a6.89,6.89,0,0,0-.88.92,5,5,0,0,0-1.08,2.09,6.14,6.14,0,0,0,1.06,4.84c2.11,3.23,6.18,5.29,10.5,6.61-4.48.44-9.64-.62-13.18-4.53a9.34,9.34,0,0,1-2.43-7.69,7.46,7.46,0,0,1,.64-2.09,8.34,8.34,0,0,1,1.09-1.85,10.8,10.8,0,0,1,1.41-1.53,6.36,6.36,0,0,0,.5-.53l.41-.44a17,17,0,0,0,2.5-5.22,58.21,58.21,0,0,0,1.53-6.25C1638.62,1040.77,1639.22,1036.36,1639.93,1031.86Z" style="fill: #f99893"/>
            <path d="M1551.57,974.49s-15.15-1.22-19.93-7.4c0,0,18.65,6.55,26.91-14.67s28.85-42.56,58.14-48.58,105.13-.46,124.27,18.67,26,37.57,24.2,63.08,5.84,36.22,13.46,36.49a24.46,24.46,0,0,1-19.26-1.74s.66,11.21,10.68,14.57c0,0-24.06-2.35-29.17-16.92,0,0,0,27.83,6.1,34.17,0,0-19.16-8-23.78-53.81,0,0-78.29-30.11-91.45-66.22,0,0,10.72,36.15,23.21,41.91,0,0-33.06,1.48-50.55-30.65,0,0-24.33,18.29-30.77,30.69-6.22,12-11.16,42.16-11.22,44.33L1552.11,984s-8.49,6.57-20.38,1.58C1531.73,985.54,1548.65,981.08,1551.57,974.49Z" style="fill: #fee4cb"/>
            <path d="M1624,1162.27l93-5.25s5.62,20.78-3.45,22.4-24.91,16.22-32.21,14.78-10.53-4.59-18.59-4.69-24.38-6.12-26.54-8.77-12.33-10.82-11.8-11.34S1624,1162.27,1624,1162.27Z" style="fill: #ffc0bb"/>
            <path d="M1550.74,1311.47c-6-125.63,19.27-144.7,19.28-144.71a27.55,27.55,0,0,0-4,2.44c-16.56,12.42-85.1,101.06-85.1,101.06s27.93,42.55,69.81,41.21Z" style="fill: #87c5e8"/>
            <path d="M1960.38,1405.27s-10.22-7.28-14.31-9.82l-5.84-12.36c-19.73-54.56-64.94-113.41-105.34-158.73L1794.4,1257c45.86,49.73,98,119.19,119.9,149l.87,1.94,6.1,22.74c5.44,18.38,10.11,38.28,11.83,38.82,2.42.77,3.88-.86,5.75-23.29a1.84,1.84,0,0,1,3-1.32c8.93,7,37.17,28.72,39.47,26.86,2.73-2.22-22-22.27-20.94-25.35s24.74,17.09,27.28,14.25-19.65-20.51-19-22.08,23.72,13.08,26.21,12.3-20.22-19.42-20-21.54,20.22,5.52,21.08,3.88S2000.38,1435.36,1960.38,1405.27Z" style="fill: #ffc0bb"/>
            <path d="M1800.72,1299.71s53.52-31.58,66-63.49c0,0-75.8-74.79-93.75-79.78C1753,1186.36,1800.72,1299.71,1800.72,1299.71Z" style="fill: #87c5e8"/>
            <path d="M1773,1156.44c-11.14-3.1-65.32,0-65.32,0s-23.93,39.72-79.78,5.65c0,0-38.55-5.46-57.84,4.22,0,0-25.26,19-19.28,144.7,0,0,9.31,128.32,12,141.62,0,0,164.88,23.26,272.58-8l-34.57-144.94S1753,1186.36,1773,1156.44Z" style="fill: #aad9f9"/>
            <path d="M1487.63,1261.66c-4.18,5.34-6.7,8.6-6.7,8.6s27.93,42.55,69.81,41.21q-.29-6-.48-11.69C1523.37,1294.82,1501.39,1276.36,1487.63,1261.66Z" style="fill: #dceaf4"/>
            <path d="M1854.48,1224.36a131.12,131.12,0,0,1-60.08,59.35c3.72,9.84,6.32,16,6.32,16s53.52-31.58,66-63.49C1866.71,1236.22,1861.92,1231.5,1854.48,1224.36Z" style="fill: #dceaf4"/>
            <path d="M1588.18,1161.44c-6.68.83-13.09,2.32-18.16,4.87,0,0-25.26,19-19.28,144.7,0,0,9.31,128.32,12,141.62,0,0,164.88,23.26,272.58-8l-9-37.76C1574.05,1403.94,1584,1200.62,1588.18,1161.44Z" style="fill: #daeef7;opacity: 0.30000000000000004;mix-blend-mode: multiply"/>
            <path d="M1613.45,1044.23a6.71,6.71,0,1,1-7.07-6.33A6.7,6.7,0,0,1,1613.45,1044.23Z" style="fill: #333"/>
            <path d="M1677.79,1044.85a6.71,6.71,0,1,1-7.06-6.33A6.72,6.72,0,0,1,1677.79,1044.85Z" style="fill: #333"/>
            <path d="M1674.63,1086.63c-2.14,9.63-13.15,17.2-26.64,17.62s-25-6.47-27.67-16Z" style="fill: #fff"/>
          </g>
          <g>
            <polygon points="1491.91 1814.3 1491.91 1777.4 1449.71 1765.71 1440.32 1769.83 1438.72 1814.3 1452.01 1853.04 1491.91 1814.3" style="fill: #ffc0bb"/>
            <path d="M1438.15,1825h0a2.87,2.87,0,0,0,.81-3.48c-2.63-5.89-10.88-20.25-28-17.48-1,.16-1.67,1.45-1.51,2.78v0c.15,1.29,1,2.15,2,2,15.31-2.43,22.32,10.22,24.45,15.16A1.55,1.55,0,0,0,1438.15,1825Z" style="fill: #333"/>
            <path d="M1423.9,1830.4h0a2.85,2.85,0,0,0,.81-3.48c-2.62-5.89-10.87-20.24-28-17.47-1,.16-1.67,1.44-1.52,2.77v0c.15,1.29,1,2.14,2,2,15.32-2.43,22.33,10.22,24.45,15.16C1422.13,1830.47,1423.08,1830.89,1423.9,1830.4Z" style="fill: #333"/>
            <path d="M1463.32,1855.88c9.8-25.53,24.07-31.18,33.88-31.64a4.2,4.2,0,0,1,4.34,3.74l2.64,23.91c.58,5.28-2.46,10-6.39,10l-30.56-.29A4.2,4.2,0,0,1,1463.32,1855.88Z" style="fill: #e87b50;opacity: 0.30000000000000004;mix-blend-mode: multiply"/>
            <path d="M1355.32,1240.66c-2.08-3.85-132.14-6.17-149.14,16.4s42.23,70.47,75.64,88.83S1355.32,1240.66,1355.32,1240.66Z" style="fill: #333"/>
            <path d="M1311.31,1267.87c-1.35,3.68-29.59,64-29.59,64s-77.78-44.92-64.83-61.21S1311.31,1267.87,1311.31,1267.87Z" style="fill: #f0b5d5"/>
            <g>
              <path d="M1131,1511.63s-83.9-36.05-145.7,31.67-34.24,128.46-34.24,128.46l-19.52-12.41S906.3,1766.59,1053.07,1787l-16,12s77.1,46.48,126.61,11.09,34.08-59.41,20.84-63.74-112.39-28-112.39-28l-26.95-52,5.18-89.68s31.94-34.39,33-37.5S1131,1511.63,1131,1511.63Z" style="fill: #daeef7"/>
              <path d="M1131.26,1719.25s-143.06-84.5-.22-207.62c0,0-123.82-14.15-145.38,144.08l-18.41-14.88s-21.68,113.74,124.86,134.87S1131.26,1719.25,1131.26,1719.25Z" style="fill: #333"/>
            </g>
            <path d="M1497.05,1248.55s14.74-49.77-41.18-103.24-56.53-25.81-56.53-25.81-23.36,60.23-6.76,98.33S1497.05,1248.55,1497.05,1248.55Z" style="fill: #333"/>
            <path d="M1478,1224.59s-28.89-81.12-58.38-91.57c0,0-6.1-1.84-5.2,17.82s4,65.14,4,65.14Z" style="fill: #f0b5d5"/>
            <path d="M1122.25,1845.77c3.47-1.53-3.47-30.41-3.47-33.28s12.29-63.5,14.75-62.07,109-43.22,124.54-45.68,110.62-74.56,110.62-74.56-4.92-78.66-4.92-81.94S1300,1386.47,1300,1386.47s28.56-101.25,38.39-108.77,60.64-52.29,64.73-52.29,78.66,3.27,82.79,5.73,50.77,48.35,56.28,54.49c5.15,5.75,36.73,30.33,40.78,33.47l.31.33c4.92,77-69.64,139.29-69.64,139.29,20.48,122.91-24.18,201.57-24.18,201.57-2,59,20.49,143.8,20.49,143.8,80.71-7.78,55.31,70.06,55.31,70.06H1388.66c-9-11.06-37.69-102.42-37.69-102.42-13.11,17.61-34,29.9-34,29.9l13.93.41c42.61,4.92,30.32,72.11,30.32,72.11H1136.7s-6.7-8-14.55-28.34A.3.3,0,0,0,1122.25,1845.77Z" style="fill: #daeef7"/>
            <path d="M1366,1632.24l2.74-2.06s-4.92-78.66-4.92-81.94c0-2.83-47.57-121.39-60.55-153.7,255.48,30.33,278.08-62.17,280-75.16l0,0c4.92,77-69.64,139.29-69.64,139.29,20.48,122.91-24.18,201.57-24.18,201.57-19.53,55.57-65.63,92.68-65.63,92.68l-3.19-2.13-53.19-105.31S1367,1640.58,1366,1632.24Z" style="fill: #daeef7;opacity: 0.30000000000000004;mix-blend-mode: multiply"/>
            <path d="M1235.14,1538.2c51.89-38.1,69.29-87.44,69.65-88.47,0,0,0,0,0,0-40.59-23.55-60.26-61.58-60.61-62.25a0,0,0,0,1,0,0c14.84-18.8,17.2-23.76,41-72.91s67.64-91.65,99.14-98.32c69.65-14.75,111.12,9.75,133.56,33.59l65.53,69.63a0,0,0,0,1,0,0c-.67.56-16.53,13.15-42.59-21.32-21-27.77-44.26-52-72.62-62a11.63,11.63,0,0,0-15.05,14.43c2.51,7.77,4.14,17.05,2.46,26.17,0,0-10-18.65-27.36-31.38a25.31,25.31,0,0,0-39.45,14.49c-4,16.15-9.68,35.84-16,46.87-11.88,20.89-44.66,47.52-45.07,65.14s28.68,52,59.41,77A109.37,109.37,0,0,1,1417.2,1488c8.26,18.6,8.56,36.42-3.84,43.68h0c-.07,0-13.57,5.31-30.73,0s-25,9.42-11.88,22.94,37.08,36.46,40.76,72.72c3.63,35.67,8.45,120.12,8.6,122.84,0,0,0,0,0,0-2-1.72-60.4-52.76-73.7-50.34-13.52,2.45-9.83,48.54-66.37,43s-155.73,3.07-157.75,102.93h0c-7.43-19.25-15.89-49.53-20.66-94.53C1091.75,1658.65,1182.7,1576.71,1235.14,1538.2Z" style="fill: #333"/>
            <g>
              <path d="M1498.55,1844.33a56.17,56.17,0,0,0-5.13-24.56,42.64,42.64,0,0,0-16-17.57c-5.11-3.23-11.18-4.52-17.14-4.85a78.1,78.1,0,0,0-26.63,3.62q-2.42-16.53-4.9-33-.93-6.12-1.87-12.26c0-.24-.5-2-.31-2.14q2-1.89,3.92-3.76c18-17.26,32.79-37.89,45.12-59.49,5.51-9.63,9.54-19.78,13.8-30-3.67,7.68-6.91,15.57-11.1,23-4.41,7.81-9.34,15.38-14.41,22.76a305.55,305.55,0,0,1-24.42,31c-3.17,3.45-6.42,6.83-9.81,10-1.07,1-2.16,2.05-3.24,3.07l-1.86,1.76c-.52.49-.7.6-.64,1.35.22,2.57.75,5.14,1.12,7.69q.95,6.48,1.88,13c1.48,10.16,3,20.3,4.57,30.45a87.82,87.82,0,0,1,23.06-4.6c6.4-.31,13.25.2,19.09,3a39.63,39.63,0,0,1,16.3,14.49c4.56,7.26,6.66,15.91,7.25,24.39a118.47,118.47,0,0,1-2.66,32.46,113.79,113.79,0,0,0,4-29.82C1498.6,1839.07,1498.64,1854.86,1498.55,1844.33Z" style="fill: #333"/>
              <path d="M1448.58,1812.49a24.07,24.07,0,0,1,13.13,10.73,50.78,50.78,0,0,1,4.7,10.92c.5,1.67.77,3.43,1.13,5.14,1.89,9,1.64,18.73,1.06,27.86-.15,2.4-.3,4.81-.36,7.21,2.66-11.2,4.07-23,2.26-34.44a43.53,43.53,0,0,0-7.28-18.27c-3.28-4.7-8.88-8.63-14.64-9.15C1451.41,1813.36,1451.55,1812.76,1448.58,1812.49Z" style="fill: #333"/>
              <path d="M1425.23,1815c5.15-.14,8.4,4.27,10.47,8.35,2.87,5.67,3.46,12.45,4,18.67,1,10.6.15,21.22.26,31.84v.54c2.06-10.67,3.31-21.49,2.5-32.36a55.87,55.87,0,0,0-4.45-18.67c-1.8-4.1-6-8.19-10.57-8.54a6.91,6.91,0,0,0-2.22.17C1426.62,1814.91,1428,1814.28,1425.23,1815Z" style="fill: #333"/>
              <path d="M1326.67,1814.74c5.15-.14,8.39,4.28,10.47,8.36,2.77,5.45,3.43,12.1,4,18.09.91,10.25.34,20.51.3,30.78,0,.73,0,1.45,0,2.18,2.06-10.67,3.3-21.5,2.5-32.36-.46-6.37-1.4-13.64-4.76-19.22-2.52-4.17-6.54-8.86-12-7.92l-.44.09C1328.06,1814.7,1329.45,1814.07,1326.67,1814.74Z" style="fill: #333"/>
              <path d="M1291.23,1814.74c3-.08,5.45,1.63,7.49,3.67a14,14,0,0,1,1.79,2.4,2.86,2.86,0,0,1,.38,1.38c0,.3.45.67.62.9,1.65,2.24,2.21,5.45,2.79,8.12a81.81,81.81,0,0,1,1.4,10.34c.93,10.49.21,21,.27,31.51,0,.36,0,.73,0,1.09,2.06-10.67,3.3-21.5,2.5-32.36-.47-6.38-1.4-13.64-4.77-19.22-2.51-4.17-6.53-8.86-12-7.92l-.44.09C1292.63,1814.7,1294,1814.07,1291.23,1814.74Z" style="fill: #333"/>
              <path d="M1533.42,1815c5.16-.14,8.4,4.27,10.47,8.35,2.88,5.66,3.47,12.45,4,18.67.94,10.6.15,21.22.25,31.84,0,.18,0,.36,0,.54,2.06-10.67,3.3-21.49,2.5-32.36-.47-6.37-1.4-13.64-4.77-19.22-2.52-4.16-6.53-8.85-12-7.91l-.44.09C1534.82,1814.91,1536.21,1814.28,1533.42,1815Z" style="fill: #333"/>
              <path d="M1505,1815c5.15-.14,8.4,4.27,10.47,8.35,2.87,5.67,3.46,12.45,4,18.67.94,10.6.14,21.22.25,31.84v.54c2.06-10.67,3.31-21.49,2.5-32.36-.47-6.37-1.39-13.64-4.76-19.22-2.52-4.16-6.53-8.85-12-7.91l-.44.09C1506.41,1814.91,1507.79,1814.28,1505,1815Z" style="fill: #333"/>
              <path d="M1202.13,1667.05a239,239,0,0,1,52.1-15.78c17.36-3.17,36.1-4.39,53.2.78a58.15,58.15,0,0,1,21.11,11.35,56.66,56.66,0,0,1,14.55,20.09c7.3,16.46,8.57,34.84,8.06,52.62-.14,4.65-.47,9.28-.87,13.91-.72,8.19-2.52,15.88-6.49,23.15-8.34,15.25-24.18,24.5-39.52,31.55-28.81,13.26-61,18.55-92.45,20.85q-7.1.53-14.2.85c31.64,1.27,64.23-1.4,94.47-11.25a163.28,163.28,0,0,0,24.09-9.86c7.61-3.91,15.24-8.47,21.61-14.21a58,58,0,0,0,14.23-19.59c3.18-7.16,4.42-14.55,5.15-22.3,1.38-14.47,1.48-29.17-.83-43.56-2.74-17.13-9.32-34.22-22.66-45.89-13-11.37-30-15.7-47-15.88-18-.19-36,3.92-52.92,9.67a214.27,214.27,0,0,0-31.61,13.5C1206.14,1665.3,1209.87,1663,1202.13,1667.05Z" style="fill: #333"/>
            </g>
            <path d="M1499.58,1313.14c4.09.77,6.29,4.94,4.87,9.1-2.89,8.46-9.06,22.71-18.45,25-13.48,3.3-35.41-16.46-34.07-24.69C1453,1315.71,1484.52,1310.3,1499.58,1313.14Z" style="fill: #333"/>
            <path d="M1413.67,1480.72s44.33,45.81,6.64,269.7c0,0-91.42-152.2-93.64-160.39s1.87-77.84,3.51-80.3S1413.67,1480.72,1413.67,1480.72Z" style="fill: #333"/>
            <polygon points="1502.45 1367.82 1499.17 1374.64 1495.59 1367.37 1502.45 1367.82" style="fill: #fff"/>
            <polygon points="1470.35 1369.44 1472.24 1369.56 1468.96 1376.38 1466.72 1371.85 1470.35 1369.44" style="fill: #fff"/>
            <path d="M1442.74,1369.55a43.16,43.16,0,0,0,9.83,3.21,25.5,25.5,0,0,0,10.15,0,21.41,21.41,0,0,0,9-4.43,30.73,30.73,0,0,0,6.58-7.68,48.47,48.47,0,0,0,4.4-9.22,58.87,58.87,0,0,0,2.63-9.86l2.73.45a60.06,60.06,0,0,1-3.1,10.27,50.6,50.6,0,0,1-4.43,8.71,49.24,49.24,0,0,0,10.45,4.9c3.67,1.1,7.62,1.58,11.27.45a15,15,0,0,0,8.49-7.41,30.15,30.15,0,0,0,3.44-11.29,30.35,30.35,0,0,1-2.83,11.61,16,16,0,0,1-8.64,8.4,18.19,18.19,0,0,1-7.73,1,25.71,25.71,0,0,1-.91,4.84,21.54,21.54,0,0,1-2.23,5.2,15.44,15.44,0,0,1-8.65,7,17.4,17.4,0,0,1-5.48.83,28.14,28.14,0,0,1-5.43-.5,50.9,50.9,0,0,1-10.27-3.32,50.27,50.27,0,0,0,10.37,2.64,27.58,27.58,0,0,0,5.29.15,16.59,16.59,0,0,0,5.06-1.1,13.7,13.7,0,0,0,7.3-6.71,21.81,21.81,0,0,0,2.23-9.39c-.62-.1-1.23-.23-1.83-.37a51.66,51.66,0,0,1-11.19-4.46h0l-.28-.14h0a31.56,31.56,0,0,1-6.16,6.38,23.1,23.1,0,0,1-9.77,4.43,27,27,0,0,1-10.64-.3,43.94,43.94,0,0,1-9.92-3.61,89.93,89.93,0,0,1-17.21-11.94A89.57,89.57,0,0,0,1442.74,1369.55Z" style="fill: #333"/>
            <path d="M1421.32,1302.67a9.7,9.7,0,1,0,9.7-9.7A9.7,9.7,0,0,0,1421.32,1302.67Z" style="fill: #352d38"/>
            <path d="M1485.89,1295.33a9.7,9.7,0,1,0,9.7-9.7A9.7,9.7,0,0,0,1485.89,1295.33Z" style="fill: #352d38"/>
            <path d="M1489.17,1291.31c-1.38,2-1.42,4.37-.1,5.28s3.52,0,4.91-2,1.42-4.36.09-5.28S1490.55,1289.31,1489.17,1291.31Z" style="fill: #fff"/>
            <path d="M1429.13,1301.17c1.11-2.16.86-4.52-.58-5.25s-3.49.41-4.61,2.57-.86,4.51.57,5.25S1428,1303.33,1429.13,1301.17Z" style="fill: #fff"/>
            <path d="M1491,1321c4.33-.32,7.75-1.88,7.63-3.49s-3.72-2.65-8-2.34-7.75,1.88-7.63,3.49S1486.62,1321.3,1491,1321Z" style="fill: #fff"/>
          </g>
        </g>
      </g>
    </g>
  </g>
</svg>
